<?xml version="1.0" encoding="utf-8"?>
<!-- Generator: Adobe Illustrator 26.5.0, SVG Export Plug-In . SVG Version: 6.00 Build 0)  -->
<svg version="1.1" id="Ebene_1" xmlns="http://www.w3.org/2000/svg" xmlns:xlink="http://www.w3.org/1999/xlink" x="0px" y="0px"
	 viewBox="0 0 630.8 587.3" style="enable-background:new 0 0 630.8 587.3;" xml:space="preserve">
<style type="text/css">
	.st0{fill:#DADADA;}
	.st1{fill:#FFFFFF;}
	.st2{fill:#3C3C3B;}
	.st3{fill:#103E4E;}
	.st4{fill:#CFCFCE;}
	.st5{fill:#B2B2B2;}
	.st6{fill:#BBBBBB;}
	.st7{fill:#395B6A;}
	.st8{opacity:0.37;fill:#706F6F;enable-background:new    ;}
	.st9{fill:#DDE2E0;}
	.st10{fill:#415D68;}
	.st11{fill:#536D77;}
	.st12{fill:#F6F6F6;}
	.st13{fill:#36A9E1;enable-background:new    ;}
	.st14{fill:#36A9E1;}
</style>
<path class="st0" d="M363.4,476.1l-221.9-67c-5.5-1.7-8.7-7.5-7-13.1l39.1-129.3c1.7-5.5,7.5-8.7,13.1-7l221.9,67
	c5.5,1.7,8.7,7.5,7,13.1l-39.1,129.3C374.8,474.6,368.9,477.8,363.4,476.1z"/>
<path class="st1" d="M212.9,140.7c1.6,0,2.9,0.3,3.5,0.4c0.8,0.2,1.5,0.4,2,0.6l159.7,47.2c16.5,4.9,41.1,12.2,71.2,21.6
	c3.5,1.2,7,2.4,10.4,3.6c1.2,0.9,2.9,2.4,3.5,4.8c0.8,3-0.6,5.6-1.1,6.6c-8.2,15.8-13.7,32.7-20.8,49c-4.7,10.9-5.4,14.5-12.1,29.4
	c-2.4,5.4-4.5,9.7-5.9,12.6c-1.4,1.2-3.5,2.6-6.2,2.9c-3,0.3-5.4-0.8-5.9-1c-4.8-2.1-63.3-19.3-148-43.8
	c-25.9-7.5-51.7-15.1-77.6-22.6c-0.3-0.1-3.5-1.2-4.1-4c-0.2-1-0.1-1.9,0-2.2c0.7-2.9,8.9-39,20.1-88.5c1.1-4.1,2.3-8.2,3.4-12.3
	c0.5-1,1.4-2.7,3.4-3.6C209.7,140.7,210.9,140.7,212.9,140.7z"/>
<g id="Og7eq6.tif_00000059310699734659566510000001178494075574507909_">
	<g>
		<path class="st2" d="M286.9,391.2c-3.8-1.2-6.7-2.1-9.7-3.1c-19-5.8-38-11.5-57-17.4c-1.9-0.6-5.1-2.4-5-3.4
			c0.4-3.4,1.8-6.8,3.2-10c0.2-0.5,2.5-0.6,3.6-0.3c22.3,6.7,44.6,13.5,66.8,20.3c2.7,0.8,3.9,2.5,2.9,5.5c-0.7,1.8-0.9,3.8-1.8,5.5
			C289.3,389.6,287.8,390.4,286.9,391.2z"/>
		<path class="st2" d="M176.8,324.8c7.2,2.3,15.4,4.6,23.3,7.6c3.8,1.5,2.4,5.2,1.4,8.2c-0.9,2.9-2.7,5-5.9,4.1
			c-7.7-2.1-15.4-4.6-23-7.1c-2.8-0.9-3.6-3.3-2.7-6.2C170.9,328.3,171.4,324.8,176.8,324.8z"/>
		<path class="st2" d="M385.9,367c-4.9-1.6-10.6-3-15.8-5.3c-3.7-1.6-2.3-5.2-1.4-8.3c1-3.1,2.8-5.1,6.2-4.3c5,1.3,10,2.9,14.9,4.6
			c3,1.1,3.8,3.5,2.8,6.6C391.5,363.5,390.9,366.8,385.9,367z"/>
		<path class="st2" d="M181.7,307.9c4.7,1.5,10.4,2.9,15.6,5.3c4,1.8,2.3,5.6,1.3,8.7c-1,3-3.1,4.5-6.1,3.7
			c-4.9-1.3-9.8-2.8-14.5-4.5c-2.9-1-4.1-3.4-3.1-6.5S176.4,308,181.7,307.9z"/>
		<path class="st2" d="M382.5,390.5c-1.4,9.2-4,10.9-10,8.7c-3.1-1.1-6.3-1.9-9.4-3c-4.3-1.5-4.9-3.4-3.2-8.5c1.2-3.6,3-5.9,7.3-4.4
			c3.8,1.3,7.8,2.2,11.5,3.8C380.3,387.7,381.6,389.6,382.5,390.5z"/>
		<path class="st2" d="M229.3,308c-0.1,5-3.2,8.7-7.2,8.6c-4.7-0.1-8.7-2.9-8.7-6.1c0-4.8,3-8.9,6.5-8.8
			C225.8,301.9,229.4,304.4,229.3,308z"/>
		<path class="st2" d="M228.1,336.4c-5.4-0.2-9.5-3-9.3-6.4c0.3-5,3.2-8.6,6.9-8.5c5.2,0.1,9.3,3.2,9.1,6.7
			C234.4,332.9,231.4,336.5,228.1,336.4z"/>
		<path class="st2" d="M307.4,375c0.4-5.3,2.8-8.1,6.7-7.7c6,0.5,9,2.7,8.7,6.3c-0.4,5.5-3.2,8.4-7.5,8
			C309.9,381.1,307.1,378.8,307.4,375z"/>
		<path class="st2" d="M317.4,386.4c5-0.1,9,2.6,9,6c0.1,4.6-2.7,8.5-6.1,8.5c-5.2,0.1-9.1-2.3-9.2-5.8
			C311,390.4,313.8,386.5,317.4,386.4z"/>
		<path class="st2" d="M325.4,348c-5-0.1-9.6-3.1-9.5-6.3c0.2-4.2,3.7-8.4,7.1-8.5c4.8-0.1,8.9,3,8.8,6.5
			C331.6,344.5,328.9,348.1,325.4,348z"/>
		<path class="st2" d="M313,362.6c-4.5,0.1-8.8-2.9-8.8-6c-0.1-4.5,2.8-8.6,6.1-8.7c4.3-0.1,9.8,3.3,9.8,6.2
			C320.1,357.7,316.1,362.5,313,362.6z"/>
		<path class="st2" d="M228.8,340.9c4.7,0,8.4,2.4,8.5,5.7c0.2,4.4-2.8,8.7-6,8.7c-5.3,0.1-9.6-2.7-9.5-6.2
			C221.9,344.3,224.8,341,228.8,340.9z"/>
		<path class="st2" d="M196.6,305.1c0-4.6,2.9-8.7,6.1-8.7c4.8-0.1,8.9,2.9,8.7,6.5c-0.2,4.8-3,8.6-6.3,8.5
			C200.5,311.3,196.6,308.5,196.6,305.1z"/>
		<path class="st2" d="M314,334.2c-0.1,4.6-3,8.6-6.2,8.7c-4.5,0-8.6-2.9-8.7-6.2c-0.1-4.8,3-9.4,6.4-8.8
			C310.9,329,314,330,314,334.2z"/>
		<path class="st2" d="M348.6,344.7c0,4.8-2.6,8.5-6.1,8.6c-4.6,0.1-8.7-2.6-8.8-5.9c-0.2-4.7,2.9-8.9,6.3-8.9
			C344.9,338.6,348.6,341.3,348.6,344.7z"/>
		<path class="st2" d="M359.6,358.5c-4.5,0.1-8.7-2.7-8.8-5.9c-0.2-4.6,2.9-8.8,6.3-8.8c4.7,0,8.5,2.7,8.6,6.1
			C365.7,354.4,362.9,358.4,359.6,358.5z"/>
		<path class="st2" d="M392.8,345.8c-3.2,0.2-6.2-1.6-6.4-3.9c-0.3-3.3,1.7-6.3,4.2-6.4c3.4-0.1,6.1,1.6,6.2,4
			C397,342.7,395.2,345.6,392.8,345.8z"/>
		<path class="st2" d="M237.7,307c4.7,0,8.6,2.8,8.6,6.1c0,4.8-3,8.8-6.6,8.7c-4.9-0.1-8.6-2.9-8.4-6.3
			C231.5,310.7,234.3,307,237.7,307z"/>
		<path class="st2" d="M256.8,327c-4.8-0.1-8.9-2.9-8.4-6.2c0.8-5.2,2.1-8.8,6.5-8.6c5.1,0.3,8.4,2.8,8.2,6.4
			C263,323.5,260.3,327.1,256.8,327z"/>
		<path class="st2" d="M210.6,331.1c-4.4,0.1-8.7-2.9-8.8-6c-0.1-4.3,2.8-8.6,6-8.8c4.7-0.2,9,2.8,9,6.2
			C216.7,327.2,214,331.1,210.6,331.1z"/>
		<path class="st2" d="M330.7,367.7c-4.7,0-8.7-2.8-8.7-6.1c0-4.5,2.9-8.6,6.2-8.6c4.6,0,8.6,2.8,8.7,6.2
			C337,363.8,334.2,367.7,330.7,367.7z"/>
		<path class="st2" d="M194.4,297.3c0.1,4.6-2.6,8.7-5.8,8.8c-4.5,0.2-8.8-2.8-8.8-6.3c0-4.7,2.7-8.5,6-8.5
			C190.6,291.3,194.3,293.9,194.4,297.3z"/>
		<path class="st2" d="M296.9,329.1c-0.1,4.9-2.8,8.9-6.1,8.4c-5.4-0.7-8.8-2.2-8.5-6.5c0.3-5.1,2.8-8.4,6.4-8.2
			C293.6,323,297,325.6,296.9,329.1z"/>
		<path class="st2" d="M302.3,349c-0.2,4.9-2.8,8.4-6.3,8.3c-4.7-0.1-8.6-2.9-8.5-6.2c0-4.9,3-8.8,6.5-8.5
			C298.9,342.9,302.4,345.6,302.3,349z"/>
		<path class="st2" d="M245.1,341.5c-4.8-0.1-8.5-2.7-8.5-6.1c0-4.6,2.8-8.5,6.1-8.6c4.8-0.1,8.8,2.9,8.7,6.4
			C251.2,338.2,248.7,341.5,245.1,341.5z"/>
		<path class="st2" d="M285.2,343.9c-0.1,5-2.7,8.3-6.4,8.2c-5-0.2-8.4-2.8-8.2-6.4c0.2-5,2.7-8.3,6.4-8.2
			C282,337.7,285.3,340.2,285.2,343.9z"/>
		<path class="st2" d="M364.5,378.2c-4.9,0-8.5-2.7-8.5-6.1c0-4.7,2.8-8.5,6.2-8.5c4.7,0,8.5,2.8,8.5,6.2
			C370.8,374.5,368.1,378.2,364.5,378.2z"/>
		<path class="st2" d="M268.3,338.3c0,4.8-2.6,8.4-6.1,8.4c-4.9,0-8.6-2.7-8.6-6.1c0.1-4.7,2.8-8.5,6.2-8.4
			C264.7,332.2,268.3,334.8,268.3,338.3z"/>
		<path class="st2" d="M204.6,351.8c4.8,0.1,8.5,2.9,8.4,6.3c-0.2,4.6-2.9,8.2-6.1,8.2c-4.6,0-8.6-2.9-8.6-6.1
			C198.3,355.4,201.1,351.8,204.6,351.8z"/>
		<path class="st2" d="M280,323.7c0.1,4.6-2.6,8.5-6,8.6c-4.5,0.1-8.6-2.6-8.8-5.8c-0.2-4.6,2.7-8.8,6.2-8.8
			C276.3,317.6,279.9,320.2,280,323.7z"/>
		<path class="st2" d="M262.6,351.4c4.8,0,8.5,2.7,8.4,6.2c-0.1,4.9-2.8,8.5-6.2,8.3c-4.6-0.2-8.2-2.8-8.3-6
			C256.4,355.3,259.3,351.3,262.6,351.4z"/>
		<path class="st2" d="M387.7,375.1c-0.1,5-2.7,8.4-6.3,8.3c-4.9-0.2-8.4-2.8-8.4-6.3c0.1-4.8,2.7-8.3,6.3-8.3
			C384.2,369,387.7,371.6,387.7,375.1z"/>
		<path class="st2" d="M308.6,387.3c0,4.8-2.7,8.6-6.1,8.5c-4.6-0.1-8.2-2.7-8.3-5.8c-0.1-4.4,2.7-8.7,6-8.7
			C304.8,381.2,308.6,383.8,308.6,387.3z"/>
		<path class="st2" d="M354.2,411.4c-4.8,0-8.6-2.8-8.4-6.2c0.2-4.7,2.8-8.2,6-8.2c4.6-0.1,8.6,2.7,8.7,6
			C360.5,407.6,357.7,411.4,354.2,411.4z"/>
		<path class="st2" d="M345.2,358.3c4.7,1,8.6,2.1,8.5,6.2c-0.2,4.9-2.6,8.4-6.2,8.4c-4.8,0-8.5-2.7-8.5-6.1
			C339,362.1,341.8,358.3,345.2,358.3z"/>
		<path class="st2" d="M189.6,361c-4.8-0.1-8.5-2.9-8.3-6.3c0.3-5,3-8.4,6.5-8.2c4.9,0.3,8.2,2.8,8.1,6.1
			C195.8,357.6,193.2,361.1,189.6,361z"/>
		<path class="st2" d="M325.1,380.7c0.1-4.8,2.9-8.4,6.3-8.3c4.7,0.1,8.3,2.6,8.3,5.9c0,4.5-2.8,8.6-6.1,8.7
			C329.2,387,325,384,325.1,380.7z"/>
		<path class="st2" d="M287.9,362.6c0.1,4.7-2.7,8.5-6.1,8.5c-4.8,0-8.4-2.7-8.3-6.2c0.1-4.6,2.7-8.2,5.9-8.3
			C283.8,356.5,287.9,359.3,287.9,362.6z"/>
		<path class="st2" d="M254,352.2c0,4.7-2.8,8.7-6.1,8.6c-4.5-0.1-8.2-2.8-8.4-5.9c-0.2-4.2,2.9-8.7,6-8.8
			C250,345.9,254,348.8,254,352.2z"/>
		<path class="st2" d="M170.5,341.3c4.6,0,8.6,2.9,8.5,6.1c-0.1,4.8-2.8,8.4-6.3,8.4c-4.7-0.1-8.2-2.5-8.2-5.8
			C164.4,345.3,167.2,341.3,170.5,341.3z"/>
		<path class="st2" d="M304.9,368.2c-0.2,4.9-2.8,8.3-6.4,8.1c-5-0.2-8.2-2.7-8-6.4c0.3-4.8,2.8-8.4,6.1-7.9
			C301.7,362.7,305.2,364.1,304.9,368.2z"/>
		<path class="st2" d="M348.1,377.7c4.8,0,8.4,2.6,8.3,6.1c0,4.5-2.6,8.2-5.8,8.4c-4.3,0.2-8.6-2.8-8.7-6
			C341.9,381.7,344.8,377.7,348.1,377.7z"/>
		<path class="st2" d="M211.1,335.6c4.8,0,8.5,2.8,8.4,6.2c-0.2,4.7-2.7,8.2-5.9,8.3c-4.5,0.1-8.6-2.8-8.6-6.1
			C204.9,339.5,207.7,335.6,211.1,335.6z"/>
		<path class="st2" d="M373.5,417.7c-3.9-1.2-7.2-2-10.1-3.4c-0.7-0.3-1-2.8-0.7-4c0.3-0.9,2-2.2,2.9-2c2.9,0.5,5.8,1.4,8.5,2.6
			c0.8,0.4,1.5,2.3,1.4,3.4C375.3,415.6,374.1,416.7,373.5,417.7z"/>
		<path class="st2" d="M339.7,407.3c-3.9-1.3-7.3-2.1-10.4-3.5c-0.6-0.3-0.9-2.7-0.5-3.8c0.4-1,2.1-2.2,3-2.1
			c2.9,0.5,5.8,1.4,8.5,2.6c0.8,0.4,1.4,2.3,1.3,3.4C341.5,405.2,340.3,406.2,339.7,407.3z"/>
	</g>
</g>
<path d="M209.2,144.8c1.6,0,2.9,0.2,3.5,0.4c0.8,0.2,1.5,0.4,2,0.6l160,47.7c16.6,4.9,41.2,12.3,71.3,21.9c3.5,1.2,7,2.4,10.5,3.6
	c1.2,0.9,2.9,2.5,3.6,4.9c0.8,3.1-1.8,9.5-2.2,10.5c-8,18.4-9.5,23.2-16.4,40c-4.6,11.3-8.2,21.8-14.9,37.3
	c-2.4,5.6-4.5,10.1-5.8,13c-1.4,1.2-3.5,2.7-6.2,3c-3,0.4-5.4-0.8-5.9-1c-4.8-2.1-63.4-19.5-148.2-44.3
	c-25.9-7.6-51.8-15.2-77.7-22.9c-0.3-0.1-3.5-1.2-4.2-4.1c-0.3-1.1-0.1-2,0-2.3c0.7-3,8.6-40.2,19.6-91.4c1.1-4.2,2.2-8.5,3.3-12.7
	c0.4-1,1.4-2.8,3.4-3.7C205.9,144.8,207.1,144.8,209.2,144.8z"/>
<path class="st3" d="M222.7,156.4c1.4,0,2.5,0.2,3.1,0.3c0.7,0.2,1.3,0.3,1.7,0.5l139.8,41.7c14.5,4.3,36,10.8,62.3,19.1
	c3,1.1,6.1,2.1,9.1,3.2c1,0.8,2.6,2.2,3.1,4.3c0.7,2.7-1.5,8.3-1.9,9.2c-7,16.1-8.3,20.3-14.3,35c-4.1,9.9-7.2,19.1-13,32.6
	c-2.1,4.9-3.9,8.8-5.1,11.4c-1.2,1.1-3,2.4-5.4,2.7c-2.6,0.3-4.7-0.7-5.2-0.9c-4.2-1.9-55.4-17.1-129.5-38.7
	c-22.6-6.7-45.3-13.3-67.9-20c-0.3-0.1-3-1.1-3.6-3.6c-0.2-0.9-0.1-1.7,0-2c0.6-2.6,7.5-35.2,17.1-79.9c1-3.7,1.9-7.4,2.9-11.1
	c0.4-0.9,1.2-2.4,2.9-3.2C219.8,156.3,220.9,156.3,222.7,156.4z"/>
<path class="st2" d="M216,270l-1,3.7c-0.2,0.6,0.2,1.3,0.8,1.5l161.7,47.3c0.6,0.2,1.3-0.2,1.5-0.8l0.8-2.7c0.2-0.6-0.2-1.3-0.8-1.5
	l-161.5-48.4C216.8,269,216.1,269.4,216,270z"/>
<path class="st2" d="M186.5,276.3l-1.2,4.4c-0.2,0.8,0.2,1.7,1,1.9l193.2,58.1c0.8,0.2,1.6-0.2,1.9-1l1-3.1c0.3-0.8-0.2-1.7-1-1.9
	l-193-59.3C187.6,275,186.8,275.5,186.5,276.3z"/>
<path class="st4" d="M282.6,439.6l-60.9-18.8c-1.7-0.5-2.7-2.3-2.1-4.1l10.7-34.8c0.5-1.7,2.3-2.7,4.1-2.1l60.9,18.8
	c1.7,0.5,2.7,2.3,2.1,4.1l-10.7,34.8C286.2,439.2,284.3,440.1,282.6,439.6z"/>
<path class="st5" d="M281.1,436.8l-56.5-17.4c-1.7-0.5-2.7-2.3-2.1-4.1l9.4-30.5c0.5-1.7,2.3-2.7,4.1-2.1l56.5,17.4
	c1.7,0.5,2.7,2.3,2.1,4.1l-9.4,30.5C284.6,436.4,282.8,437.3,281.1,436.8z"/>
<path class="st6" d="M222.3,433.3c0.8-2.7,5.5-5.1,8.6-4.2l40.1,12.4c3.1,1,5.8,5.4,5,8.1"/>
<polygon class="st7" points="358.5,196.5 374.4,201.1 273.6,278.5 257.1,273.6 "/>
<path class="st7" d="M364.6,305.1l-77.2-22.5c32.6-25.9,66.4-51.9,99-77.9c17.7,5.3,34.2,9.3,50.8,14.8c1.2,0.7,3.4,2,4.3,4.6
	c1,2.8,0.1,5.5-0.6,7.3c-1.9,5.4-5.4,12.5-7.8,19.2L364.6,305.1z"/>
<path class="st8" d="M393.6,514.7l39.3-87.7c2-4.5,7.3-6.5,11.8-4.5l45.3,20.3c4.5,2,6.5,7.3,4.5,11.8l-39.3,87.7
	c-2,4.5-7.3,6.5-11.8,4.5l-45.3-20.3C393.6,524.5,391.6,519.2,393.6,514.7z"/>
<path class="st9" d="M389.4,512.9l39.3-87.7c2-4.5,7.3-6.5,11.8-4.5l45.3,20.3c4.5,2,6.5,7.3,4.5,11.8L451,540.5
	c-2,4.5-7.3,6.5-11.8,4.5l-45.3-20.3C389.4,522.6,387.4,517.3,389.4,512.9z"/>
<path class="st10" d="M397,508.3l34.9-77.5c0.6-1.3,2.1-1.8,3.3-1.3l47.7,21.5c1.3,0.6,1.8,2.1,1.3,3.3l-34.9,77.5
	c-0.6,1.3-2.1,1.8-3.3,1.3l-47.7-21.5C397,511.1,396.4,509.6,397,508.3z"/>
<path class="st10" d="M417.5,533.8l-2.9-1.3c-1.8-0.8-2.6-2.9-1.8-4.6l1.3-2.9c0.8-1.8,2.9-2.6,4.6-1.8l2.9,1.3
	c1.8,0.8,2.6,2.9,1.8,4.6l-1.3,2.9C421.3,533.8,419.3,534.6,417.5,533.8z"/>
<polygon class="st11" points="463,442.3 472.9,446.6 408.1,483.5 414.7,469 "/>
<path class="st11" d="M477.7,448.9l5.3,2.2c1.3,0.5,1.9,2.1,1.3,3.3l-20.4,43.3c-0.2,0.4-0.5,0.8-0.9,1l-37.1,23.7
	c-0.7,0.5-1.2,1-2,0.7l-26.3-11.9c-1.2-0.6-1-2.5-0.4-3.8l8-17.6c0.2-0.5,0.6-0.9,1-1.1l69.4-39.8
	C476.2,448.7,477,448.6,477.7,448.9z"/>
<path class="st12" d="M307.2,230.7l-1.3-3.1c-0.1-0.1,0.1-0.3,0.2-0.2l39.2,11.8c0.8,0.2,1.3,1.1,1,1.9l-1.4,4.8
	c-0.2,0.8-1.1,1.2-1.9,1L307.2,236c-0.8-0.2-1.2-1-0.9-1.8l0.9-3.1C307.3,231,307.2,230.8,307.2,230.7z"/>
<path class="st13" d="M54.6,196l-3.8-4c-0.2-0.2-0.1-0.5,0.2-0.5l65.8-3.8c1.3-0.1,2.5,1,2.6,2.3l0.5,8c0.1,1.3-0.9,2.5-2.3,2.5
	l-60,3.4c-1.3,0.1-2.3-0.9-2.4-2.2l-0.3-5.2C54.9,196.4,54.8,196.2,54.6,196z"/>
<path class="st13" d="M62.9,252l-3.8-4c-0.2-0.2-0.1-0.5,0.2-0.5l65.8-3.8c1.3-0.1,2.5,1,2.6,2.3l0.5,8c0.1,1.3-0.9,2.5-2.3,2.5
	l-60,3.4c-1.3,0.1-2.3-0.9-2.4-2.2l-0.3-5.2C63.2,252.4,63.1,252.2,62.9,252z"/>
<path class="st13" d="M140.2,213.3l2.5-4.3c0.1-0.2,0-0.5-0.2-0.5l-50.6,2.9c-1,0.1-1.8,1.2-1.7,2.5l0.5,8c0.1,1.3,1,2.4,2,2.3
	l46.1-2.6c1-0.1,1.7-1.1,1.6-2.4l-0.3-5.2C140.1,213.7,140.1,213.5,140.2,213.3z"/>
<path class="st13" d="M143.6,229.7l2.5-3c0.1-0.1,0-0.3-0.2-0.3l-50.5,2.9c-1,0.1-1.8,0.8-1.8,1.7l0.3,5.4c0.1,0.9,0.9,1.6,1.9,1.5
	l46.1-2.6c1-0.1,1.7-0.8,1.7-1.6l-0.2-3.5C143.4,230,143.5,229.8,143.6,229.7z"/>
<path class="st12" d="M313.7,205.2l-1.2-2.5c-0.1-0.1,0.1-0.2,0.2-0.2l32.7,9.9c0.7,0.2,1.1,0.9,0.9,1.5l-1.1,3.7
	c-0.2,0.6-0.9,0.9-1.5,0.8l-29.8-9c-0.6-0.2-1-0.8-0.8-1.4l0.7-2.4C313.8,205.4,313.8,205.3,313.7,205.2z"/>
<path class="st12" d="M296.2,266.1l-1.3-3.1c-0.1-0.1,0.1-0.3,0.2-0.2l39.2,11.8c0.8,0.2,1.3,1.1,1,1.9l-1.4,4.8
	c-0.2,0.8-1.1,1.2-1.9,1l-35.7-10.8c-0.8-0.2-1.2-1-0.9-1.8l0.9-3.1C296.2,266.4,296.2,266.2,296.2,266.1z"/>
<path class="st12" d="M407.1,289.8l1.9-1.2c0.1-0.1,0.1-0.2,0-0.2l-25.9-7.8c-0.5-0.2-1.1,0.1-1.2,0.6l-0.9,3.1
	c-0.2,0.5,0.1,1.1,0.7,1.2l23.6,7.1c0.5,0.1,1-0.1,1.2-0.6l0.6-2C406.9,289.9,407,289.8,407.1,289.8z"/>
<path class="st12" d="M421.4,251.5l2.7-1.7c0.1-0.1,0.1-0.3,0-0.3L386.2,238c-0.8-0.2-1.6,0.2-1.8,1l-1.4,4.5
	c-0.2,0.7,0.2,1.5,1,1.8l34.5,10.4c0.7,0.2,1.5-0.2,1.7-0.9l0.9-3C421.2,251.7,421.3,251.6,421.4,251.5z"/>
<path class="st12" d="M326.7,249l-21.4-6.5c-0.8-0.2-1.3-1.1-1-1.9l0.4-1.5c0.2-0.8,1.1-1.3,1.9-1l21.4,6.5c0.8,0.2,1.3,1.1,1,1.9
	l-0.4,1.5C328.4,248.8,327.5,249.2,326.7,249z"/>
<path class="st12" d="M324.5,256.1l-21.4-6.5c-0.8-0.2-1.3-1.1-1-1.9l0.4-1.5c0.2-0.8,1.1-1.3,1.9-1l21.4,6.5c0.8,0.2,1.3,1.1,1,1.9
	l-0.4,1.5C326.2,255.9,325.4,256.3,324.5,256.1z"/>
<path class="st12" d="M275.8,213.5l-47.4-12.7c-1.1-0.3-1.7-1.4-1.4-2.4l1.4-5.2c0.3-1.1,1.4-1.7,2.4-1.4l47.4,12.7
	c1.1,0.3,1.7,1.4,1.4,2.4l-1.4,5.2C277.9,213.1,276.8,213.8,275.8,213.5z"/>
<path class="st12" d="M280.9,198.5l-30.8-8.3c-1.1-0.3-1.7-1.4-1.4-2.4l1.4-5.2c0.3-1.1,1.4-1.7,2.4-1.4l30.8,8.3
	c1.1,0.3,1.7,1.4,1.4,2.4l-1.4,5.2C283,198.2,282,198.8,280.9,198.5z"/>
<path class="st12" d="M269.3,237.7L221.8,225c-1.1-0.3-1.7-1.4-1.4-2.4l1.4-5.2c0.3-1.1,1.4-1.7,2.4-1.4l47.4,12.7
	c1.1,0.3,1.7,1.4,1.4,2.4l-1.4,5.2C271.4,237.4,270.3,238,269.3,237.7z"/>
<path class="st12" d="M272.5,225.5l-47.4-12.7c-1.1-0.3-1.7-1.4-1.4-2.4l1.4-5.2c0.3-1.1,1.4-1.7,2.4-1.4l47.4,12.7
	c1.1,0.3,1.7,1.4,1.4,2.4l-1.4,5.2C274.7,225.2,273.6,225.8,272.5,225.5z"/>
<path class="st12" d="M265.4,250.1L218,237.4c-1.1-0.3-1.7-1.4-1.4-2.4l1.4-5.2c0.3-1.1,1.4-1.7,2.4-1.4l47.4,12.7
	c1.1,0.3,1.7,1.4,1.4,2.4l-1.4,5.2C267.5,249.8,266.4,250.4,265.4,250.1z"/>
<path class="st12" d="M262,262.8l-47.4-12.7c-1.1-0.3-1.7-1.4-1.4-2.4l1.4-5.2c0.3-1.1,1.4-1.7,2.4-1.4l47.4,12.7
	c1.1,0.3,1.7,1.4,1.4,2.4l-1.4,5.2C264.1,262.4,263,263.1,262,262.8z"/>
<circle class="st12" cx="239.5" cy="181.2" r="6.6"/>
<g id="F5UNyJ.tif_00000116931602783606422540000018432646691038513849_">
	<g>
		<path class="st1" d="M436.7,485.5c0.7,0.1,1.3,0.1,2,0.2c1,0.1,1.5,0.6,1.6,1.6c0.5,3.3,1,6.6,1.6,9.8c0.1,0.7-0.1,1.3-0.7,1.8
			c-3.5,3-9.1,2-11.5-2c-0.8-1.3-1.2-2.8-1.6-4.2c-0.9-3.7-1.1-7.4-0.4-11.2c1.4-7.2,5.2-12.8,11.3-16.8c1.5-1,3.2-1.9,4.9-2.5
			c3.2-1.1,6.8,0.1,8.7,2.9c0.8,1.2,1.2,2.5,1.3,3.9c0.1,0.7-0.2,1.2-0.8,1.6c-2.7,1.9-5.5,3.8-8.2,5.7c-0.7,0.5-1.5,0.5-2.2-0.1
			c-0.5-0.4-1-0.9-1.5-1.3c0,0,0,0-0.1,0C438.5,478,437,481.5,436.7,485.5z"/>
		<path class="st1" d="M457.7,477.2c2.4,6.6-0.2,14-6.2,17.8c-0.7,0.5-1.5,0.8-2.3,1.2c-0.9,0.4-1.8,0-2.2-0.8
			c-0.4-0.9-0.1-1.8,0.8-2.2c1.6-0.7,3-1.6,4.2-2.8c2.8-3.1,3.8-6.8,2.8-10.9c-0.1-0.5-0.3-1-0.5-1.6c-0.3-0.9,0.2-1.8,1-2.1
			c0.8-0.3,1.7,0.1,2.1,0.9C457.6,476.8,457.7,477,457.7,477.2z"/>
		<path class="st1" d="M451.4,479.4c1.4,3.5-0.1,7.8-3.3,9.9c-0.5,0.3-0.9,0.5-1.4,0.7c-0.9,0.4-1.8,0-2.2-0.8
			c-0.4-0.9,0-1.9,0.9-2.3c1.4-0.6,2.3-1.6,2.8-3c0.4-1.1,0.4-2.2-0.1-3.4c-0.5-1.2,0.3-2.4,1.6-2.4
			C450.6,478.1,451.1,478.5,451.4,479.4z"/>
	</g>
</g>
<g id="F5UNyJ.tif_00000059308556317609234670000001046477487011558565_">
	<g>
		<path class="st14" d="M491.7,160.3c23.9,8.2,38.9,33.5,35.5,59.8c-0.5,3.2-1.2,6.4-2.1,9.7c-1,3.6-4.2,5.5-7.3,4.8
			c-3.4-0.9-5.4-4.1-4.4-7.8c1.7-6.2,2.6-12.6,1.7-19c-2.2-15.8-10.2-27.2-24-34c-1.8-0.9-3.7-1.4-5.6-2.2c-3.2-1.3-4.6-4.6-3.4-7.9
			c1-3.1,4.3-5,7.5-4.1C490.4,159.9,491,160.1,491.7,160.3z"/>
		<path class="st14" d="M483.1,184.1c13.1,4.1,21.9,18.5,20,32.8c-0.2,2-0.7,3.9-1.3,5.9c-1,3.6-4.4,5.4-7.5,4.5
			c-3.4-1-5.3-4.4-4.1-8.1c1.6-5.5,1-10.7-1.9-15.5c-2.2-3.7-5.5-6.3-9.5-7.7c-4.5-1.5-6-6.7-3-10.2
			C477.6,183.7,479.9,183.2,483.1,184.1z"/>
	</g>
</g>
</svg>
