<?xml version="1.0" encoding="utf-8"?>
<!-- Generator: Adobe Illustrator 26.5.0, SVG Export Plug-In . SVG Version: 6.00 Build 0)  -->
<svg version="1.1" id="Ebene_1" xmlns="http://www.w3.org/2000/svg" xmlns:xlink="http://www.w3.org/1999/xlink" x="0px" y="0px"
	 viewBox="0 0 505.8 458.8" style="enable-background:new 0 0 505.8 458.8;" xml:space="preserve">
<style type="text/css">
	.st0{fill:#DADADA;}
	.st1{opacity:0.32;fill:#706F6F;enable-background:new    ;}
	.st2{fill:#FFFFFF;}
	.st3{fill:#3C3C3B;}
	.st4{fill:#1D1D1B;}
	.st5{fill:#103E4E;}
	.st6{fill:#CFCFCE;}
	.st7{fill:#B2B2B2;}
	.st8{fill:#BBBBBB;}
	.st9{fill:#395B6A;}
	.st10{opacity:0.37;fill:#706F6F;enable-background:new    ;}
	.st11{fill:#DDE2E0;}
	.st12{fill:#415D68;}
	.st13{fill:#536D77;}
	.st14{fill:#95C11F;}
</style>
<path class="st0" d="M151.2,316.1l210.4-97.3c5.3-2.4,11.5-0.1,13.9,5.1l56.7,122.6c2.4,5.3,0.1,11.5-5.1,13.9l-210.4,97.3
	c-5.3,2.4-11.5,0.1-13.9-5.1L146,330.1C143.6,324.8,145.9,318.6,151.2,316.1z"/>
<path class="st1" d="M151.2,316.1l210.4-97.3c5.3-2.4,11.5-0.1,13.9,5.1l13.5,29.2c2.4,5.3,0.1,11.5-5.1,13.9l-210.4,97.3
	c-5.3,2.4-11.5,0.1-13.9-5.1L146,330.1C143.6,324.8,145.9,318.6,151.2,316.1z"/>
<path class="st2" d="M91.9,209.7c1.2-1.1,2.3-1.7,2.9-2c0.7-0.4,1.4-0.7,1.9-0.9L247.3,136c15.6-7.3,38.8-18.2,67.5-31.1
	c3.4-1.4,6.8-2.8,10.2-4.3c1.5-0.1,3.8-0.1,5.8,1.2c2.5,1.7,3.3,4.6,3.5,5.7c4.4,17.2,11.5,33.6,17,50.4
	c3.7,11.3,5.6,14.4,10.5,30.1c1.8,5.6,3.1,10.3,3.9,13.4c-0.2,1.8-0.9,4.3-2.7,6.3c-2,2.3-4.6,3-5.1,3.2
	c-5,1.6-60.1,27.6-139.7,65.5c-24.3,11.5-48.7,23.1-73,34.6c-0.3,0.1-3.4,1.4-5.8-0.2c-0.9-0.6-1.3-1.4-1.4-1.6
	c-1.4-2.6-19.2-35-43.7-79.5c-1.9-3.8-3.8-7.6-5.7-11.5c-0.3-1-0.7-3,0.2-4.9C89.4,211.8,90.4,211,91.9,209.7L91.9,209.7z"/>
<g id="Og7eq6.tif">
	<g>
		<path class="st3" d="M313.5,347.8c-3.6,1.6-6.5,2.9-9.3,4.2c-18,8.3-36,16.6-54.1,24.8c-1.8,0.8-5.4,1.6-6,0.8
			c-2-2.8-3.2-6.2-4.3-9.5c-0.2-0.6,1.5-2.1,2.5-2.6c21.1-9.8,42.3-19.5,63.5-29.2c2.6-1.2,4.6-0.7,5.8,2.2c0.7,1.8,1.9,3.5,2.3,5.3
			C314.2,345,313.7,346.6,313.5,347.8L313.5,347.8z"/>
		<path class="st3" d="M187.1,371.3c6.9-3.1,14.5-6.8,22.5-9.8c3.9-1.4,5.2,2.3,6.5,5.2c1.2,2.8,1.3,5.5-1.6,7
			c-7.2,3.5-14.5,6.8-21.9,10c-2.7,1.2-4.9-0.1-6.1-2.9C185.1,377.8,183.1,374.9,187.1,371.3L187.1,371.3z"/>
		<path class="st3" d="M371.4,264c-4.7,2-9.9,4.8-15.4,6.5c-3.9,1.2-5.2-2.4-6.5-5.3c-1.4-3-1.3-5.7,1.8-7.3
			c4.6-2.4,9.4-4.5,14.2-6.5c2.9-1.2,5.1,0.1,6.4,3.1C373.3,257.5,375.1,260.5,371.4,264L371.4,264z"/>
		<path class="st3" d="M179.6,355.4c4.5-2,9.7-4.7,15.2-6.4c4.2-1.3,5.4,2.6,6.7,5.7c1.3,2.9,0.7,5.5-2.1,6.9
			c-4.5,2.3-9.2,4.4-13.9,6.2c-2.9,1.1-5.3,0.2-6.6-2.8C177.6,362,175.6,359,179.6,355.4L179.6,355.4z"/>
		<path class="st3" d="M384.5,283.8c5,7.8,4.2,10.8-1.7,13.1c-3,1.2-6,2.7-9,4c-4.3,1.7-5.9,0.8-8.1-4.2c-1.5-3.5-1.6-6.4,2.5-8.1
			c3.7-1.6,7.3-3.5,11.1-4.8C381,283.1,383.2,283.7,384.5,283.8L384.5,283.8z"/>
		<path class="st3" d="M215.2,323.8c3.2,3.9,3.4,8.6,0.3,11.2c-3.6,3-8.4,3.6-10.6,1.2c-3.2-3.6-3.7-8.6-0.9-10.9
			C208.5,321.6,212.9,321.1,215.2,323.8L215.2,323.8z"/>
		<path class="st3" d="M233.2,345.9c-4.1,3.5-9.1,4.1-11.2,1.4c-3.1-3.9-3.3-8.5-0.5-10.9c4-3.4,9.1-3.8,11.2-1
			C235.5,339.1,235.7,343.8,233.2,345.9L233.2,345.9z"/>
		<path class="st3" d="M318.1,322c-3.2-4.3-3.3-7.9-0.1-10.2c4.8-3.6,8.5-3.9,10.7-1c3.3,4.4,3.2,8.4-0.3,11
			C324,325,320.4,325.1,318.1,322L318.1,322z"/>
		<path class="st3" d="M333.2,324c3.7-3.4,8.5-4,10.8-1.5c3.1,3.4,3.6,8.1,1.1,10.4c-3.9,3.5-8.3,4.3-10.7,1.8
			C331,331.2,330.5,326.4,333.2,324L333.2,324z"/>
		<path class="st3" d="M313.6,290c-3.7,3.2-9.2,4-11.2,1.6c-2.7-3.2-2.8-8.8-0.4-11.1c3.5-3.2,8.6-3.7,10.9-1
			C315.9,283.2,316.3,287.7,313.6,290L313.6,290z"/>
		<path class="st3" d="M314,309c-3.3,3-8.5,3.7-10.6,1.4c-3-3.3-3.6-8.3-1.2-10.6c3.2-3,9.5-4,11.4-1.9
			C316.1,300.6,316.3,306.9,314,309z"/>
		<path class="st3" d="M236.7,348.8c3.5-3.1,7.9-3.7,10.1-1.4c3.1,3.2,3.7,8.3,1.3,10.5c-3.9,3.6-9,4.3-11.2,1.7
			C233.8,355.9,233.7,351.5,236.7,348.8L236.7,348.8z"/>
		<path class="st3" d="M188.9,343.4c-3-3.4-3.6-8.4-1.2-10.6c3.5-3.2,8.6-3.7,10.8-0.9c3,3.7,3.5,8.4,0.9,10.6
			C195.8,345.5,191.1,345.9,188.9,343.4L188.9,343.4z"/>
		<path class="st3" d="M295.9,287.2c3,3.5,3.5,8.4,1.1,10.6c-3.4,3-8.4,3.6-10.6,1.2c-3.2-3.5-4-9-1-10.8
			C290.2,285.3,293.2,284.1,295.9,287.2z"/>
		<path class="st3" d="M328.8,272c3.2,3.6,3.7,8.1,1.2,10.5c-3.4,3.1-8.2,3.8-10.5,1.4c-3.2-3.4-3.8-8.6-1.2-10.8
			C321.9,269.9,326.5,269.5,328.8,272L328.8,272z"/>
		<path class="st3" d="M346.1,275c-3.3,3.1-8.3,3.8-10.5,1.4c-3.2-3.3-3.7-8.5-1.1-10.8c3.6-3.1,8.2-3.6,10.5-1.1
			C348,268,348.6,272.8,346.1,275L346.1,275z"/>
		<path class="st3" d="M362.5,243.5c-2.2,2.3-5.7,2.9-7.4,1.4c-2.4-2.2-2.9-5.9-1.1-7.6c2.4-2.3,5.7-2.8,7.3-1.1
			C363.6,238.4,364.2,241.8,362.5,243.5z"/>
		<path class="st3" d="M220.9,317.5c3.5-3.1,8.4-3.6,10.5-1.2c3.2,3.6,3.6,8.5,0.9,10.9c-3.7,3.1-8.4,3.5-10.5,0.9
			C218.7,324.4,218.3,319.8,220.9,317.5L220.9,317.5z"/>
		<path class="st3" d="M248.4,319.8c-3.6,3.1-8.6,3.8-10.4,1c-2.9-4.4-4.3-8-0.8-10.7c4-3.1,8.1-3.5,10.4-0.7
			C250.7,313.1,251,317.6,248.4,319.8L248.4,319.8z"/>
		<path class="st3" d="M216.6,353.5c-3.3,3-8.4,3.7-10.6,1.4c-3-3.2-3.6-8.3-1.3-10.5c3.4-3.3,8.6-3.9,10.8-1.3
			C218.6,346.6,219.1,351.3,216.6,353.5z"/>
		<path class="st3" d="M330.7,301.1c-3.5,3.1-8.3,3.7-10.6,1.2c-3-3.3-3.5-8.4-1.1-10.6c3.4-3.1,8.3-3.6,10.6-1.1
			C332.8,294.1,333.3,298.8,330.7,301.1L330.7,301.1z"/>
		<path class="st3" d="M182.1,339.1c3.1,3.3,3.8,8.2,1.5,10.5c-3.2,3.2-8.4,3.7-10.8,1.1c-3.1-3.5-3.7-8.2-1.1-10.4
			C175.2,337.1,179.7,336.6,182.1,339.1L182.1,339.1z"/>
		<path class="st3" d="M279.8,294.7c3.2,3.7,3.8,8.5,1,10.4c-4.5,3-8,4.2-10.7,0.8c-3.1-4-3.5-8.1-0.7-10.4
			C273.3,292.4,277.4,292,279.8,294.7z"/>
		<path class="st3" d="M297,306c3.1,3.8,3.5,8.2,0.8,10.4c-3.5,3-8.3,3.5-10.5,1.1c-3.3-3.7-3.6-8.5-0.8-10.7
			C290.4,303.7,294.8,303.4,297,306L297,306z"/>
		<path class="st3" d="M249.3,338.4c-3.6,3.1-8.2,3.6-10.4,1.1c-3-3.5-3.6-8.3-1.1-10.5c3.5-3.2,8.5-3.7,10.8-1
			C251.7,331.8,252,336,249.3,338.4L249.3,338.4z"/>
		<path class="st3" d="M280.8,313.5c3.2,3.9,3.5,8,0.6,10.4c-3.9,3.2-8.1,3.5-10.4,0.7c-3.2-3.9-3.5-8-0.6-10.4
			C274.3,311,278.5,310.8,280.8,313.5z"/>
		<path class="st3" d="M362.9,286.5c-3.6,3.2-8.1,3.7-10.5,1.1c-3.1-3.5-3.6-8.2-1-10.5c3.5-3.1,8.2-3.5,10.5-1
			C365.1,279.6,365.5,284.2,362.9,286.5L362.9,286.5z"/>
		<path class="st3" d="M264.5,320.6c3.2,3.6,3.6,8,1,10.3c-3.7,3.2-8.2,3.7-10.4,1.1c-3.1-3.6-3.5-8.2-0.9-10.5
			C257.7,318.5,262.1,318,264.5,320.6z"/>
		<path class="st3" d="M225.8,373.1c3.6-3.1,8.3-3.5,10.4-0.9c2.9,3.6,3.3,8,0.9,10.2c-3.4,3.1-8.4,3.6-10.5,1.1
			C223.6,379.9,223.2,375.4,225.8,373.1L225.8,373.1z"/>
		<path class="st3" d="M263.5,301.9c3.1,3.4,3.7,8.1,1.3,10.4c-3.3,3.1-8.2,3.8-10.4,1.5c-3.2-3.3-3.8-8.4-1.2-10.7
			C256.7,299.9,261.2,299.4,263.5,301.9L263.5,301.9z"/>
		<path class="st3" d="M268.9,334.2c3.6-3.2,8.1-3.6,10.4-0.9c3.2,3.7,3.5,8.2,0.9,10.4c-3.6,3-8,3.4-10.1,1
			C266.9,341.2,266.4,336.4,268.9,334.2z"/>
		<path class="st3" d="M378.2,268.8c3.2,3.8,3.6,8.1,0.9,10.4c-3.8,3.1-8.1,3.5-10.4,0.9c-3.2-3.7-3.5-8-0.8-10.4
			C371.5,266.5,375.9,266.2,378.2,268.8L378.2,268.8z"/>
		<path class="st3" d="M327.2,330.5c3.2,3.6,3.7,8.2,1.1,10.4c-3.5,3-7.9,3.5-10.1,1.2c-3-3.2-3.7-8.3-1.3-10.5
			C320.3,328.4,324.8,327.9,327.2,330.5L327.2,330.5z"/>
		<path class="st3" d="M377.3,318.2c-3.6,3.2-8.3,3.6-10.4,1c-2.9-3.6-3.4-8-1-10.1c3.4-3.1,8.2-3.7,10.5-1.2
			C379.4,311.2,379.8,315.9,377.3,318.2L377.3,318.2z"/>
		<path class="st3" d="M335.3,284.5c4.2-2.4,7.8-4.2,10.5-1c3.1,3.8,3.7,8,1,10.4c-3.6,3.2-8.2,3.6-10.5,1.1
			C333.1,291.4,332.7,286.7,335.3,284.5L335.3,284.5z"/>
		<path class="st3" d="M220.8,389.8c-3.6,3.1-8.3,3.5-10.4,0.9c-3.1-3.9-3.3-8.2-0.6-10.4c3.8-3,8-3.4,10.1-0.9
			C223.1,383.2,223.5,387.6,220.8,389.8L220.8,389.8z"/>
		<path class="st3" d="M335.1,314.6c-3.1-3.6-3.4-8.2-0.8-10.4c3.6-3,7.9-3.5,10.1-1.1c3,3.4,3.6,8.3,1.2,10.6
			C342.3,316.6,337.3,317.1,335.1,314.6L335.1,314.6z"/>
		<path class="st3" d="M295.3,325.8c3.1,3.5,3.6,8.1,1.1,10.4c-3.6,3.2-8.1,3.5-10.4,0.9c-2.9-3.5-3.4-8-1.1-10.1
			C288.2,323.9,293.1,323.3,295.3,325.8L295.3,325.8z"/>
		<path class="st3" d="M263,340.5c3.1,3.5,3.6,8.3,1.1,10.4c-3.5,2.9-8,3.4-10.2,1.1c-2.9-3-3.6-8.4-1.4-10.5
			C255.9,338.4,260.7,337.9,263,340.5L263,340.5z"/>
		<path class="st3" d="M193.4,387.8c3.4-3.1,8.3-3.6,10.4-1.1c3.1,3.7,3.5,8.1,0.9,10.4c-3.6,3.1-7.8,3.5-10,1.1
			C191.5,394.9,190.9,390,193.4,387.8L193.4,387.8z"/>
		<path class="st3" d="M311.7,318.7c3.1,3.8,3.4,8,0.6,10.3c-3.9,3.2-7.9,3.4-10.2,0.5c-3-3.8-3.5-8.1-0.7-10
			C305.6,316.7,309.2,315.4,311.7,318.7L311.7,318.7z"/>
		<path class="st3" d="M350.3,297c3.5-3.2,8-3.6,10.3-1c3,3.4,3.5,7.9,1.3,10.1c-3.1,3-8.3,3.7-10.5,1.3
			C348.4,304.1,347.9,299.2,350.3,297L350.3,297z"/>
		<path class="st3" d="M219.9,356.6c3.6-3.1,8.3-3.5,10.4-0.9c2.9,3.6,3.4,7.9,1.1,10.1c-3.2,3.1-8.2,3.6-10.4,1.2
			C217.9,363.6,217.4,358.9,219.9,356.6L219.9,356.6z"/>
		<path class="st3" d="M395.9,310.1c-3.8,1.7-6.7,3.3-9.8,4.2c-0.8,0.2-2.6-1.4-3.2-2.6c-0.4-0.9,0.1-3,0.9-3.5
			c2.5-1.5,5.3-2.8,8.1-3.7c0.9-0.3,2.7,0.7,3.3,1.6C395.8,307.3,395.7,308.9,395.9,310.1L395.9,310.1z"/>
		<path class="st3" d="M363.6,324.8c-3.8,1.7-6.8,3.2-10,4.3c-0.7,0.2-2.5-1.4-2.9-2.5c-0.4-1,0.1-3.1,0.9-3.5
			c2.5-1.5,5.3-2.8,8.1-3.7c0.9-0.3,2.6,0.8,3.3,1.7C363.6,322,363.4,323.5,363.6,324.8L363.6,324.8z"/>
	</g>
</g>
<path class="st4" d="M91.8,215.3c1.2-1.1,2.3-1.7,2.9-2.1c0.7-0.4,1.4-0.7,1.9-0.9l151.3-70.6c15.6-7.3,39-18.1,67.8-31
	c3.4-1.4,6.8-2.8,10.2-4.3c1.5-0.1,3.9-0.1,5.9,1.3c2.6,1.8,5,8.3,5.4,9.3c6.2,19.1,8.3,23.7,14.3,40.8c4,11.5,8.4,21.8,13.7,37.8
	c1.9,5.8,3.4,10.5,4.3,13.6c-0.2,1.9-0.8,4.3-2.6,6.4c-2,2.3-4.6,3-5.1,3.2c-5,1.6-60.4,27.5-140.2,65.3
	c-24.4,11.5-48.8,23-73.3,34.5c-0.3,0.1-3.4,1.4-5.9-0.3c-0.9-0.6-1.4-1.4-1.5-1.7c-1.5-2.7-20.3-35.8-46.1-81.3
	c-2-3.9-4-7.8-6-11.7c-0.3-1.1-0.8-3,0.1-5C89.3,217.4,90.2,216.6,91.8,215.3L91.8,215.3z"/>
<path class="st5" d="M109.5,214.9c1.1-0.9,2-1.5,2.5-1.8c0.6-0.4,1.2-0.6,1.6-0.8l132.2-61.7c13.7-6.4,34-15.8,59.3-27.1
	c3-1.2,6-2.5,8.9-3.7c1.3-0.1,3.4-0.1,5.2,1.2c2.3,1.5,4.4,7.3,4.7,8.1c5.4,16.7,7.3,20.7,12.5,35.7c3.5,10.1,7.3,19,11.9,33
	c1.7,5,2.9,9.2,3.7,11.9c-0.2,1.6-0.7,3.8-2.3,5.6c-1.8,2-4,2.6-4.5,2.8c-4.4,1.4-52.8,24.1-122.6,57.1
	c-21.3,10.1-42.7,20.1-64,30.2c-0.3,0.1-3,1.2-5.1-0.3c-0.8-0.5-1.2-1.2-1.3-1.5c-1.3-2.3-17.7-31.3-40.3-71.1
	c-1.7-3.4-3.5-6.8-5.2-10.2c-0.3-0.9-0.7-2.6,0.1-4.4C107.4,216.8,108.2,216.1,109.5,214.9L109.5,214.9z"/>
<path class="st3" d="M180,304.3l1.7,3.5c0.3,0.6,1,0.8,1.6,0.6l152.3-72c0.6-0.3,0.9-1,0.6-1.6l-1.1-2.6c-0.3-0.6-1-0.9-1.6-0.6
	l-152.8,71.1C179.9,303,179.7,303.7,180,304.3L180,304.3z"/>
<path class="st3" d="M162.2,328.6l2,4.1c0.4,0.8,1.3,1.1,2,0.7l183-85c0.8-0.4,1.1-1.2,0.7-2l-1.3-2.9c-0.4-0.8-1.3-1.1-2-0.8
	l-183.7,83.8C162.1,326.9,161.8,327.8,162.2,328.6L162.2,328.6z"/>
<path class="st6" d="M266.7,374.2l58-26.4c1.6-0.7,3.5,0,4.3,1.6l15.1,33.1c0.7,1.6,0,3.5-1.6,4.3l-58,26.4c-1.6,0.7-3.5,0-4.3-1.6
	l-15.1-33.1C264.4,376.9,265.1,374.9,266.7,374.2z"/>
<path class="st7" d="M269.7,375.3l53.8-24.5c1.6-0.7,3.5,0,4.3,1.6l13.2,29.1c0.7,1.6,0,3.5-1.6,4.3l-53.8,24.5
	c-1.6,0.7-3.5,0-4.3-1.6l-13.2-29.1C267.4,377.9,268.1,376,269.7,375.3z"/>
<path class="st8" d="M293.2,422.1c-1.2-2.6,0.7-7.5,3.7-8.8l38.2-17.4c3-1.4,7.9,0.1,9.1,2.7"/>
<polygon class="st9" points="237.8,154.7 252.7,147.5 228.8,272.4 213.1,279.7 "/>
<path class="st9" d="M314.4,231.8l-72.7,34.5c7.2-41.1,15.1-82.9,22.3-124c16.7-7.8,31.7-15.8,47.8-22.7c1.4-0.3,3.9-0.7,6.3,0.6
	c2.6,1.4,3.7,4.1,4.4,5.8c2.2,5.3,4.2,12.9,6.9,19.5L314.4,231.8L314.4,231.8z"/>
<path class="st10" d="M279.7,0.2l93.6,21.5c4.8,1.1,7.8,5.9,6.7,10.7l-11.1,48.4c-1.1,4.8-5.9,7.8-10.7,6.7L264.5,66
	c-4.8-1.1-7.8-5.9-6.7-10.7L269,6.9C270.1,2.1,274.9-0.9,279.7,0.2z"/>
<path class="st11" d="M278.6,4.7l93.6,21.5c4.8,1.1,7.8,5.9,6.7,10.7l-11.1,48.4c-1.1,4.8-5.9,7.8-10.7,6.7l-93.6-21.5
	c-4.8-1.1-7.8-5.9-6.7-10.7l11.1-48.4C269,6.6,273.8,3.6,278.6,4.7z"/>
<path class="st12" d="M281.3,10.5l82.8,19.1c1.4,0.3,2.2,1.7,1.9,3l-11.8,50.9c-0.3,1.4-1.7,2.2-3,1.9l-82.8-19.1
	c-1.4-0.3-2.2-1.7-1.9-3l11.8-50.9C278.6,11,280,10.1,281.3,10.5z"/>
<path class="st12" d="M361.6,61.2l0.7-3.1c0.4-1.9,2.3-3.1,4.2-2.6l3.1,0.7c1.9,0.4,3.1,2.3,2.6,4.2l-0.7,3.1
	c-0.4,1.9-2.3,3.1-4.2,2.6l-3.1-0.7C362.3,65,361.2,63.1,361.6,61.2z"/>
<polygon class="st13" points="273.6,33.5 275.9,23 324.7,79.4 309.2,75.7 "/>
<path class="st13" d="M277.3,17.8l1.1-5.6c0.3-1.4,1.6-2.2,3-1.9l46.5,11.5c0.5,0.1,0.9,0.4,1.2,0.7l30.5,31.8c0.6,0.6,1.2,1,1,1.8
	l-6.5,28.1c-0.3,1.3-2.3,1.4-3.6,1.1L331.7,81c-0.5-0.1-1-0.4-1.3-0.8l-52.5-60.3C277.3,19.4,277.1,18.6,277.3,17.8L277.3,17.8z"/>
<path class="st14" d="M219.3,197.4c1.2-0.5,2.2-1,3.3-1.5c0.5,1.1,0.9,2.1,1.5,3.2c1-0.4,1.9-0.7,2.9-1.1c-0.6-1.2-1-2.3-1.6-3.4
	c1.1-0.5,2.2-1,3.4-1.6c0.4,1,0.9,1.9,1.3,2.9c0.3,0.8,0.7,1.1,1.7,1c5.3-0.3,9.6,2.2,11.9,7c-1.4,0.6-2.7,1.2-4.2,1.9
	c-1.4-2.5-3.4-4.1-6.6-4.2c0.2,0.4,0.3,0.8,0.5,1.1c1.4,3.2,2.9,6.4,4.3,9.6c0.4,0.8,0.7,1,1.6,1c2.1-0.1,4.2-0.2,6.2,0.3
	c6.9,1.7,9.2,10.2,5.8,15.7c-0.8,1.3-1.9,2.5-3,3.6c-0.7,0.6-0.8,1.1-0.3,1.9c0.5,0.9,0.9,1.8,1.3,2.8c-1.2,0.5-2.2,1-3.4,1.5
	c-0.5-1.1-1-2.2-1.5-3.4l-2.7,1.2c0.5,1.1,1,2.2,1.5,3.4c-1.1,0.5-2.2,1-3.3,1.5c-0.5-1-0.9-2-1.4-3c-0.3-0.6-0.6-0.9-1.3-0.8
	c-5.8,0.8-10.6-1.1-14-6c-0.3-0.5-0.6-1-1-1.6c1.4-0.8,2.7-1.5,4.1-2.2c2.1,3.8,5.2,5.5,9.6,5.2c-0.1-0.4-0.2-0.7-0.3-0.9
	c-1.8-3.9-3.6-7.9-5.4-11.8c-0.3-0.7-0.7-0.9-1.4-0.8c-1,0.1-1.9,0.2-2.9,0.2c-3.7,0.1-6.6-1.3-8.5-4.5c-2.1-3.5-2.3-7.1-0.1-10.6
	c0.8-1.4,2-2.5,3.1-3.6c0.6-0.6,0.7-1,0.3-1.7C220.1,199.2,219.7,198.3,219.3,197.4L219.3,197.4z M245.3,229.2
	c2.8-2.2,3.5-5.7,1.8-8.7c-1.1-1.9-4.4-3-6.8-2.2C242,221.9,243.6,225.5,245.3,229.2L245.3,229.2z M242.2,231.5
	c-1.9-4.1-3.7-8.2-5.6-12.2c-0.1-0.2-0.4-0.3-0.6-0.3c-0.8,0.1-1.6,0.3-2.5,0.5c2,4.4,4,8.8,6,13.3
	C240.4,232.3,241.2,231.9,242.2,231.5L242.2,231.5z M223,205.6c-2.9,2.4-3.4,5.1-1.8,7.8c1.2,2,3.9,2.9,6.2,1.9
	C226,212.1,224.5,208.9,223,205.6L223,205.6z M228.8,202.3c-0.9,0.4-1.8,0.8-2.6,1.2c1.7,3.8,3.4,7.5,5.1,11.3c1-0.2,1.9-0.3,3-0.5
	C232.5,210.3,230.7,206.4,228.8,202.3L228.8,202.3z"/>
<path class="st14" d="M312.7,47l0.2-0.8l0.8,0.2c0.1-0.2,0.1-0.4,0.2-0.7l-0.8-0.2l0.2-0.8c0.2,0,0.5,0.1,0.7,0.2
	c0.2,0.1,0.3,0,0.4-0.2c0.7-1,1.7-1.4,2.9-1.2l-0.2,1c-0.6-0.1-1.2,0-1.6,0.6c0.1,0,0.2,0.1,0.3,0.1c0.8,0.2,1.5,0.3,2.3,0.5
	c0.2,0,0.3,0,0.4-0.2c0.3-0.4,0.5-0.8,0.9-1c1.2-1,3.1-0.2,3.6,1.1c0.1,0.3,0.2,0.7,0.2,1c0,0.2,0.1,0.3,0.3,0.3
	c0.2,0,0.4,0.1,0.7,0.2l-0.2,0.8l-0.8-0.2l-0.1,0.7l0.8,0.2l-0.2,0.8c-0.2-0.1-0.5-0.1-0.7-0.2c-0.1,0-0.2,0-0.3,0.1
	c-0.7,1.1-1.6,1.7-3,1.7c-0.1,0-0.3,0-0.4,0c0.1-0.3,0.1-0.7,0.2-1c1,0.2,1.7-0.2,2.2-1c-0.1,0-0.1-0.1-0.2-0.1
	c-0.9-0.2-1.9-0.4-2.8-0.7c-0.2,0-0.2,0-0.3,0.2c-0.1,0.2-0.2,0.4-0.4,0.5c-0.5,0.7-1.1,1-2,0.9s-1.6-0.5-1.9-1.4
	c-0.1-0.3-0.2-0.7-0.2-1c0-0.2-0.1-0.3-0.2-0.3C313.1,47.1,312.9,47,312.7,47L312.7,47z M321.9,46.7c0-0.8-0.5-1.4-1.3-1.5
	c-0.5-0.1-1.1,0.4-1.3,0.9C320.1,46.3,321,46.5,321.9,46.7z M321.9,47.6c-1-0.2-2-0.5-2.9-0.7c0,0-0.1,0-0.1,0.1
	c-0.1,0.2-0.2,0.3-0.2,0.5l3.2,0.7V47.6L321.9,47.6z M314.7,47.4c0,0.8,0.4,1.3,1.1,1.4c0.5,0.1,1-0.3,1.2-0.8
	C316.2,47.8,315.4,47.6,314.7,47.4z M314.9,46l-0.1,0.6c0.9,0.2,1.8,0.4,2.7,0.6c0.1-0.2,0.2-0.4,0.3-0.6
	C316.8,46.4,315.8,46.2,314.9,46L314.9,46z"/>
<g id="X3XJbC.tif">
	<path class="st14" d="M333.9,40.9c-0.2-0.1-0.4-0.2-0.6-0.3c-1.5-0.5-2.9-1.1-4.4-1.6c-0.5-0.2-0.8,0-1,0.5
		c-0.6,1.5-1.1,3.1-1.7,4.6c-0.1,0.4-0.1,0.7,0.2,0.8c0.2,0.1,0.4,0.1,0.7,0c0.5-0.2,0.9-0.4,1.4-0.6c0.1,0,0.1,0,0.2-0.1
		c0.1,0.3,0.3,0.6,0.4,1c0.4,1,0.6,1.9,0.6,3c0.1,3.1-1.1,5.7-3.6,7.6c-0.7,0.6-1.5,1-2.3,1.3c-0.2,0.1-0.4,0.2-0.6,0.3
		c-0.3,0.2-0.4,0.5-0.2,0.8c0.3,0.7,0.7,1.5,1,2.2c0.1,0.3,0.4,0.4,0.7,0.4c0.6-0.3,1.3-0.6,1.9-0.9l0.1-0.1c0.9-0.5,1.7-1,2.4-1.7
		c1.9-1.7,3.1-3.7,3.8-6.1c0.5-1.7,0.6-3.4,0.4-5.2c-0.2-1.3-0.6-2.5-1.1-3.7c-0.1-0.1-0.1-0.3-0.2-0.4c0.5-0.2,1-0.5,1.5-0.7
		c0.4-0.2,0.5-0.4,0.5-0.8C334,41,333.9,41,333.9,40.9L333.9,40.9z"/>
</g>
<g id="X3XJbC.tif-2">
	<path class="st14" d="M304.2,55.8c0.2,0.1,0.4,0.2,0.7,0.3c1.5,0.4,3.1,0.9,4.6,1.3c0.5,0.2,0.8,0,1-0.5c0.5-1.6,0.9-3.3,1.4-4.9
		c0.1-0.4,0-0.7-0.3-0.8c-0.2-0.1-0.5-0.1-0.7,0c-0.5,0.2-0.9,0.5-1.4,0.8c-0.1,0-0.1,0.1-0.2,0.1c-0.2-0.3-0.4-0.6-0.5-1
		c-0.5-1-0.8-2-0.9-3c-0.3-3.2,0.7-5.9,3-8.1c0.7-0.6,1.5-1.1,2.3-1.5c0.2-0.1,0.4-0.2,0.6-0.4c0.3-0.2,0.3-0.5,0.2-0.8
		c-0.4-0.7-0.8-1.5-1.2-2.2c-0.2-0.3-0.4-0.3-0.7-0.3c-0.6,0.3-1.3,0.7-1.9,1.1l-0.1,0.1c-0.9,0.5-1.6,1.2-2.3,1.9
		c-1.8,1.9-2.9,4.1-3.4,6.6c-0.4,1.8-0.3,3.6,0.1,5.4c0.3,1.3,0.8,2.5,1.4,3.7c0.1,0.1,0.1,0.3,0.2,0.4c-0.5,0.3-1,0.6-1.5,0.8
		c-0.3,0.2-0.5,0.4-0.5,0.8C304.2,55.7,304.2,55.8,304.2,55.8L304.2,55.8z"/>
</g>
<path class="st14" d="M176.2,286.3c-0.3-0.4-1.2-1.4-2.7-1.6c-1.2-0.1-2.2,0.3-2.5,0.5c0-0.2,0-0.4,0-0.6c-0.2-1.5-1.6-2.6-2.8-3.1
	c-2.2-0.8-4.2,0.2-4.3,0.3c-0.1,0-2.3,1.3-2.5,3.6c-0.1,0.5,0,1,0.1,1.3c-0.4,0-1,0-1.7,0.3c-0.4,0.1-1.2,0.5-1.9,1.4
	c-0.3,0.3-1,1.4-0.9,2.8c0.1,0.7,0.4,1.3,0.5,1.6c-0.3,0.1-0.6,0.3-1,0.6c-1,0.9-1.1,2.1-1.1,2.4s0,1.4,0.8,2.3
	c0.1,0.1,1.1,1.1,2.6,1c0.5,0,0.9-0.2,1.2-0.3l6.7-3.1l-1.5-3.2l-1.5,0.6l0.8-5l4.4,2.7l-1.4,0.6l1.5,3.2h0.1
	c1.9-0.9,3.8-1.8,5.8-2.6c0.3-0.2,0.9-0.6,1.4-1.3c0.2-0.3,0.6-0.9,0.7-1.8C177.1,287.6,176.4,286.6,176.2,286.3L176.2,286.3z"/>
</svg>
