<?xml version="1.0" encoding="utf-8"?>
<!-- Generator: Adobe Illustrator 26.5.0, SVG Export Plug-In . SVG Version: 6.00 Build 0)  -->
<svg version="1.1" id="Ebene_1" xmlns="http://www.w3.org/2000/svg" xmlns:xlink="http://www.w3.org/1999/xlink" x="0px" y="0px"
	 viewBox="0 0 649.1 598.2" style="enable-background:new 0 0 649.1 598.2;" xml:space="preserve">
<style type="text/css">
	.st0{fill:#DADADA;}
	.st1{fill:#FFFFFF;}
	.st2{fill:#3C3C3B;}
	.st3{fill:#103E4E;}
	.st4{fill:#CFCFCE;}
	.st5{fill:#B2B2B2;}
	.st6{fill:#BBBBBB;}
	.st7{fill:#395B6A;}
	.st8{opacity:0.37;fill:#706F6F;}
	.st9{fill:#DDE2E0;}
	.st10{fill:#415D68;}
	.st11{fill:#536D77;}
	.st12{opacity:0.49;fill:#F0889F;}
	.st13{opacity:0.49;fill:#FFFFFF;}
	.st14{opacity:0.48;fill:#F0889F;}
	.st15{opacity:0.48;fill:#FFFFFF;}
	.st16{fill:#F0889F;}
	.st17{opacity:0.4;}
</style>
<path class="st0" d="M387.5,523.6l-221.9-67c-5.5-1.7-8.7-7.5-7-13.1l39.1-129.3c1.7-5.5,7.5-8.7,13.1-7l221.9,67
	c5.5,1.7,8.7,7.5,7,13.1l-39.1,129.3C398.9,522.1,393.1,525.3,387.5,523.6z"/>
<path class="st1" d="M237.1,188.3c1.6,0,2.9,0.3,3.5,0.4c0.8,0.2,1.5,0.4,2,0.6l159.7,47.2c16.5,4.9,41.1,12.2,71.2,21.6
	c3.5,1.2,7,2.4,10.4,3.6c1.2,0.9,2.9,2.4,3.5,4.8c0.8,3-0.6,5.6-1.1,6.6c-8.2,15.8-13.7,32.7-20.8,49c-4.7,10.9-5.4,14.5-12.1,29.4
	c-2.4,5.4-4.5,9.7-5.9,12.6c-1.4,1.2-3.5,2.6-6.2,2.9c-3,0.3-5.4-0.8-5.9-1c-4.8-2.1-63.3-19.3-148-43.8
	c-25.9-7.5-51.7-15.1-77.6-22.6c-0.3-0.1-3.5-1.2-4.1-4c-0.2-1-0.1-1.9,0-2.2c0.7-2.9,8.9-39,20.1-88.5c1.1-4.1,2.3-8.2,3.4-12.3
	c0.5-1,1.4-2.7,3.4-3.6C233.8,188.2,235,188.2,237.1,188.3z"/>
<g id="Og7eq6.tif_00000035490980200920736200000006428559501781779092_">
	<g>
		<path class="st2" d="M311.1,438.7c-3.8-1.2-6.7-2.1-9.7-3.1c-19-5.8-38-11.5-57-17.4c-1.9-0.6-5.1-2.4-5-3.4
			c0.4-3.4,1.8-6.8,3.2-10c0.2-0.5,2.5-0.6,3.6-0.3c22.3,6.7,44.6,13.5,66.8,20.3c2.7,0.8,3.9,2.5,2.9,5.5c-0.7,1.8-0.9,3.8-1.8,5.5
			C313.4,437.1,312,437.9,311.1,438.7z"/>
		<path class="st2" d="M200.9,372.3c7.2,2.3,15.4,4.6,23.3,7.6c3.8,1.5,2.4,5.2,1.4,8.2c-0.9,2.9-2.7,5-5.9,4.1
			c-7.7-2.1-15.4-4.6-23-7.1c-2.8-0.9-3.6-3.3-2.7-6.2C195,375.8,195.5,372.3,200.9,372.3z"/>
		<path class="st2" d="M410,414.5c-4.9-1.6-10.6-3-15.8-5.3c-3.7-1.6-2.3-5.2-1.4-8.3c1-3.1,2.8-5.1,6.2-4.3c5,1.3,10,2.9,14.9,4.6
			c3,1.1,3.8,3.5,2.8,6.6C415.7,411,415,414.3,410,414.5z"/>
		<path class="st2" d="M205.9,355.4c4.7,1.5,10.4,2.9,15.6,5.3c4,1.8,2.3,5.6,1.3,8.7c-1,3-3.1,4.5-6.1,3.7
			c-4.9-1.3-9.8-2.8-14.5-4.5c-2.9-1-4.1-3.4-3.1-6.5C200,359.1,200.5,355.5,205.9,355.4z"/>
		<path class="st2" d="M406.6,438c-1.4,9.2-4,10.9-10,8.7c-3.1-1.1-6.3-1.9-9.4-3c-4.3-1.5-4.9-3.4-3.2-8.5c1.2-3.6,3-5.9,7.3-4.4
			c3.8,1.3,7.8,2.2,11.5,3.8C404.5,435.2,405.7,437.1,406.6,438z"/>
		<path class="st2" d="M253.5,355.5c-0.1,5-3.2,8.7-7.2,8.6c-4.7-0.1-8.7-2.9-8.7-6.1c0-4.8,3-8.9,6.5-8.8
			C249.9,349.4,253.6,351.9,253.5,355.5z"/>
		<path class="st2" d="M252.2,383.9c-5.4-0.2-9.5-3-9.3-6.4c0.3-5,3.2-8.6,6.9-8.5c5.2,0.1,9.3,3.2,9.1,6.7
			C258.5,380.4,255.6,384,252.2,383.9z"/>
		<path class="st2" d="M331.6,422.5c0.4-5.3,2.8-8.1,6.7-7.7c6,0.5,9,2.7,8.7,6.3c-0.4,5.5-3.2,8.4-7.5,8
			C334,428.6,331.3,426.3,331.6,422.5z"/>
		<path class="st2" d="M341.6,433.9c5-0.1,9,2.6,9,6c0.1,4.6-2.7,8.5-6.1,8.5c-5.2,0.1-9.1-2.3-9.2-5.8
			C335.1,437.9,337.9,434,341.6,433.9z"/>
		<path class="st2" d="M349.5,395.6c-5-0.1-9.6-3.1-9.5-6.3c0.2-4.2,3.7-8.4,7.1-8.5c4.8-0.1,8.9,3,8.8,6.5
			C355.8,392,353,395.6,349.5,395.6z"/>
		<path class="st2" d="M337.1,410.1c-4.5,0.1-8.8-2.9-8.8-6c-0.1-4.5,2.8-8.6,6.1-8.7c4.3-0.1,9.8,3.3,9.8,6.2
			C344.3,405.2,340.3,410,337.1,410.1z"/>
		<path class="st2" d="M252.9,388.4c4.7,0,8.4,2.4,8.5,5.7c0.2,4.4-2.8,8.7-6,8.7c-5.3,0.1-9.6-2.7-9.5-6.2
			C246,391.8,248.9,388.5,252.9,388.4z"/>
		<path class="st2" d="M220.8,352.6c0-4.6,2.9-8.7,6.1-8.7c4.8-0.1,8.9,2.9,8.7,6.5c-0.2,4.8-3,8.6-6.3,8.5
			C224.6,358.8,220.8,356,220.8,352.6z"/>
		<path class="st2" d="M338.1,381.7c-0.1,4.6-3,8.6-6.2,8.7c-4.5,0-8.6-2.9-8.7-6.2c-0.1-4.8,3-9.4,6.4-8.8
			C335.1,376.5,338.2,377.6,338.1,381.7z"/>
		<path class="st2" d="M372.8,392.2c0,4.8-2.6,8.5-6.1,8.6c-4.6,0.1-8.7-2.6-8.8-5.9c-0.2-4.7,2.9-8.9,6.3-8.9
			C369,386.1,372.8,388.8,372.8,392.2z"/>
		<path class="st2" d="M383.7,406c-4.5,0.1-8.7-2.7-8.8-5.9c-0.2-4.6,2.9-8.8,6.3-8.8c4.7,0,8.5,2.7,8.6,6.1
			C389.8,401.9,387.1,405.9,383.7,406z"/>
		<path class="st2" d="M416.9,393.3c-3.2,0.2-6.2-1.6-6.4-3.9c-0.3-3.3,1.7-6.3,4.2-6.4c3.4-0.1,6.1,1.6,6.2,4
			C421.1,390.2,419.3,393.1,416.9,393.3z"/>
		<path class="st2" d="M261.9,354.5c4.7,0,8.6,2.8,8.6,6.1c0,4.8-3,8.8-6.6,8.7c-4.9-0.1-8.6-2.9-8.4-6.3
			C255.7,358.2,258.5,354.5,261.9,354.5z"/>
		<path class="st2" d="M281,374.5c-4.8-0.1-8.9-2.9-8.4-6.2c0.8-5.2,2.1-8.8,6.5-8.6c5.1,0.3,8.4,2.8,8.2,6.4
			C287.1,371,284.4,374.6,281,374.5z"/>
		<path class="st2" d="M234.7,378.6c-4.4,0.1-8.7-2.9-8.8-6c-0.1-4.3,2.8-8.6,6-8.8c4.7-0.2,9,2.8,9,6.2
			C240.9,374.7,238.1,378.6,234.7,378.6z"/>
		<path class="st2" d="M354.9,415.2c-4.7,0-8.7-2.8-8.7-6.1c0-4.5,2.9-8.6,6.2-8.6c4.6,0,8.6,2.8,8.7,6.2
			C361.1,411.3,358.3,415.2,354.9,415.2z"/>
		<path class="st2" d="M218.6,344.9c0.1,4.6-2.6,8.7-5.8,8.8c-4.5,0.2-8.8-2.8-8.8-6.3c0-4.7,2.7-8.5,6-8.5
			C214.7,338.8,218.5,341.5,218.6,344.9z"/>
		<path class="st2" d="M321,376.6c-0.1,4.9-2.8,8.9-6.1,8.4c-5.4-0.7-8.8-2.2-8.5-6.5c0.3-5.1,2.8-8.4,6.4-8.2
			C317.8,370.5,321.1,373.1,321,376.6z"/>
		<path class="st2" d="M326.4,396.5c-0.2,4.9-2.8,8.4-6.3,8.3c-4.7-0.1-8.6-2.9-8.5-6.2c0-4.9,3-8.8,6.5-8.5
			C323,390.4,326.5,393.1,326.4,396.5z"/>
		<path class="st2" d="M269.2,389c-4.8-0.1-8.5-2.7-8.5-6.1c0-4.6,2.8-8.5,6.1-8.6c4.8-0.1,8.8,2.9,8.7,6.4
			C275.4,385.7,272.8,389,269.2,389z"/>
		<path class="st2" d="M309.4,391.4c-0.1,5-2.7,8.3-6.4,8.2c-5-0.2-8.4-2.8-8.2-6.4c0.2-5,2.7-8.3,6.4-8.2
			C306.1,385.2,309.5,387.7,309.4,391.4z"/>
		<path class="st2" d="M388.7,425.7c-4.9,0-8.5-2.7-8.5-6.1c0-4.7,2.8-8.5,6.2-8.5c4.7,0,8.5,2.8,8.5,6.2
			C394.9,422,392.2,425.7,388.7,425.7z"/>
		<path class="st2" d="M292.4,385.8c0,4.8-2.6,8.4-6.1,8.4c-4.9,0-8.6-2.7-8.6-6.1c0.1-4.7,2.8-8.5,6.2-8.4
			C288.8,379.7,292.4,382.3,292.4,385.8z"/>
		<path class="st2" d="M228.7,399.4c4.8,0.1,8.5,2.9,8.4,6.3c-0.2,4.6-2.9,8.2-6.1,8.2c-4.6,0-8.6-2.9-8.6-6.1
			C222.5,403,225.2,399.3,228.7,399.4z"/>
		<path class="st2" d="M304.1,371.2c0.1,4.6-2.6,8.5-6,8.6c-4.5,0.1-8.6-2.6-8.8-5.8c-0.2-4.6,2.7-8.8,6.2-8.8
			C300.4,365.1,304.1,367.7,304.1,371.2z"/>
		<path class="st2" d="M286.7,398.9c4.8,0,8.5,2.7,8.4,6.2c-0.1,4.9-2.8,8.5-6.2,8.3c-4.6-0.2-8.2-2.8-8.3-6
			C280.5,402.9,283.4,398.8,286.7,398.9z"/>
		<path class="st2" d="M411.8,422.6c-0.1,5-2.7,8.4-6.3,8.3c-4.9-0.2-8.4-2.8-8.4-6.3c0.1-4.8,2.7-8.3,6.3-8.3
			C408.3,416.5,411.9,419.1,411.8,422.6z"/>
		<path class="st2" d="M332.7,434.8c0,4.8-2.7,8.6-6.1,8.5c-4.6-0.1-8.2-2.7-8.3-5.8c-0.1-4.4,2.7-8.7,6-8.7
			C329,428.7,332.7,431.3,332.7,434.8z"/>
		<path class="st2" d="M378.4,458.9c-4.8,0-8.6-2.8-8.4-6.2c0.2-4.7,2.8-8.2,6-8.2c4.6-0.1,8.6,2.7,8.7,6
			C384.6,455.2,381.8,458.9,378.4,458.9z"/>
		<path class="st2" d="M369.4,405.8c4.7,1,8.6,2.1,8.5,6.2c-0.2,4.9-2.6,8.4-6.2,8.4c-4.8,0-8.5-2.7-8.5-6.1
			C363.2,409.6,365.9,405.8,369.4,405.8z"/>
		<path class="st2" d="M213.8,408.5c-4.8-0.1-8.5-2.9-8.3-6.3c0.3-5,3-8.4,6.5-8.2c4.9,0.3,8.2,2.8,8.1,6.1
			C219.9,405.1,217.3,408.6,213.8,408.5z"/>
		<path class="st2" d="M349.3,428.2c0.1-4.8,2.9-8.4,6.3-8.3c4.7,0.1,8.3,2.6,8.3,5.9c0,4.5-2.8,8.6-6.1,8.7
			C353.3,434.5,349.2,431.5,349.3,428.2z"/>
		<path class="st2" d="M312,410.1c0.1,4.7-2.7,8.5-6.1,8.5c-4.8,0-8.4-2.7-8.3-6.2c0.1-4.6,2.7-8.2,5.9-8.3
			C308,404,312,406.8,312,410.1z"/>
		<path class="st2" d="M278.1,399.7c0,4.7-2.8,8.7-6.1,8.6c-4.5-0.1-8.2-2.8-8.4-5.9c-0.2-4.2,2.9-8.7,6-8.8
			C274.2,393.4,278.1,396.3,278.1,399.7z"/>
		<path class="st2" d="M194.6,388.8c4.6,0,8.6,2.9,8.5,6.1c-0.1,4.8-2.8,8.4-6.3,8.4c-4.7-0.1-8.2-2.5-8.2-5.8
			C188.5,392.9,191.3,388.8,194.6,388.8z"/>
		<path class="st2" d="M329,415.7c-0.2,4.9-2.8,8.3-6.4,8.1c-5-0.2-8.2-2.7-8-6.4c0.3-4.8,2.8-8.4,6.1-7.9
			C325.8,410.2,329.3,411.6,329,415.7z"/>
		<path class="st2" d="M372.3,425.2c4.8,0,8.4,2.6,8.3,6.1c0,4.5-2.6,8.2-5.8,8.4c-4.3,0.2-8.6-2.8-8.7-6
			C366.1,429.2,368.9,425.2,372.3,425.2z"/>
		<path class="st2" d="M235.2,383.1c4.8,0,8.5,2.8,8.4,6.2c-0.2,4.7-2.7,8.2-5.9,8.3c-4.5,0.1-8.6-2.8-8.6-6.1
			C229,387,231.8,383.1,235.2,383.1z"/>
		<path class="st2" d="M397.6,465.2c-3.9-1.2-7.2-2-10.1-3.4c-0.7-0.3-1-2.8-0.7-4c0.3-0.9,2-2.2,2.9-2c2.9,0.5,5.8,1.4,8.5,2.6
			c0.8,0.4,1.5,2.3,1.4,3.4C399.5,463.1,398.3,464.2,397.6,465.2z"/>
		<path class="st2" d="M363.8,454.8c-3.9-1.3-7.3-2.1-10.4-3.5c-0.6-0.3-0.9-2.7-0.5-3.8c0.4-1,2.1-2.2,3-2.1
			c2.9,0.5,5.8,1.4,8.5,2.6c0.8,0.4,1.4,2.3,1.3,3.4C365.6,452.7,364.5,453.7,363.8,454.8z"/>
	</g>
</g>
<path d="M233.3,192.3c1.6,0,2.9,0.2,3.5,0.4c0.8,0.2,1.5,0.4,2,0.6l160,47.7c16.6,4.9,41.2,12.3,71.3,21.9c3.5,1.2,7,2.4,10.5,3.6
	c1.2,0.9,2.9,2.5,3.6,4.9c0.8,3.1-1.8,9.5-2.2,10.5c-8,18.4-9.5,23.2-16.4,40c-4.6,11.3-8.2,21.8-14.9,37.3
	c-2.4,5.6-4.5,10.1-5.8,13c-1.4,1.2-3.5,2.7-6.2,3c-3,0.4-5.4-0.8-5.9-1c-4.8-2.1-63.4-19.5-148.2-44.3
	c-25.9-7.6-51.8-15.2-77.7-22.9c-0.3-0.1-3.5-1.2-4.2-4.1c-0.3-1.1-0.1-2,0-2.3c0.7-3,8.6-40.2,19.6-91.4c1.1-4.2,2.2-8.5,3.3-12.7
	c0.4-1,1.4-2.8,3.4-3.7C230.1,192.3,231.3,192.3,233.3,192.3z"/>
<path class="st3" d="M246.8,203.9c1.4,0,2.5,0.2,3.1,0.3c0.7,0.2,1.3,0.3,1.7,0.5l139.8,41.7c14.5,4.3,36,10.8,62.3,19.1
	c3,1.1,6.1,2.1,9.1,3.2c1,0.8,2.6,2.2,3.1,4.3c0.7,2.7-1.5,8.3-1.9,9.2c-7,16.1-8.3,20.3-14.3,35c-4.1,9.9-7.2,19.1-13,32.6
	c-2.1,4.9-3.9,8.8-5.1,11.4c-1.2,1.1-3,2.4-5.4,2.7c-2.6,0.3-4.7-0.7-5.2-0.9c-4.2-1.9-55.4-17.1-129.5-38.7
	c-22.6-6.7-45.3-13.3-67.9-20c-0.3-0.1-3-1.1-3.6-3.6c-0.2-0.9-0.1-1.7,0-2c0.6-2.6,7.5-35.2,17.1-79.9c1-3.7,1.9-7.4,2.9-11.1
	c0.4-0.9,1.2-2.4,2.9-3.2C244,203.9,245,203.9,246.8,203.9z"/>
<path class="st2" d="M240.1,317.5l-1,3.7c-0.2,0.6,0.2,1.3,0.8,1.5L401.5,370c0.6,0.2,1.3-0.2,1.5-0.8l0.8-2.7
	c0.2-0.6-0.2-1.3-0.8-1.5l-161.5-48.4C240.9,316.5,240.3,316.9,240.1,317.5z"/>
<path class="st2" d="M210.7,323.8l-1.2,4.4c-0.2,0.8,0.2,1.7,1,1.9l193.2,58.1c0.8,0.2,1.6-0.2,1.9-1l1-3.1c0.3-0.8-0.2-1.7-1-1.9
	l-193-59.3C211.8,322.5,210.9,323,210.7,323.8z"/>
<path class="st4" d="M306.8,487.1l-60.9-18.8c-1.7-0.5-2.7-2.3-2.1-4.1l10.7-34.8c0.5-1.7,2.3-2.7,4.1-2.1l60.9,18.8
	c1.7,0.5,2.7,2.3,2.1,4.1L310.8,485C310.3,486.7,308.5,487.6,306.8,487.1z"/>
<path class="st5" d="M305.2,484.3l-56.5-17.4c-1.7-0.5-2.7-2.3-2.1-4.1l9.4-30.5c0.5-1.7,2.3-2.7,4.1-2.1l56.5,17.4
	c1.7,0.5,2.7,2.3,2.1,4.1l-9.4,30.5C308.8,483.9,307,484.8,305.2,484.3z"/>
<path class="st6" d="M246.4,480.8c0.8-2.7,5.5-5.1,8.6-4.2l40.1,12.4c3.1,1,5.8,5.4,5,8.1"/>
<polygon class="st7" points="382.7,244 398.6,248.6 297.8,326 281.2,321.2 "/>
<path class="st7" d="M388.8,352.6L311.5,330c32.6-25.9,66.4-51.9,99-77.9c17.7,5.3,34.2,9.3,50.8,14.8c1.2,0.7,3.4,2,4.3,4.6
	c1,2.8,0.1,5.5-0.6,7.3c-1.9,5.4-5.4,12.5-7.8,19.2L388.8,352.6z"/>
<path class="st8" d="M159.8,527l-55.7-78.3c-2.9-4-1.9-9.6,2.1-12.4l40.5-28.8c4-2.9,9.6-1.9,12.4,2.1l55.7,78.3
	c2.9,4,1.9,9.6-2.1,12.4l-40.5,28.8C168.3,532,162.7,531.1,159.8,527z"/>
<path class="st9" d="M156.1,529.7l-55.7-78.3c-2.9-4-1.9-9.6,2.1-12.4l40.5-28.8c4-2.9,9.6-1.9,12.4,2.1l55.7,78.3
	c2.9,4,1.9,9.6-2.1,12.4l-40.5,28.8C164.5,534.7,158.9,533.7,156.1,529.7z"/>
<path class="st10" d="M156,520.9l-49.2-69.3c-0.8-1.1-0.5-2.7,0.6-3.5l42.6-30.3c1.1-0.8,2.7-0.5,3.5,0.6l49.2,69.3
	c0.8,1.1,0.5,2.7-0.6,3.5l-42.6,30.3C158.4,522.3,156.8,522,156,520.9z"/>
<path class="st10" d="M188.3,516.1l-2.6,1.8c-1.6,1.1-3.8,0.8-4.9-0.8l-1.8-2.6c-1.1-1.6-0.8-3.8,0.8-4.9l2.6-1.8
	c1.6-1.1,3.8-0.8,4.9,0.8l1.8,2.6C190.3,512.8,189.9,515,188.3,516.1z"/>
<polygon class="st11" points="132.5,430.5 141.2,424.2 140.2,498.7 131.1,485.6 "/>
<path class="st11" d="M145.6,421.2l4.5-3.4c1.1-0.8,2.7-0.6,3.5,0.6l27.1,39.5c0.3,0.4,0.4,0.8,0.4,1.3l1.7,44
	c0,0.8,0.2,1.6-0.5,2.1L158.9,522c-1.1,0.8-2.7-0.5-3.4-1.6l-11.1-15.8c-0.3-0.4-0.5-0.9-0.4-1.4l0.8-80
	C144.7,422.4,145,421.7,145.6,421.2z"/>
<path class="st12" d="M160.4,373.3l4.1,14.2c1.2,4.1-1.2,8.3-5.2,9.4l-7.4,2.1c-0.2,0.1-0.4,0.2-0.4,0.4l-2.1,5.9
	c-0.1,0.4-0.6,0.6-1,0.3l-5.4-3.8c-0.2-0.1-0.4-0.1-0.6-0.1l-6.8,1.9c-4.1,1.2-8.3-1.2-9.4-5.2l-4-14.2c-1.2-4.1,1.2-8.3,5.2-9.4
	l23.7-6.7C155,366.9,159.2,369.3,160.4,373.3z"/>
<path class="st13" d="M146,394.9c1.4-2.4,2.7-4.8,4.1-7.1c0.5-0.8,1-1.5,1.6-3.8c0.2-0.7,0.2-2.8-0.7-4c-0.8-1.2-1.5-1.5-2.9-1.9
	c-1.4-0.4-2.8-0.2-3.7,0.5c-1.2,1-1.6,3.9-1.7,4.2c-0.3-0.3-1.4-1.9-2.3-2.2c-0.2-0.1-2.3-0.8-4.3,0.4c-1.8,1.1-2.8,3.3-2.3,5.4
	c0.4,1.6,1.5,2.6,1.9,2.9C139.1,391.2,142.6,393.1,146,394.9z"/>
<path class="st14" d="M147.2,172.6l6.4,22.5c1.8,6.4-1.9,13.1-8.3,14.9l-11.7,3.3c-0.3,0.1-0.6,0.3-0.7,0.7l-3.2,9.2
	c-0.2,0.6-1,0.9-1.6,0.5l-8.6-6c-0.3-0.2-0.6-0.2-0.9-0.1l-10.7,3c-6.4,1.8-13.1-1.9-14.9-8.3l-6.4-22.4c-1.8-6.4,1.9-13.1,8.3-14.9
	l37.4-10.6C138.7,162.5,145.3,166.2,147.2,172.6z"/>
<path class="st15" d="M124.6,206.8c2.1-3.7,4.3-7.5,6.4-11.2c0.8-1.2,1.5-2.4,2.5-6c0.3-1.1,0.3-4.4-1.2-6.4c-1.3-1.8-2.4-2.4-4.5-3
	c-2.3-0.6-4.4-0.3-5.8,0.8c-2,1.6-2.6,6.2-2.6,6.6c-0.5-0.5-2.2-3-3.6-3.5c-0.4-0.1-3.6-1.2-6.8,0.7c-2.8,1.7-4.4,5.2-3.7,8.5
	c0.6,2.6,2.4,4,3,4.5C113.7,200.8,119.1,203.8,124.6,206.8z"/>
<path class="st14" d="M550.9,295.1l-14.2,6.6c-4,1.9-8.8,0.1-10.7-3.9l-3.4-7.4c-0.1-0.2-0.3-0.4-0.5-0.4l-6.4-1.2
	c-0.5-0.1-0.7-0.6-0.5-1l3.1-6.3c0.1-0.2,0.1-0.4,0-0.6l-3.1-6.7c-1.9-4-0.1-8.8,3.9-10.7l14.1-6.5c4-1.9,8.8-0.1,10.7,3.9
	l10.9,23.6C556.7,288.4,554.9,293.2,550.9,295.1z"/>
<path class="st15" d="M526,283.7c2.7,1,5.4,2.1,8.1,3.1c0.9,0.4,1.8,0.8,4.2,1c0.8,0.1,2.9-0.3,4.1-1.4c1.1-1.1,1.3-1.8,1.5-3.3
	c0.2-1.6-0.2-3-1.1-3.8c-1.3-1.1-4.4-1.1-4.6-1c0.3-0.4,1.7-1.8,1.9-2.8c0-0.2,0.4-2.5-1.2-4.4c-1.4-1.7-3.9-2.4-6-1.6
	c-1.6,0.6-2.4,2-2.7,2.4C528.8,275.9,527.4,279.8,526,283.7z"/>
<path class="st14" d="M109.7,227l10,7.2c2.8,2,3.5,6,1.4,8.8l-3.7,5.2c-0.1,0.1-0.1,0.3-0.1,0.5l1.7,4.9c0.1,0.3-0.1,0.7-0.5,0.7
	l-5.5,0.3c-0.2,0-0.3,0.1-0.4,0.2l-3.4,4.7c-2,2.8-6,3.5-8.8,1.4l-10-7.2c-2.8-2-3.5-6-1.4-8.8l12-16.6
	C102.9,225.6,106.9,225,109.7,227z"/>
<path class="st15" d="M111.5,248.5c-0.3-2.3-0.7-4.5-1-6.8c-0.1-0.7-0.2-1.5-0.9-3.3c-0.2-0.6-1.3-1.9-2.6-2.3
	c-1.1-0.3-1.8-0.2-2.9,0.3c-1.1,0.5-1.9,1.3-2.1,2.2c-0.3,1.3,1,3.4,1.1,3.6c-0.4,0-1.9-0.5-2.6-0.2c-0.2,0.1-1.9,0.7-2.6,2.5
	c-0.6,1.6-0.1,3.6,1.3,4.7c1.1,0.9,2.3,0.9,2.7,0.9C105.1,249.6,108.3,249.1,111.5,248.5z"/>
<path class="st16" d="M215.2,286.5l1.9,6.7c0.5,1.9-0.6,3.9-2.5,4.5l-3.5,1c-0.1,0-0.2,0.1-0.2,0.2l-1,2.8c-0.1,0.2-0.3,0.3-0.5,0.2
	l-2.6-1.8c-0.1-0.1-0.2-0.1-0.3,0l-3.2,0.9c-1.9,0.5-3.9-0.6-4.5-2.5l-1.9-6.7c-0.5-1.9,0.6-3.9,2.5-4.5l11.2-3.2
	C212.7,283.5,214.7,284.6,215.2,286.5z"/>
<path class="st1" d="M208.5,296.7c0.6-1.1,1.3-2.2,1.9-3.4c0.2-0.4,0.5-0.7,0.7-1.8c0.1-0.3,0.1-1.3-0.4-1.9
	c-0.4-0.6-0.7-0.7-1.4-0.9c-0.7-0.2-1.3-0.1-1.7,0.2c-0.6,0.5-0.8,1.9-0.8,2c-0.2-0.2-0.7-0.9-1.1-1c-0.1,0-1.1-0.4-2,0.2
	c-0.9,0.5-1.3,1.6-1.1,2.6c0.2,0.8,0.7,1.2,0.9,1.4C205.2,294.9,206.8,295.8,208.5,296.7z"/>
<path class="st16" d="M257.6,296.5l-7.8,9.5c-2.2,2.7-6.2,3.1-8.9,0.9l-4.9-4c-0.1-0.1-0.3-0.2-0.5-0.1l-5,1.4
	c-0.3,0.1-0.7-0.2-0.7-0.5l0-5.5c0-0.2-0.1-0.3-0.2-0.4l-4.5-3.7c-2.7-2.2-3.1-6.2-0.9-8.9l7.8-9.5c2.2-2.7,6.2-3.1,8.9-0.9
	l15.8,12.9C259.4,289.8,259.8,293.8,257.6,296.5z"/>
<path class="st1" d="M236,297c2.3-0.2,4.5-0.4,6.8-0.6c0.7,0,1.5-0.1,3.3-0.7c0.6-0.2,2-1.2,2.4-2.4c0.4-1.1,0.3-1.8-0.1-2.9
	c-0.4-1.2-1.2-2-2.1-2.3c-1.3-0.4-3.5,0.7-3.6,0.9c0.1-0.4,0.6-1.8,0.4-2.6c-0.1-0.2-0.6-1.9-2.3-2.7c-1.6-0.7-3.6-0.3-4.8,1
	c-0.9,1-1,2.2-1.1,2.7C235.3,290.5,235.7,293.7,236,297z"/>
<g>
	<path class="st16" d="M286.4,269.5l6.4,2l2-6.5l5.4,1.7l-2,6.5l6.5,2l-1.7,5.4l-6.5-2l-2,6.4l-5.4-1.7l2-6.4l-6.4-2L286.4,269.5z"
		/>
	<path class="st16" d="M330.1,273l-7.7,25l-6.9-2.1l5.1-16.4c-1.4,0.5-2.7,0.9-3.9,1.1c-1.2,0.2-2.7,0.3-4.4,0.3l1.7-5.6
		c2.6,0,4.6-0.4,6.3-1c1.6-0.7,3-1.6,4.2-3L330.1,273z"/>
	<path class="st16" d="M333.7,287.9c1.4-4.7,3.3-7.7,5.6-9c2.3-1.4,5.1-1.5,8.6-0.4c1.7,0.5,3,1.1,3.9,1.9c0.9,0.7,1.6,1.5,2.1,2.4
		c0.5,0.9,0.8,1.7,0.9,2.6c0.2,0.8,0.2,1.8,0.2,2.8c-0.1,2-0.5,4-1.1,6c-1.4,4.5-3.1,7.5-5.3,9.1c-2.2,1.6-5.1,1.8-8.8,0.7
		c-2.1-0.6-3.6-1.5-4.7-2.5c-1.1-1.1-1.8-2.3-2.2-3.9c-0.3-1.1-0.4-2.5-0.2-4.1C332.7,291.6,333.1,289.8,333.7,287.9z M340.4,290
		c-1,3.1-1.4,5.4-1.2,6.7c0.2,1.3,0.8,2.1,1.9,2.5c0.7,0.2,1.4,0.2,2-0.2c0.7-0.3,1.3-1,1.8-2s1.2-2.6,1.9-4.8
		c1-3.3,1.4-5.6,1.2-6.8s-0.9-2.1-2-2.5c-1.1-0.3-2.1,0-3,1C342.3,284.9,341.4,286.9,340.4,290z"/>
	<path class="st16" d="M356.6,295c1.4-4.7,3.3-7.7,5.6-9c2.3-1.4,5.1-1.5,8.6-0.4c1.7,0.5,3,1.1,3.9,1.9c0.9,0.7,1.6,1.5,2.1,2.4
		c0.5,0.9,0.8,1.7,0.9,2.6c0.2,0.8,0.2,1.8,0.2,2.8c-0.1,2-0.5,4-1.1,6c-1.4,4.5-3.1,7.5-5.3,9.1c-2.2,1.6-5.1,1.8-8.8,0.7
		c-2.1-0.6-3.6-1.5-4.7-2.5c-1.1-1.1-1.8-2.3-2.2-3.9c-0.3-1.1-0.4-2.5-0.2-4.1C355.6,298.7,356,296.9,356.6,295z M363.4,297.1
		c-1,3.1-1.4,5.4-1.2,6.7c0.2,1.3,0.8,2.1,1.9,2.5c0.7,0.2,1.4,0.2,2-0.2c0.7-0.3,1.3-1,1.8-2c0.6-1,1.2-2.6,1.9-4.8
		c1-3.3,1.4-5.6,1.2-6.8c-0.2-1.3-0.9-2.1-2-2.5c-1.1-0.3-2.1,0-3,1C365.3,291.9,364.3,294,363.4,297.1z"/>
	<path class="st16" d="M379.6,302.1c1.4-4.7,3.3-7.7,5.6-9c2.3-1.4,5.1-1.5,8.6-0.4c1.7,0.5,3,1.1,3.9,1.9c0.9,0.7,1.6,1.5,2.1,2.4
		s0.8,1.7,0.9,2.6c0.2,0.8,0.2,1.8,0.2,2.8c-0.1,2-0.5,4-1.1,6c-1.4,4.5-3.1,7.5-5.3,9.1c-2.2,1.6-5.1,1.8-8.8,0.7
		c-2.1-0.6-3.6-1.5-4.7-2.5c-1.1-1.1-1.8-2.3-2.2-3.9c-0.3-1.1-0.4-2.5-0.2-4.1S379,304,379.6,302.1z M386.3,304.2
		c-1,3.1-1.4,5.4-1.2,6.7c0.2,1.3,0.8,2.1,1.9,2.5c0.7,0.2,1.4,0.2,2-0.2c0.7-0.3,1.3-1,1.8-2c0.6-1,1.2-2.6,1.9-4.8
		c1-3.3,1.4-5.6,1.2-6.8c-0.2-1.3-0.9-2.1-2-2.5c-1.1-0.3-2.1,0-3,1C388.2,299,387.3,301.1,386.3,304.2z"/>
</g>
<g class="st17">
	<path class="st16" d="M417.2,60.9l5.6,7.9l7.9-5.6l4.7,6.7l-7.9,5.6l5.6,7.9l-6.7,4.7l-5.6-7.9l-7.9,5.6l-4.7-6.7l7.9-5.6l-5.6-7.9
		L417.2,60.9z"/>
	<path class="st16" d="M464,103.1l-30.7,21.8l-6-8.5l20.1-14.3c-2-0.6-3.8-1.4-5.4-2.2c-1.6-0.8-3.3-2-5.3-3.5l6.9-4.9
		c2.9,2.2,5.6,3.6,8,4.3c2.4,0.7,4.9,0.8,7.4,0.3L464,103.1z"/>
	<path class="st16" d="M455,123.3c5.7-4.1,10.5-5.9,14.3-5.5c3.8,0.4,7.1,2.8,10.1,7c1.4,2,2.4,3.9,2.8,5.5c0.4,1.7,0.5,3.2,0.3,4.6
		c-0.2,1.4-0.6,2.6-1.2,3.7s-1.3,2.2-2.3,3.3c-1.9,2.2-4,4.1-6.5,5.8c-5.5,3.9-10.2,5.8-14,5.8s-7.4-2.3-10.6-6.9
		c-1.8-2.5-2.9-4.9-3.2-7c-0.3-2.1,0-4.3,0.8-6.4c0.6-1.5,1.7-3.2,3.4-4.9C450.7,126.6,452.7,124.9,455,123.3z M460.9,131.6
		c-3.8,2.7-6.2,4.9-7.2,6.6c-0.9,1.7-0.9,3.2,0,4.5c0.6,0.9,1.4,1.4,2.5,1.6c1,0.2,2.3,0,3.8-0.6s3.6-1.9,6.4-3.8
		c4-2.8,6.5-5.1,7.4-6.8c0.9-1.7,0.9-3.2-0.1-4.5c-1-1.4-2.4-1.9-4.2-1.5S464.7,128.9,460.9,131.6z"/>
	<path class="st16" d="M475,151.4c5.7-4.1,10.5-5.9,14.3-5.5c3.8,0.4,7.1,2.8,10.1,7c1.4,2,2.4,3.9,2.8,5.5s0.5,3.2,0.3,4.6
		s-0.6,2.6-1.2,3.7s-1.3,2.2-2.3,3.3c-1.9,2.2-4,4.1-6.5,5.8c-5.5,3.9-10.2,5.8-14,5.8c-3.9-0.1-7.4-2.3-10.6-6.9
		c-1.8-2.5-2.9-4.9-3.2-7s0-4.3,0.8-6.4c0.6-1.5,1.7-3.2,3.4-4.9C470.7,154.8,472.7,153.1,475,151.4z M480.9,159.8
		c-3.8,2.7-6.2,4.9-7.2,6.6c-0.9,1.7-0.9,3.2,0,4.5c0.6,0.9,1.4,1.4,2.5,1.6c1,0.2,2.3,0,3.8-0.6s3.6-1.9,6.4-3.8
		c4-2.8,6.5-5.1,7.4-6.8s0.9-3.2-0.1-4.5c-1-1.4-2.4-1.9-4.2-1.5C487.5,155.5,484.7,157.1,480.9,159.8z"/>
	<path class="st16" d="M495,179.6c5.7-4.1,10.5-5.9,14.3-5.5s7.1,2.8,10.1,7c1.4,2,2.4,3.9,2.8,5.5c0.4,1.7,0.5,3.2,0.3,4.6
		c-0.2,1.4-0.6,2.6-1.2,3.7c-0.6,1.1-1.3,2.2-2.3,3.3c-1.9,2.2-4,4.1-6.5,5.8c-5.5,3.9-10.2,5.8-14,5.8c-3.9-0.1-7.4-2.3-10.6-6.9
		c-1.8-2.5-2.9-4.9-3.2-7c-0.3-2.1,0-4.3,0.8-6.4c0.6-1.5,1.7-3.2,3.4-4.9C490.6,183,492.6,181.3,495,179.6z M500.9,187.9
		c-3.8,2.7-6.2,4.9-7.2,6.6c-0.9,1.7-0.9,3.2,0,4.5c0.6,0.9,1.4,1.4,2.5,1.6c1,0.2,2.3,0,3.8-0.6c1.5-0.6,3.6-1.9,6.4-3.8
		c4-2.8,6.5-5.1,7.4-6.8c0.9-1.7,0.9-3.2-0.1-4.5c-1-1.4-2.4-1.9-4.2-1.5S504.7,185.2,500.9,187.9z"/>
</g>
<g class="st17">
	<path class="st16" d="M302.7,144.6l4.9,0.3l0.3-4.9l4.1,0.3l-0.3,4.9l4.9,0.3l-0.3,4.1l-4.9-0.3l-0.3,4.9l-4.1-0.3l0.3-4.9
		l-4.9-0.3L302.7,144.6z"/>
	<path class="st16" d="M334.1,139.7l-1.2,18.9l-5.2-0.3l0.8-12.4c-0.9,0.6-1.7,1.1-2.6,1.4c-0.8,0.3-1.8,0.7-3.1,0.9l0.3-4.2
		c1.8-0.5,3.2-1,4.2-1.8c1-0.7,1.9-1.7,2.5-2.8L334.1,139.7z"/>
	<path class="st16" d="M339.1,149.7c0.2-3.5,1-6,2.4-7.3c1.4-1.3,3.4-1.9,6-1.7c1.3,0.1,2.3,0.3,3.1,0.7c0.8,0.4,1.4,0.8,1.9,1.3
		s0.8,1.1,1.1,1.6c0.3,0.6,0.4,1.2,0.6,2c0.3,1.4,0.3,2.9,0.2,4.4c-0.2,3.4-1,5.8-2.2,7.3c-1.2,1.5-3.3,2.1-6.1,2
		c-1.6-0.1-2.8-0.4-3.7-1c-0.9-0.6-1.7-1.3-2.2-2.4c-0.4-0.7-0.7-1.7-0.9-2.9S339,151.1,339.1,149.7z M344.2,150
		c-0.2,2.4-0.1,4,0.3,4.9s0.9,1.4,1.7,1.4c0.5,0,1-0.1,1.4-0.5c0.4-0.3,0.7-0.9,1-1.7c0.2-0.8,0.4-2,0.5-3.7c0.2-2.5,0.1-4.1-0.3-5
		c-0.4-0.9-1-1.3-1.8-1.4c-0.9-0.1-1.5,0.3-1.9,1.2C344.7,146.1,344.4,147.7,344.2,150z"/>
	<path class="st16" d="M356.4,150.8c0.2-3.5,1-6,2.4-7.3s3.4-1.9,6-1.7c1.3,0.1,2.3,0.3,3.1,0.7c0.8,0.4,1.4,0.8,1.9,1.3
		s0.8,1.1,1.1,1.6c0.3,0.6,0.4,1.2,0.6,2c0.3,1.4,0.3,2.9,0.2,4.4c-0.2,3.4-1,5.8-2.2,7.3c-1.2,1.5-3.3,2.1-6.1,2
		c-1.6-0.1-2.8-0.4-3.7-1s-1.7-1.3-2.2-2.4c-0.4-0.7-0.7-1.7-0.9-2.9S356.4,152.2,356.4,150.8z M361.6,151.1c-0.2,2.4-0.1,4,0.3,4.9
		s0.9,1.4,1.7,1.4c0.5,0,1-0.1,1.4-0.5c0.4-0.3,0.7-0.9,1-1.7c0.2-0.8,0.4-2,0.5-3.7c0.2-2.5,0.1-4.1-0.3-5c-0.4-0.9-1-1.3-1.8-1.4
		c-0.9-0.1-1.5,0.3-1.9,1.2C362,147.2,361.7,148.8,361.6,151.1z"/>
	<path class="st16" d="M373.8,151.9c0.2-3.5,1-6,2.4-7.3s3.4-1.9,6-1.7c1.3,0.1,2.3,0.3,3.1,0.7c0.8,0.4,1.4,0.8,1.9,1.3
		c0.5,0.5,0.8,1.1,1.1,1.6c0.3,0.6,0.4,1.2,0.6,2c0.3,1.4,0.3,2.9,0.2,4.4c-0.2,3.4-1,5.8-2.2,7.3c-1.2,1.5-3.3,2.1-6.1,2
		c-1.6-0.1-2.8-0.4-3.7-1c-0.9-0.6-1.7-1.3-2.2-2.4c-0.4-0.7-0.7-1.7-0.9-2.9S373.7,153.4,373.8,151.9z M378.9,152.3
		c-0.2,2.4-0.1,4,0.3,4.9c0.4,0.9,0.9,1.4,1.7,1.4c0.5,0,1-0.1,1.4-0.5s0.7-0.9,1-1.7c0.2-0.8,0.4-2,0.5-3.7c0.2-2.5,0.1-4.1-0.3-5
		c-0.4-0.9-1-1.3-1.8-1.4c-0.9-0.1-1.5,0.3-1.9,1.2C379.4,148.3,379.1,149.9,378.9,152.3z"/>
</g>
<g class="st17">
	<path class="st16" d="M490.4,369.7l3.4,3.5l3.5-3.5l2.9,2.9l-3.5,3.5l3.5,3.5l-2.9,2.9l-3.5-3.5l-3.5,3.4l-2.9-2.9l3.5-3.4
		l-3.4-3.5L490.4,369.7z"/>
	<path class="st16" d="M517.2,386.7l-13.4,13.4l-3.7-3.7l8.8-8.8c-1.1-0.1-2-0.4-2.8-0.6c-0.8-0.3-1.8-0.7-2.9-1.3l3-3
		c1.6,0.8,3.1,1.3,4.4,1.5c1.3,0.1,2.5,0,3.7-0.5L517.2,386.7z"/>
	<path class="st16" d="M514.4,397.5c2.5-2.5,4.7-3.8,6.6-3.9c1.9-0.1,3.8,0.8,5.6,2.6c0.9,0.9,1.5,1.7,1.9,2.5
		c0.3,0.8,0.5,1.5,0.5,2.2c0,0.7-0.1,1.4-0.3,2c-0.2,0.6-0.5,1.2-0.9,1.9c-0.7,1.2-1.6,2.4-2.7,3.4c-2.4,2.4-4.6,3.7-6.5,4
		c-1.9,0.3-3.9-0.5-5.8-2.5c-1.1-1.1-1.8-2.2-2.2-3.2s-0.4-2.1-0.1-3.2c0.2-0.8,0.6-1.7,1.3-2.7
		C512.5,399.5,513.4,398.5,514.4,397.5z M518,401.1c-1.7,1.7-2.7,3-3,3.9c-0.3,0.9-0.2,1.6,0.4,2.2c0.4,0.4,0.8,0.6,1.4,0.6
		c0.5,0,1.1-0.2,1.8-0.6c0.7-0.4,1.6-1.2,2.8-2.4c1.8-1.7,2.8-3.1,3.1-4s0.2-1.6-0.4-2.2c-0.6-0.6-1.3-0.7-2.2-0.4
		C521,398.4,519.7,399.4,518,401.1z"/>
	<path class="st16" d="M526.7,409.8c2.5-2.5,4.7-3.8,6.6-3.9c1.9-0.1,3.8,0.8,5.6,2.6c0.9,0.9,1.5,1.7,1.9,2.5s0.5,1.5,0.5,2.2
		c0,0.7-0.1,1.4-0.3,2c-0.2,0.6-0.5,1.2-0.9,1.9c-0.7,1.2-1.6,2.4-2.7,3.4c-2.4,2.4-4.6,3.7-6.5,4c-1.9,0.3-3.9-0.5-5.8-2.5
		c-1.1-1.1-1.8-2.2-2.2-3.2c-0.3-1-0.4-2.1-0.1-3.2c0.2-0.8,0.6-1.7,1.3-2.7C524.8,411.8,525.6,410.8,526.7,409.8z M530.3,413.4
		c-1.7,1.7-2.7,3-3,3.9c-0.3,0.9-0.2,1.6,0.4,2.2c0.4,0.4,0.8,0.6,1.4,0.6s1.1-0.2,1.8-0.6c0.7-0.4,1.6-1.2,2.8-2.4
		c1.8-1.7,2.8-3.1,3.1-4s0.2-1.6-0.4-2.2c-0.6-0.6-1.3-0.7-2.2-0.4C533.2,410.8,531.9,411.8,530.3,413.4z"/>
	<path class="st16" d="M538.9,422.1c2.5-2.5,4.7-3.8,6.6-3.9c1.9-0.1,3.8,0.8,5.6,2.6c0.9,0.9,1.5,1.7,1.9,2.5
		c0.3,0.8,0.5,1.5,0.5,2.2s-0.1,1.4-0.3,2c-0.2,0.6-0.5,1.2-0.9,1.9c-0.7,1.2-1.6,2.4-2.7,3.4c-2.4,2.4-4.6,3.7-6.5,4
		c-1.9,0.3-3.9-0.5-5.8-2.5c-1.1-1.1-1.8-2.2-2.2-3.2s-0.4-2.1-0.1-3.2c0.2-0.8,0.6-1.7,1.3-2.7
		C537.1,424.1,537.9,423.1,538.9,422.1z M542.6,425.7c-1.7,1.7-2.7,3-3,3.9c-0.3,0.9-0.2,1.6,0.4,2.2c0.4,0.4,0.8,0.6,1.4,0.6
		c0.5,0,1.1-0.2,1.8-0.6c0.7-0.4,1.6-1.2,2.8-2.4c1.8-1.7,2.8-3.1,3.1-4s0.2-1.6-0.4-2.2c-0.6-0.6-1.3-0.7-2.2-0.4
		S544.2,424.1,542.6,425.7z"/>
</g>
<g>
	<path class="st16" d="M135.1,476.8l1.9-1.3l-1.3-1.9l1.6-1.1l1.3,1.9l1.9-1.3l1.1,1.6l-1.9,1.3l1.3,1.9l-1.6,1.1l-1.3-1.9l-1.9,1.3
		L135.1,476.8z"/>
	<path class="st16" d="M145.1,465.7l5.2,7.3l-2,1.4l-3.4-4.8c-0.1,0.5-0.3,0.9-0.5,1.3c-0.2,0.4-0.5,0.8-0.8,1.3l-1.2-1.6
		c0.5-0.7,0.9-1.3,1-1.9c0.2-0.6,0.2-1.2,0.1-1.8L145.1,465.7z"/>
	<path class="st16" d="M149.9,467.8c-1-1.4-1.4-2.5-1.3-3.4c0.1-0.9,0.7-1.7,1.7-2.4c0.5-0.3,0.9-0.6,1.3-0.7
		c0.4-0.1,0.8-0.1,1.1-0.1c0.3,0.1,0.6,0.1,0.9,0.3s0.5,0.3,0.8,0.5c0.5,0.4,1,0.9,1.4,1.5c0.9,1.3,1.4,2.4,1.4,3.3
		c0,0.9-0.6,1.8-1.6,2.5c-0.6,0.4-1.2,0.7-1.7,0.7s-1,0-1.5-0.2c-0.4-0.1-0.8-0.4-1.2-0.8S150.3,468.4,149.9,467.8z M151.9,466.4
		c0.6,0.9,1.2,1.5,1.6,1.7c0.4,0.2,0.7,0.2,1.1,0c0.2-0.1,0.3-0.3,0.4-0.6s0-0.5-0.2-0.9c-0.1-0.4-0.5-0.9-0.9-1.5
		c-0.7-0.9-1.2-1.5-1.6-1.7c-0.4-0.2-0.8-0.2-1.1,0c-0.3,0.2-0.4,0.6-0.4,1C150.9,464.9,151.2,465.5,151.9,466.4z"/>
	<path class="st16" d="M156.6,463.1c-1-1.4-1.4-2.5-1.3-3.4c0.1-0.9,0.7-1.7,1.7-2.4c0.5-0.3,0.9-0.6,1.3-0.7
		c0.4-0.1,0.8-0.1,1.1-0.1c0.3,0.1,0.6,0.1,0.9,0.3s0.5,0.3,0.8,0.5c0.5,0.4,1,0.9,1.4,1.5c0.9,1.3,1.4,2.4,1.4,3.3
		c0,0.9-0.6,1.8-1.6,2.5c-0.6,0.4-1.2,0.7-1.7,0.7c-0.5,0.1-1,0-1.5-0.2c-0.4-0.1-0.8-0.4-1.2-0.8S156.9,463.7,156.6,463.1z
		 M158.5,461.7c0.6,0.9,1.2,1.5,1.6,1.7c0.4,0.2,0.7,0.2,1.1,0c0.2-0.1,0.3-0.3,0.4-0.6s0-0.5-0.2-0.9c-0.1-0.4-0.5-0.9-0.9-1.5
		c-0.7-0.9-1.2-1.5-1.6-1.7s-0.8-0.2-1.1,0c-0.3,0.2-0.4,0.6-0.4,1C157.5,460.1,157.9,460.8,158.5,461.7z"/>
	<path class="st16" d="M163.2,458.4c-1-1.4-1.4-2.5-1.3-3.4c0.1-0.9,0.7-1.7,1.7-2.4c0.5-0.3,0.9-0.6,1.3-0.7
		c0.4-0.1,0.8-0.1,1.1-0.1c0.3,0.1,0.6,0.1,0.9,0.3s0.5,0.3,0.8,0.5c0.5,0.4,1,0.9,1.4,1.5c0.9,1.3,1.4,2.4,1.4,3.3
		s-0.6,1.8-1.6,2.5c-0.6,0.4-1.2,0.7-1.7,0.7c-0.5,0.1-1,0-1.5-0.2c-0.4-0.1-0.8-0.4-1.2-0.8S163.6,458.9,163.2,458.4z M165.2,457
		c0.6,0.9,1.2,1.5,1.6,1.7c0.4,0.2,0.7,0.2,1.1,0c0.2-0.1,0.3-0.3,0.4-0.6c0-0.2,0-0.5-0.2-0.9c-0.1-0.4-0.5-0.9-0.9-1.5
		c-0.7-0.9-1.2-1.5-1.6-1.7c-0.4-0.2-0.8-0.2-1.1,0c-0.3,0.2-0.4,0.6-0.4,1C164.2,455.4,164.5,456.1,165.2,457z"/>
</g>
<g>
	<path class="st16" d="M140.4,486.2l1.1-0.9c0.2,0.2,0.3,0.3,0.4,0.3c0.2,0.1,0.5,0,0.7-0.1c0.2-0.1,0.3-0.3,0.3-0.4s0-0.3-0.1-0.4
		c-0.1-0.1-0.2-0.2-0.3-0.2c-0.1,0-0.4,0.1-0.8,0.2c-0.6,0.3-1.1,0.4-1.4,0.3c-0.4,0-0.6-0.2-0.9-0.5c-0.1-0.2-0.2-0.4-0.2-0.7
		c0-0.3,0.1-0.5,0.2-0.8c0.2-0.3,0.4-0.5,0.8-0.8c0.5-0.3,0.9-0.5,1.3-0.5s0.7,0.2,1.1,0.5l-1.1,0.9c-0.2-0.2-0.3-0.2-0.5-0.2
		s-0.3,0-0.5,0.2c-0.1,0.1-0.2,0.2-0.2,0.3s0,0.2,0,0.3c0,0.1,0.1,0.1,0.2,0.1c0.1,0,0.3,0,0.5-0.1c0.6-0.3,1-0.4,1.3-0.4
		c0.3,0,0.6,0,0.8,0.1c0.2,0.1,0.4,0.2,0.6,0.5c0.2,0.2,0.3,0.5,0.3,0.8s-0.1,0.6-0.2,0.9c-0.2,0.3-0.4,0.5-0.8,0.8
		c-0.6,0.5-1.2,0.7-1.6,0.6C141.1,486.8,140.7,486.6,140.4,486.2z"/>
	<path class="st16" d="M148.2,482.6l-1,0.7l-0.3-0.4c0,0.3-0.1,0.5-0.2,0.7c-0.1,0.2-0.3,0.4-0.5,0.5c-0.3,0.2-0.6,0.3-0.9,0.2
		c-0.3-0.1-0.6-0.3-0.8-0.6l-1.2-1.8l1.1-0.8l1.1,1.5c0.1,0.2,0.2,0.3,0.4,0.3c0.1,0,0.2,0,0.3-0.1c0.1-0.1,0.2-0.2,0.2-0.4
		c0-0.2-0.1-0.4-0.2-0.6l-0.9-1.3l1.1-0.8L148.2,482.6z"/>
	<path class="st16" d="M146.2,478.3l1.1-0.8l0.9,1.3c0-0.2,0.1-0.4,0.2-0.5c0.1-0.2,0.2-0.3,0.4-0.4c0.3-0.2,0.7-0.3,1.1-0.2
		c0.4,0.1,0.7,0.4,1.1,0.8c0.2,0.3,0.4,0.6,0.4,0.9s0,0.6-0.1,0.8c-0.1,0.2-0.3,0.4-0.5,0.6c-0.2,0.1-0.4,0.2-0.6,0.2
		c-0.2,0-0.4,0-0.6-0.1l0.3,0.4l-1,0.7L146.2,478.3z M148.9,480c0.2,0.2,0.3,0.4,0.5,0.4c0.2,0,0.3,0,0.5-0.1
		c0.1-0.1,0.2-0.2,0.2-0.4c0-0.2-0.1-0.4-0.2-0.6c-0.2-0.2-0.3-0.3-0.5-0.4c-0.2,0-0.3,0-0.4,0.1c-0.1,0.1-0.2,0.2-0.2,0.4
		C148.7,479.6,148.8,479.8,148.9,480z"/>
	<path class="st16" d="M151.7,479l1-0.8c0.1,0.1,0.3,0.1,0.4,0.1c0.1,0,0.2,0,0.4-0.1c0.1-0.1,0.2-0.2,0.3-0.3c0-0.1,0-0.2,0-0.2
		c-0.1-0.1-0.1-0.1-0.2-0.1c-0.1,0-0.3,0.1-0.5,0.2c-0.4,0.2-0.7,0.3-0.9,0.4c-0.2,0-0.4,0-0.6,0c-0.2-0.1-0.3-0.2-0.5-0.3
		c-0.1-0.2-0.2-0.4-0.2-0.6c0-0.2,0.1-0.4,0.2-0.6c0.1-0.2,0.4-0.4,0.7-0.6c0.3-0.2,0.6-0.4,0.8-0.4c0.2-0.1,0.4-0.1,0.6,0
		c0.2,0,0.4,0.1,0.6,0.2l-0.9,0.8c-0.1-0.1-0.2-0.1-0.3-0.1c-0.1,0-0.2,0-0.4,0.1c-0.1,0.1-0.2,0.2-0.2,0.2c0,0.1,0,0.2,0,0.2
		c0,0.1,0.1,0.1,0.2,0.1c0.1,0,0.3-0.1,0.5-0.2c0.4-0.2,0.7-0.3,0.9-0.4s0.4,0,0.6,0c0.2,0.1,0.3,0.2,0.4,0.3
		c0.1,0.2,0.2,0.3,0.2,0.6c0,0.2-0.1,0.4-0.2,0.7c-0.1,0.2-0.4,0.5-0.8,0.7c-0.5,0.4-0.9,0.5-1.2,0.5
		C152.2,479.3,151.9,479.2,151.7,479z"/>
	<path class="st16" d="M157,474.8l1.1-0.6c0.1,0.2,0.1,0.5,0.1,0.7c0,0.2-0.1,0.5-0.2,0.7c-0.1,0.2-0.4,0.4-0.7,0.7
		c-0.3,0.2-0.6,0.4-0.8,0.4c-0.2,0.1-0.5,0.1-0.7,0.1c-0.2,0-0.4-0.1-0.6-0.2c-0.2-0.1-0.4-0.3-0.6-0.6c-0.2-0.3-0.3-0.6-0.4-0.8
		c0-0.2,0-0.4,0-0.6c0-0.2,0.1-0.4,0.2-0.5c0.1-0.2,0.4-0.5,0.7-0.7c0.5-0.3,0.9-0.5,1.2-0.5c0.4,0,0.7,0.1,1,0.4l-0.9,0.8
		c-0.1-0.1-0.2-0.1-0.4-0.1c-0.1,0-0.3,0-0.4,0.1c-0.2,0.1-0.3,0.3-0.3,0.5c0,0.2,0.1,0.4,0.2,0.7c0.2,0.2,0.3,0.4,0.5,0.4
		c0.2,0,0.4,0,0.5-0.1c0.1-0.1,0.2-0.2,0.3-0.4C157,475.1,157,474.9,157,474.8z"/>
	<path class="st16" d="M157.3,472l1-0.7l0.3,0.5c0-0.3,0-0.5,0-0.6c0-0.1,0.1-0.3,0.3-0.4c0.2-0.1,0.4-0.2,0.6-0.2l0.2,1
		c-0.2,0-0.3,0.1-0.4,0.1c-0.1,0.1-0.2,0.2-0.2,0.4c0,0.2,0.2,0.6,0.5,1l0.7,0.9l-1.1,0.8L157.3,472z"/>
	<path class="st16" d="M158.9,469.3l1.1-0.8l0.5,0.7l-1.1,0.8L158.9,469.3z M159.7,470.3l1.1-0.8l2,2.8l-1.1,0.8L159.7,470.3z"/>
	<path class="st16" d="M160.7,468l1.1-0.8l0.9,1.3c0-0.2,0.1-0.4,0.2-0.5c0.1-0.2,0.2-0.3,0.4-0.4c0.3-0.2,0.7-0.3,1.1-0.2
		s0.7,0.4,1.1,0.8c0.2,0.3,0.4,0.6,0.4,0.9s0,0.6-0.1,0.8c-0.1,0.2-0.3,0.4-0.5,0.6c-0.2,0.1-0.4,0.2-0.6,0.2c-0.2,0-0.4,0-0.6-0.1
		l0.3,0.4l-1,0.7L160.7,468z M163.4,469.7c0.2,0.2,0.3,0.4,0.5,0.4c0.2,0,0.3,0,0.5-0.1c0.1-0.1,0.2-0.2,0.2-0.4
		c0-0.2-0.1-0.4-0.2-0.6c-0.2-0.2-0.3-0.3-0.5-0.4c-0.2,0-0.3,0-0.4,0.1c-0.1,0.1-0.2,0.2-0.2,0.4
		C163.2,469.3,163.3,469.5,163.4,469.7z"/>
	<path class="st16" d="M169.2,466l-2.1,1.5c0.1,0.2,0.3,0.3,0.4,0.3c0.2,0,0.4,0,0.5-0.1c0.1-0.1,0.2-0.2,0.2-0.3
		c0-0.1,0.1-0.2,0.1-0.3l1.1-0.6c0,0.4,0,0.7-0.2,1c-0.1,0.3-0.4,0.6-0.8,0.9c-0.4,0.3-0.7,0.4-1,0.5c-0.3,0-0.6,0-0.9-0.1
		c-0.3-0.1-0.6-0.3-0.8-0.6c-0.3-0.4-0.4-0.9-0.3-1.3c0.1-0.5,0.4-0.9,0.9-1.2c0.4-0.3,0.7-0.4,1.1-0.5c0.3,0,0.6,0,0.9,0.1
		c0.3,0.1,0.6,0.4,0.8,0.8L169.2,466z M167.7,466.3c-0.2-0.2-0.3-0.3-0.5-0.3s-0.3,0-0.4,0.1c-0.2,0.1-0.3,0.3-0.3,0.5
		c0,0.1,0,0.3,0.1,0.5L167.7,466.3z"/>
	<path class="st16" d="M168.5,464l1-0.7l0.3,0.5c0-0.3,0-0.5,0-0.6c0-0.1,0.1-0.3,0.3-0.4c0.2-0.1,0.4-0.2,0.6-0.2l0.2,1
		c-0.2,0-0.3,0.1-0.4,0.1c-0.1,0.1-0.2,0.2-0.2,0.4c0,0.2,0.2,0.6,0.5,1l0.7,0.9l-1.1,0.8L168.5,464z"/>
	<path class="st16" d="M172.2,464.4l1-0.8c0.1,0.1,0.3,0.1,0.4,0.1c0.1,0,0.2,0,0.4-0.1c0.1-0.1,0.2-0.2,0.3-0.3c0-0.1,0-0.2,0-0.2
		c-0.1-0.1-0.1-0.1-0.2-0.1c-0.1,0-0.3,0.1-0.5,0.2c-0.4,0.2-0.7,0.3-0.9,0.4c-0.2,0-0.4,0-0.6,0s-0.3-0.2-0.5-0.3
		c-0.1-0.2-0.2-0.4-0.2-0.6s0.1-0.4,0.2-0.6s0.4-0.4,0.7-0.6c0.3-0.2,0.6-0.4,0.8-0.4c0.2-0.1,0.4-0.1,0.6,0c0.2,0,0.4,0.1,0.6,0.2
		l-0.9,0.8c-0.1-0.1-0.2-0.1-0.3-0.1c-0.1,0-0.2,0-0.4,0.1c-0.1,0.1-0.2,0.2-0.2,0.2c0,0.1,0,0.2,0,0.2c0,0.1,0.1,0.1,0.2,0.1
		s0.3-0.1,0.5-0.2c0.4-0.2,0.7-0.3,0.9-0.4s0.4,0,0.6,0c0.2,0.1,0.3,0.2,0.4,0.3c0.1,0.2,0.2,0.3,0.2,0.6c0,0.2-0.1,0.4-0.2,0.7
		c-0.1,0.2-0.4,0.5-0.8,0.7c-0.5,0.4-0.9,0.5-1.2,0.5C172.8,464.7,172.5,464.6,172.2,464.4z"/>
</g>
</svg>
