<?xml version="1.0" encoding="UTF-8"?>
<svg id="Ebene_1" data-name="Ebene 1" xmlns="http://www.w3.org/2000/svg" viewBox="0 0 505.84 458.75">
  <defs>
    <style>
      .cls-1 {
        fill: #fff;
      }

      .cls-2 {
        fill: #b2b2b2;
      }

      .cls-3 {
        fill: #bbb;
      }

      .cls-4 {
        fill: #cfcfce;
      }

      .cls-5 {
        fill: #dde2e0;
      }

      .cls-6 {
        fill: #dadada;
      }

      .cls-7 {
        fill: #103e4e;
      }

      .cls-8 {
        fill: #415d68;
      }

      .cls-9 {
        fill: #1d1d1b;
      }

      .cls-10, .cls-11 {
        fill: #95c11f;
      }

      .cls-12 {
        fill: #536d77;
      }

      .cls-13 {
        fill: #395b6a;
      }

      .cls-14 {
        fill: #3c3c3b;
      }

      .cls-15 {
        opacity: .32;
      }

      .cls-15, .cls-16 {
        fill: #706f6f;
      }

      .cls-17 {
        opacity: .29;
      }

      .cls-18 {
        opacity: .44;
      }

      .cls-19 {
        opacity: .39;
      }

      .cls-11 {
        opacity: .24;
      }

      .cls-16 {
        opacity: .37;
      }
    </style>
  </defs>
  <rect class="cls-6" x="162.74" y="260.24" width="252.78" height="156.09" rx="10.49" ry="10.49" transform="translate(-115.31 152.65) rotate(-24.82)"/>
  <rect class="cls-15" x="141.13" y="264.99" width="252.78" height="53.15" rx="10.49" ry="10.49" transform="translate(-97.69 139.26) rotate(-24.82)"/>
  <path class="cls-1" d="M91.87,209.72c1.23-1.07,2.32-1.72,2.88-2.04,.72-.41,1.37-.7,1.87-.9l150.71-70.77c15.59-7.34,38.82-18.16,67.55-31.1,3.39-1.43,6.78-2.85,10.17-4.28,1.45-.13,3.8-.12,5.82,1.24,2.54,1.7,3.26,4.64,3.52,5.66,4.39,17.22,11.46,33.56,17.03,50.41,3.73,11.28,5.6,14.39,10.47,30.06,1.75,5.64,3.08,10.29,3.93,13.35-.25,1.83-.89,4.26-2.71,6.3-2.02,2.26-4.58,3-5.11,3.17-5,1.62-60.14,27.62-139.72,65.5-24.33,11.53-48.67,23.07-73,34.6-.31,.13-3.39,1.4-5.76-.25-.87-.6-1.31-1.37-1.45-1.64-1.43-2.61-19.25-35.01-43.73-79.53-1.88-3.82-3.77-7.64-5.65-11.46-.31-1.03-.7-2.97,.17-4.91,.58-1.29,1.49-2.08,3.01-3.41Z"/>
  <g id="Og7eq6.tif">
    <g>
      <path class="cls-14" d="M313.53,347.76c-3.59,1.61-6.46,2.87-9.31,4.18-18.04,8.3-36.04,16.65-54.13,24.84-1.84,.83-5.43,1.56-6,.76-1.99-2.79-3.17-6.22-4.26-9.54-.18-.56,1.46-2.13,2.53-2.63,21.13-9.79,42.3-19.49,63.48-29.19,2.59-1.19,4.63-.72,5.79,2.16,.72,1.8,1.89,3.47,2.31,5.32,.31,1.36-.26,2.92-.4,4.1Z"/>
      <path class="cls-14" d="M187.08,371.27c6.91-3.06,14.54-6.82,22.46-9.79,3.85-1.44,5.22,2.31,6.53,5.22,1.25,2.78,1.3,5.55-1.64,6.99-7.21,3.53-14.54,6.83-21.93,9.99-2.73,1.17-4.87-.06-6.11-2.85-1.33-2.99-3.32-5.92,.69-9.56Z"/>
      <path class="cls-14" d="M371.43,263.99c-4.7,2.05-9.88,4.79-15.36,6.54-3.86,1.23-5.19-2.38-6.53-5.29-1.37-2.98-1.3-5.71,1.78-7.3,4.62-2.38,9.38-4.52,14.2-6.46,2.94-1.18,5.14,.12,6.44,3.05,1.34,3.02,3.11,5.97-.53,9.45Z"/>
      <path class="cls-14" d="M179.6,355.39c4.52-1.95,9.71-4.69,15.22-6.41,4.19-1.3,5.38,2.65,6.72,5.67,1.29,2.92,.71,5.45-2.1,6.88-4.52,2.29-9.16,4.37-13.87,6.25-2.86,1.14-5.31,.19-6.63-2.8-1.31-2.97-3.32-5.97,.67-9.59Z"/>
      <path class="cls-14" d="M384.51,283.75c5.05,7.79,4.25,10.77-1.74,13.15-3.05,1.22-5.99,2.73-9.04,3.96-4.26,1.71-5.92,.77-8.08-4.23-1.49-3.45-1.64-6.37,2.5-8.11,3.72-1.56,7.29-3.54,11.1-4.82,1.79-.6,3.99,.01,5.26,.05Z"/>
      <path class="cls-14" d="M215.24,323.84c3.25,3.85,3.38,8.57,.32,11.16-3.58,3.03-8.44,3.59-10.58,1.22-3.22-3.57-3.66-8.65-.95-10.89,4.46-3.69,8.86-4.27,11.21-1.49Z"/>
      <path class="cls-14" d="M233.18,345.92c-4.12,3.46-9.1,4.08-11.23,1.4-3.1-3.9-3.31-8.52-.5-10.91,3.97-3.36,9.07-3.82,11.24-1,2.83,3.68,3.05,8.36,.5,10.51Z"/>
      <path class="cls-14" d="M318.09,322.04c-3.23-4.28-3.28-7.86-.12-10.2,4.84-3.58,8.49-3.94,10.66-1.05,3.34,4.43,3.24,8.42-.27,11-4.36,3.21-7.97,3.3-10.28,.25Z"/>
      <path class="cls-14" d="M333.16,323.95c3.7-3.37,8.46-4.03,10.78-1.48,3.11,3.42,3.61,8.12,1.1,10.42-3.86,3.53-8.32,4.28-10.71,1.78-3.35-3.5-3.87-8.25-1.16-10.72Z"/>
      <path class="cls-14" d="M313.64,289.96c-3.74,3.25-9.24,4.02-11.25,1.57-2.66-3.25-2.84-8.77-.38-11.06,3.5-3.25,8.65-3.74,10.86-1.02,3.08,3.77,3.4,8.23,.76,10.52Z"/>
      <path class="cls-14" d="M314.02,309.04c-3.29,3.04-8.47,3.7-10.61,1.36-3.04-3.32-3.62-8.34-1.22-10.58,3.16-2.96,9.52-4.03,11.43-1.92,2.48,2.74,2.71,9.01,.4,11.14Z"/>
      <path class="cls-14" d="M236.71,348.82c3.46-3.13,7.86-3.73,10.12-1.38,3.06,3.18,3.69,8.34,1.29,10.54-3.9,3.57-8.96,4.32-11.2,1.66-3.12-3.71-3.21-8.11-.21-10.82Z"/>
      <path class="cls-14" d="M188.88,343.42c-3.04-3.44-3.6-8.39-1.21-10.59,3.54-3.25,8.57-3.68,10.84-.94,3.04,3.68,3.46,8.42,.93,10.56-3.59,3.05-8.34,3.48-10.56,.97Z"/>
      <path class="cls-14" d="M295.92,287.23c3.01,3.48,3.54,8.42,1.13,10.58-3.35,3.01-8.36,3.56-10.58,1.16-3.25-3.5-3.96-9.03-1.01-10.81,4.7-2.85,7.73-4.1,10.46-.93Z"/>
      <path class="cls-14" d="M328.76,272c3.18,3.58,3.7,8.14,1.2,10.46-3.37,3.13-8.24,3.79-10.5,1.42-3.24-3.4-3.79-8.56-1.17-10.83,3.61-3.12,8.22-3.58,10.47-1.05Z"/>
      <path class="cls-14" d="M346.11,275.05c-3.29,3.09-8.26,3.78-10.5,1.44-3.2-3.33-3.73-8.5-1.11-10.8,3.57-3.13,8.19-3.63,10.45-1.13,3.07,3.4,3.6,8.2,1.17,10.49Z"/>
      <path class="cls-14" d="M362.52,243.5c-2.22,2.29-5.72,2.94-7.37,1.36-2.37-2.25-2.91-5.89-1.14-7.6,2.42-2.33,5.67-2.83,7.34-1.14,2.28,2.3,2.81,5.68,1.17,7.38Z"/>
      <path class="cls-14" d="M220.86,317.54c3.52-3.08,8.35-3.62,10.53-1.17,3.22,3.62,3.61,8.55,.85,10.86-3.74,3.12-8.35,3.51-10.51,.88-3.04-3.7-3.42-8.32-.86-10.56Z"/>
      <path class="cls-14" d="M248.41,319.81c-3.64,3.12-8.6,3.78-10.42,.99-2.87-4.42-4.27-8.01-.79-10.74,3.99-3.14,8.13-3.47,10.41-.71,3.08,3.73,3.42,8.22,.8,10.46Z"/>
      <path class="cls-14" d="M216.56,353.55c-3.29,2.99-8.42,3.66-10.55,1.38-2.97-3.17-3.62-8.33-1.34-10.55,3.36-3.26,8.55-3.88,10.84-1.29,3.07,3.48,3.55,8.19,1.05,10.46Z"/>
      <path class="cls-14" d="M330.7,301.12c-3.47,3.14-8.33,3.71-10.56,1.25-3.02-3.34-3.53-8.38-1.08-10.6,3.4-3.07,8.33-3.61,10.57-1.15,3.13,3.44,3.62,8.2,1.07,10.5Z"/>
      <path class="cls-14" d="M182.05,339.07c3.12,3.34,3.82,8.18,1.51,10.47-3.21,3.18-8.45,3.72-10.79,1.12-3.15-3.5-3.66-8.16-1.15-10.4,3.54-3.15,8.11-3.67,10.43-1.19Z"/>
      <path class="cls-14" d="M279.76,294.74c3.18,3.71,3.84,8.5,1.01,10.38-4.51,3.01-8.04,4.22-10.71,.78-3.12-4.02-3.48-8.11-.7-10.37,3.9-3.17,8.08-3.49,10.4-.79Z"/>
      <path class="cls-14" d="M296.97,306.05c3.13,3.81,3.46,8.17,.8,10.44-3.55,3.04-8.32,3.52-10.47,1.06-3.26-3.72-3.61-8.5-.78-10.74,3.89-3.08,8.29-3.4,10.46-.77Z"/>
      <path class="cls-14" d="M249.27,338.4c-3.61,3.13-8.2,3.63-10.4,1.12-3.04-3.46-3.57-8.27-1.15-10.48,3.51-3.22,8.52-3.68,10.78-.98,3.18,3.79,3.49,7.98,.78,10.34Z"/>
      <path class="cls-14" d="M280.82,313.53c3.24,3.87,3.5,8.01,.65,10.36-3.88,3.19-8.09,3.48-10.4,.7-3.21-3.86-3.47-8.04-.64-10.37,3.87-3.19,8.06-3.47,10.39-.69Z"/>
      <path class="cls-14" d="M362.89,286.48c-3.65,3.2-8.15,3.66-10.45,1.07-3.13-3.52-3.57-8.18-.98-10.47,3.49-3.09,8.21-3.53,10.5-.99,3.18,3.54,3.59,8.06,.94,10.39Z"/>
      <path class="cls-14" d="M264.49,320.63c3.23,3.58,3.64,7.99,.96,10.33-3.66,3.2-8.23,3.69-10.45,1.14-3.11-3.59-3.53-8.2-.94-10.46,3.64-3.17,8.09-3.6,10.43-1.01Z"/>
      <path class="cls-14" d="M225.84,373.07c3.62-3.15,8.26-3.53,10.42-.86,2.89,3.58,3.28,8.05,.9,10.18-3.43,3.06-8.36,3.59-10.48,1.12-3.11-3.61-3.47-8.15-.83-10.44Z"/>
      <path class="cls-14" d="M263.5,301.92c3.14,3.43,3.71,8.11,1.28,10.41-3.27,3.1-8.16,3.79-10.43,1.46-3.24-3.32-3.8-8.4-1.2-10.74,3.56-3.2,8-3.68,10.34-1.13Z"/>
      <path class="cls-14" d="M268.88,334.18c3.62-3.17,8.15-3.57,10.41-.92,3.17,3.7,3.54,8.18,.87,10.38-3.59,2.95-7.98,3.39-10.15,1.01-3.1-3.4-3.63-8.29-1.13-10.47Z"/>
      <path class="cls-14" d="M378.19,268.83c3.24,3.76,3.59,8.09,.85,10.38-3.77,3.14-8.14,3.51-10.42,.88-3.17-3.67-3.51-8.02-.81-10.36,3.68-3.19,8.09-3.57,10.39-.9Z"/>
      <path class="cls-14" d="M327.17,330.49c3.21,3.57,3.69,8.2,1.07,10.39-3.55,2.96-7.93,3.47-10.12,1.17-3.05-3.2-3.7-8.3-1.34-10.47,3.47-3.2,8.06-3.68,10.39-1.08Z"/>
      <path class="cls-14" d="M377.27,318.17c-3.64,3.18-8.26,3.62-10.38,.99-2.94-3.65-3.37-7.96-1.01-10.13,3.42-3.15,8.24-3.73,10.46-1.25,3.09,3.45,3.51,8.14,.93,10.4Z"/>
      <path class="cls-14" d="M335.28,284.45c4.18-2.38,7.84-4.16,10.49-.98,3.15,3.78,3.68,8.02,1,10.38-3.59,3.17-8.16,3.63-10.46,1.07-3.16-3.52-3.62-8.21-1.03-10.48Z"/>
      <path class="cls-14" d="M220.79,389.84c-3.65,3.09-8.32,3.48-10.41,.86-3.1-3.89-3.33-8.23-.55-10.42,3.81-3.01,7.96-3.36,10.09-.85,3.19,3.75,3.55,8.14,.87,10.42Z"/>
      <path class="cls-14" d="M335.15,314.58c-3.08-3.65-3.42-8.2-.79-10.42,3.61-3.04,7.93-3.53,10.09-1.14,3.04,3.37,3.6,8.33,1.17,10.56-3.29,3.03-8.36,3.51-10.48,1Z"/>
      <path class="cls-14" d="M295.28,325.77c3.13,3.45,3.62,8.13,1.07,10.39-3.56,3.16-8.12,3.55-10.37,.89-2.94-3.48-3.43-7.96-1.12-10.12,3.29-3.06,8.19-3.61,10.41-1.17Z"/>
      <path class="cls-14" d="M263,340.47c3.12,3.47,3.65,8.33,1.14,10.44-3.47,2.91-8,3.4-10.2,1.11-2.92-3.05-3.62-8.42-1.36-10.54,3.27-3.06,8.15-3.54,10.42-1.01Z"/>
      <path class="cls-14" d="M193.36,387.81c3.44-3.07,8.33-3.58,10.44-1.08,3.11,3.67,3.48,8.14,.85,10.42-3.55,3.07-7.77,3.54-10.03,1.12-3.14-3.37-3.73-8.25-1.26-10.46Z"/>
      <path class="cls-14" d="M311.69,318.66c3.15,3.79,3.41,8.01,.64,10.32-3.85,3.21-7.93,3.41-10.24,.51-3-3.76-3.48-8.12-.71-9.96,4.25-2.82,7.82-4.13,10.31-.87Z"/>
      <path class="cls-14" d="M350.33,297.02c3.53-3.2,7.99-3.61,10.31-.96,2.97,3.39,3.53,7.89,1.27,10.09-3.1,3.03-8.28,3.68-10.47,1.31-3.06-3.31-3.58-8.21-1.12-10.45Z"/>
      <path class="cls-14" d="M219.92,356.63c3.57-3.14,8.27-3.55,10.43-.91,2.95,3.6,3.41,7.93,1.07,10.14-3.25,3.07-8.23,3.63-10.44,1.18-3.11-3.44-3.59-8.17-1.05-10.4Z"/>
      <path class="cls-14" d="M395.85,310.07c-3.76,1.69-6.67,3.27-9.77,4.2-.79,.24-2.63-1.41-3.18-2.57-.41-.87,.09-2.98,.85-3.45,2.51-1.54,5.26-2.8,8.07-3.68,.89-.28,2.69,.71,3.29,1.63,.7,1.07,.55,2.7,.73,3.87Z"/>
      <path class="cls-14" d="M363.65,324.77c-3.77,1.67-6.82,3.25-10.05,4.28-.67,.22-2.47-1.41-2.87-2.5-.36-.99,.09-3.06,.86-3.54,2.5-1.55,5.26-2.8,8.07-3.67,.87-.27,2.6,.78,3.26,1.71,.68,.95,.52,2.49,.72,3.72Z"/>
    </g>
  </g>
  <path class="cls-9" d="M91.75,215.26c1.22-1.07,2.31-1.73,2.88-2.05,.72-.41,1.37-.7,1.88-.9l151.27-70.59c15.64-7.32,38.96-18.11,67.81-31.01,3.41-1.42,6.81-2.84,10.22-4.26,1.47-.12,3.85-.08,5.93,1.31,2.62,1.76,5.02,8.31,5.35,9.33,6.21,19.1,8.33,23.7,14.33,40.84,4.03,11.52,8.38,21.78,13.66,37.76,1.9,5.75,3.35,10.5,4.28,13.62-.21,1.86-.81,4.33-2.61,6.39-2,2.28-4.57,3.01-5.12,3.18-5.03,1.6-60.38,27.53-140.24,65.34-24.42,11.51-48.84,23.01-73.26,34.52-.31,.13-3.4,1.39-5.85-.31-.9-.62-1.36-1.41-1.51-1.68-1.5-2.67-20.3-35.81-46.09-81.34-1.99-3.9-3.99-7.81-5.98-11.71-.34-1.05-.78-3.03,.06-4.99,.56-1.31,1.47-2.11,2.98-3.44Z"/>
  <path class="cls-7" d="M109.5,214.92c1.07-.94,2.02-1.51,2.51-1.79,.63-.35,1.2-.61,1.64-.79l132.2-61.69c13.67-6.4,34.05-15.83,59.26-27.1,2.98-1.24,5.96-2.48,8.93-3.72,1.28-.11,3.36-.07,5.18,1.15,2.29,1.53,4.39,7.26,4.68,8.15,5.43,16.69,7.28,20.71,12.53,35.69,3.52,10.07,7.33,19.03,11.94,33,1.66,5.03,2.93,9.18,3.74,11.9-.18,1.62-.71,3.78-2.28,5.58-1.75,2-4,2.63-4.47,2.78-4.4,1.4-52.77,24.06-122.56,57.1-21.34,10.06-42.68,20.11-64.03,30.17-.27,.12-2.97,1.21-5.11-.27-.78-.54-1.19-1.23-1.32-1.47-1.31-2.33-17.74-31.29-40.28-71.08-1.74-3.41-3.48-6.82-5.23-10.24-.3-.92-.68-2.65,.06-4.37,.49-1.14,1.28-1.84,2.6-3.01Z"/>
  <path class="cls-14" d="M179.99,304.33l1.69,3.47c.29,.59,.99,.83,1.58,.56l152.27-72c.59-.28,.85-.98,.58-1.57l-1.15-2.55c-.27-.61-.99-.87-1.59-.59l-152.82,71.08c-.61,.28-.86,1.01-.57,1.61Z"/>
  <path class="cls-14" d="M162.17,328.57l2,4.06c.37,.76,1.28,1.09,2.03,.74l183.02-84.97c.75-.35,1.07-1.24,.73-2.01l-1.34-2.94c-.36-.78-1.27-1.13-2.04-.78l-183.68,83.85c-.77,.35-1.1,1.28-.71,2.05Z"/>
  <rect class="cls-4" x="269.51" y="359.05" width="70.2" height="42.88" rx="3.24" ry="3.24" transform="translate(-130.29 160.44) rotate(-24.48)"/>
  <rect class="cls-2" x="271.81" y="361.26" width="65.6" height="38.44" rx="3.24" ry="3.24" transform="translate(-130.29 160.44) rotate(-24.48)"/>
  <path class="cls-3" d="M293.18,422.14c-1.17-2.57,.7-7.5,3.66-8.84l38.23-17.41c2.95-1.35,7.93,.14,9.11,2.71"/>
  <polygon class="cls-13" points="237.75 154.71 252.66 147.52 228.76 272.37 213.14 279.74 237.75 154.71"/>
  <path class="cls-13" d="M314.4,231.78l-72.7,34.47c7.17-41.06,15.1-82.92,22.27-123.98,16.74-7.81,31.73-15.78,47.79-22.71,1.37-.34,3.88-.72,6.27,.55,2.62,1.4,3.7,4.06,4.43,5.85,2.17,5.32,4.23,12.93,6.89,19.5l-14.94,86.32Z"/>
  <rect class="cls-16" x="261.96" y="10.13" width="113.9" height="67.5" rx="8.92" ry="8.92" transform="translate(17.92 -70.29) rotate(12.94)"/>
  <rect class="cls-5" x="260.93" y="14.6" width="113.9" height="67.5" rx="8.92" ry="8.92" transform="translate(18.9 -69.95) rotate(12.94)"/>
  <rect class="cls-8" x="271.24" y="19.3" width="90.06" height="57.35" rx="2.53" ry="2.53" transform="translate(18.94 -70.02) rotate(13.02)"/>
  <rect class="cls-8" x="361.8" y="55.7" width="10.17" height="10.17" rx="3.52" ry="3.52" transform="translate(225.5 404.75) rotate(-77.06)"/>
  <polygon class="cls-12" points="273.57 33.52 275.94 23.02 324.67 79.4 309.17 75.69 273.57 33.52"/>
  <path class="cls-12" d="M277.26,17.83l1.12-5.58c.28-1.38,1.65-2.25,3.02-1.91l46.46,11.55c.45,.11,.86,.35,1.19,.69l30.49,31.8c.59,.61,1.24,1.02,1.03,1.85l-6.5,28.13c-.33,1.31-2.3,1.43-3.62,1.12l-18.78-4.44c-.5-.12-.96-.39-1.3-.78l-52.55-60.31c-.5-.58-.71-1.36-.56-2.11Z"/>
  <path class="cls-10" d="M219.3,197.35c1.18-.54,2.18-.99,3.28-1.49,.48,1.05,.95,2.08,1.48,3.25,.99-.37,1.88-.69,2.86-1.06-.55-1.2-1.03-2.26-1.55-3.41,1.14-.52,2.19-1,3.42-1.56,.44,.96,.94,1.93,1.32,2.94,.31,.83,.74,1.09,1.66,1.03,5.33-.32,9.62,2.23,11.87,7.01-1.37,.62-2.74,1.25-4.25,1.93-1.36-2.49-3.37-4.15-6.56-4.19,.18,.45,.3,.81,.46,1.15,1.45,3.19,2.93,6.37,4.34,9.58,.35,.81,.74,.99,1.65,.97,2.06-.06,4.21-.16,6.18,.33,6.86,1.71,9.19,10.18,5.75,15.68-.82,1.31-1.9,2.5-3.04,3.56-.7,.65-.76,1.1-.34,1.87,.48,.89,.85,1.84,1.3,2.82-1.17,.53-2.23,1.01-3.39,1.54-.52-1.14-1.02-2.23-1.54-3.38l-2.74,1.25c.52,1.13,1.01,2.23,1.54,3.38-1.14,.52-2.16,.98-3.34,1.52-.46-1-.94-1.98-1.35-2.98-.26-.64-.57-.86-1.32-.76-5.84,.76-10.58-1.14-14.03-6-.34-.48-.6-1.01-.96-1.61,1.4-.76,2.73-1.48,4.14-2.25,2.08,3.77,5.2,5.51,9.57,5.24-.11-.37-.17-.66-.29-.92-1.79-3.94-3.61-7.88-5.36-11.83-.32-.72-.7-.89-1.43-.77-.96,.15-1.95,.22-2.93,.24-3.67,.09-6.58-1.3-8.51-4.5-2.11-3.5-2.31-7.08-.13-10.59,.84-1.35,1.96-2.54,3.11-3.65,.6-.59,.72-.98,.34-1.68-.44-.82-.79-1.7-1.22-2.63Zm25.98,31.86c2.8-2.21,3.49-5.69,1.79-8.71-1.09-1.93-4.39-3.02-6.75-2.19,1.64,3.61,3.28,7.21,4.96,10.9Zm-3.12,2.27c-1.88-4.13-3.73-8.2-5.6-12.25-.08-.17-.45-.33-.65-.3-.8,.12-1.6,.32-2.47,.51,2.03,4.45,4.02,8.82,6.04,13.26,.9-.41,1.73-.79,2.68-1.22Zm-19.15-25.88c-2.86,2.39-3.41,5.09-1.77,7.83,1.18,1.96,3.9,2.85,6.2,1.9-1.47-3.22-2.93-6.43-4.43-9.74Zm5.82-3.26c-.94,.43-1.75,.8-2.63,1.2,1.72,3.77,3.42,7.51,5.15,11.32,.98-.16,1.95-.31,2.96-.47-1.85-4.06-3.63-7.98-5.48-12.04Z"/>
  <g class="cls-18">
    <path class="cls-10" d="M492.27,157.99c1.7,1.82,3.13,3.36,4.72,5.07-1.63,1.52-3.21,2.99-5.02,4.68,1.27,1.58,2.41,3,3.67,4.57,1.85-1.73,3.49-3.26,5.26-4.9,1.63,1.75,3.15,3.38,4.93,5.29-1.48,1.38-2.94,2.89-4.55,4.19-1.32,1.07-1.53,2.01-.87,3.65,3.83,9.52,1.81,18.89-5.53,25.92-1.97-2.12-3.95-4.24-6.12-6.56,3.72-3.99,5.51-8.68,3.64-14.52-.71,.6-1.28,1.05-1.81,1.54-4.93,4.59-9.82,9.22-14.81,13.75-1.26,1.14-1.36,1.95-.75,3.6,1.36,3.72,2.87,7.58,3.18,11.46,1.06,13.55-12.95,22.97-25.07,20.06-2.89-.69-5.72-1.94-8.34-3.36-1.62-.88-2.48-.72-3.62,.52-1.32,1.42-2.83,2.68-4.34,4.09-1.69-1.81-3.21-3.44-4.88-5.24,1.76-1.64,3.45-3.22,5.23-4.87-1.36-1.46-2.57-2.76-3.95-4.24l-5.22,4.87c-1.64-1.76-3.11-3.33-4.81-5.16,1.55-1.45,3.04-2.92,4.62-4.27,1.01-.86,1.22-1.56,.58-2.87-4.96-10.19-4.37-19.99,2.38-29.24,.66-.91,1.47-1.71,2.35-2.73,2.23,2.08,4.36,4.07,6.63,6.18-5.61,6.09-6.87,12.85-3.72,20.64,.6-.43,1.09-.71,1.5-1.08,6.1-5.67,12.16-11.38,18.3-16.99,1.11-1.02,1.19-1.81,.53-3.08-.87-1.66-1.59-3.42-2.23-5.18-2.4-6.63-1.64-12.8,3.01-18.26,5.09-5.98,11.5-8.54,19.23-6.7,2.96,.71,5.83,2.03,8.56,3.44,1.44,.74,2.22,.72,3.27-.4,1.23-1.31,2.61-2.47,4.06-3.82Zm-42.22,66.8c5.73,3.77,12.51,2.88,16.97-2.05,2.86-3.16,2.82-9.85-.13-13.65-5.57,5.19-11.14,10.38-16.84,15.7Zm-6.04-4.3c6.39-5.95,12.67-11.8,18.92-17.69,.26-.25,.33-1.01,.15-1.36-.71-1.39-1.56-2.71-2.44-4.19-6.87,6.41-13.63,12.7-20.49,19.1,1.29,1.39,2.49,2.68,3.86,4.14Zm35.48-50.7c-6.11-3.76-11.36-3.12-15.36,1.55-2.86,3.34-2.81,8.84,.32,12.47,4.97-4.63,9.94-9.27,15.04-14.02Zm9.5,8.62c-1.36-1.46-2.52-2.71-3.78-4.06-5.83,5.44-11.61,10.82-17.49,16.3,.88,1.68,1.76,3.36,2.67,5.1,6.27-5.85,12.33-11.49,18.61-17.34Z"/>
  </g>
  <g class="cls-18">
    <path class="cls-10" d="M415.58,152.93l2.41,.94-.93,2.39c.68,.33,1.3,.62,1.98,.94l.97-2.51c.84,.32,1.61,.63,2.52,.98-.27,.71-.52,1.45-.85,2.15-.27,.57-.19,.93,.3,1.37,2.84,2.58,3.68,6.07,2.35,9.63-1.01-.39-2.02-.78-3.13-1.22,.6-1.95,.44-3.82-1.14-5.48-.14,.32-.26,.56-.36,.81-.92,2.35-1.81,4.7-2.75,7.04-.24,.59-.14,.88,.33,1.34,1.06,1.03,2.2,2.08,2.93,3.34,2.56,4.39-.62,9.84-5.18,10.83-1.09,.24-2.24,.28-3.36,.22-.69-.03-.95,.16-1.14,.76-.21,.69-.52,1.36-.8,2.08-.86-.34-1.64-.64-2.5-.97l.97-2.49-2.02-.78-.97,2.49c-.84-.33-1.59-.62-2.46-.95,.29-.74,.55-1.48,.86-2.19,.2-.45,.16-.72-.27-1.06-3.33-2.63-4.72-6.02-3.95-10.24,.08-.41,.22-.81,.35-1.3,1.09,.34,2.13,.66,3.24,1.01-.9,2.96-.22,5.44,2.1,7.55,.13-.24,.25-.42,.33-.61,1.13-2.9,2.24-5.81,3.4-8.7,.21-.52,.11-.8-.32-1.12-.56-.42-1.09-.89-1.59-1.38-1.89-1.84-2.63-4.04-1.96-6.64,.74-2.84,2.48-4.75,5.39-5.38,1.11-.24,2.29-.27,3.44-.23,.6,.02,.86-.12,1.04-.67,.2-.64,.48-1.26,.75-1.95Zm-3.36,29.36c2.54,.34,4.68-1.06,5.38-3.45,.45-1.53-.65-3.78-2.26-4.58-1.03,2.66-2.06,5.31-3.12,8.03Zm-2.73-.47c1.18-3.04,2.35-6.03,3.49-9.03,.05-.13-.05-.4-.17-.48-.47-.35-.97-.66-1.5-1.01-1.27,3.27-2.52,6.49-3.79,9.76l1.97,.77Zm3.7-22.84c-2.67-.27-4.33,.8-4.92,3.02-.42,1.59,.49,3.43,2.13,4.15,.92-2.37,1.84-4.74,2.79-7.17Zm4.6,1.36c-.69-.27-1.29-.5-1.93-.75-1.08,2.78-2.15,5.53-3.24,8.33,.57,.42,1.14,.84,1.73,1.28,1.16-2.99,2.28-5.87,3.45-8.87Z"/>
  </g>
  <g class="cls-18">
    <path class="cls-10" d="M495.14,244.64c.24,.9,.44,1.66,.67,2.5l-2.48,.66c.14,.74,.27,1.41,.41,2.15,.91-.24,1.73-.46,2.6-.69l.7,2.61c-.73,.2-1.48,.44-2.24,.58-.62,.12-.86,.39-.93,1.05-.41,3.81-2.73,6.55-6.39,7.58-.28-1.05-.56-2.09-.86-3.24,1.93-.66,3.35-1.89,3.76-4.15-.34,.07-.61,.12-.87,.19-2.43,.65-4.86,1.32-7.31,1.93-.62,.15-.79,.41-.88,1.06-.21,1.47-.39,3-.97,4.34-2.03,4.66-8.31,5.3-11.8,2.2-.83-.74-1.55-1.65-2.16-2.58-.38-.57-.69-.67-1.29-.47-.69,.24-1.4,.39-2.15,.59-.24-.9-.45-1.7-.69-2.59l2.58-.69c-.19-.72-.36-1.36-.56-2.09l-2.58,.69c-.23-.87-.44-1.65-.68-2.55,.77-.2,1.52-.43,2.28-.6,.48-.11,.68-.3,.7-.84,.16-4.23,2.08-7.36,5.93-9.23,.38-.18,.78-.31,1.26-.49,.37,1.08,.72,2.11,1.1,3.21-2.92,1.02-4.53,3.03-4.86,6.15,.27-.04,.49-.04,.69-.09,3.01-.8,6.01-1.61,9.03-2.39,.55-.14,.71-.39,.72-.92,0-.7,.08-1.41,.18-2.1,.38-2.61,1.71-4.51,4.21-5.5,2.73-1.08,5.3-.79,7.52,1.18,.85,.75,1.57,1.7,2.22,2.64,.34,.5,.61,.63,1.15,.44,.64-.22,1.3-.36,2.01-.55Zm-25.69,14.61c1.23,2.25,3.62,3.15,5.96,2.31,1.5-.54,2.66-2.75,2.36-4.53-2.75,.73-5.5,1.47-8.32,2.22Zm-1.24-2.48c3.16-.84,6.26-1.66,9.36-2.51,.13-.04,.29-.28,.29-.42,0-.58-.04-1.17-.07-1.81-3.4,.9-6.73,1.79-10.12,2.7,.18,.69,.35,1.32,.54,2.05Zm20.63-10.48c-1.35-2.32-3.2-3.03-5.34-2.19-1.53,.6-2.48,2.42-2.09,4.17,2.46-.65,4.91-1.31,7.43-1.98Zm1.62,4.52l-.53-2c-2.88,.77-5.73,1.53-8.64,2.3,0,.71-.01,1.42-.02,2.15,3.1-.83,6.09-1.62,9.19-2.45Z"/>
  </g>
  <g class="cls-17">
    <path class="cls-10" d="M30.4,351.37l1.83-.83,.82,1.81c.55-.2,1.05-.39,1.6-.59-.3-.67-.57-1.26-.86-1.9l1.91-.87c.24,.54,.52,1.07,.73,1.64,.17,.46,.41,.61,.92,.58,2.97-.18,5.36,1.24,6.62,3.91-.76,.35-1.53,.7-2.37,1.08-.76-1.39-1.88-2.32-3.66-2.34,.1,.25,.17,.45,.26,.64,.81,1.78,1.63,3.55,2.42,5.34,.2,.45,.41,.55,.92,.54,1.15-.03,2.35-.09,3.45,.18,3.83,.96,5.13,5.68,3.21,8.75-.46,.73-1.06,1.39-1.69,1.99-.39,.36-.43,.62-.19,1.04,.27,.49,.48,1.02,.73,1.57-.66,.3-1.24,.57-1.89,.86-.29-.64-.57-1.25-.86-1.89l-1.53,.7,.86,1.88c-.63,.29-1.2,.55-1.86,.85-.26-.56-.52-1.1-.75-1.66-.14-.36-.32-.48-.74-.42-3.26,.42-5.9-.64-7.83-3.35-.19-.27-.34-.56-.54-.9,.78-.42,1.52-.83,2.31-1.25,1.16,2.11,2.9,3.07,5.34,2.92-.06-.2-.09-.37-.16-.51-1-2.2-2.01-4.39-2.99-6.6-.18-.4-.39-.49-.8-.43-.54,.09-1.09,.12-1.63,.14-2.05,.05-3.67-.73-4.75-2.51-1.18-1.95-1.29-3.95-.07-5.91,.47-.75,1.1-1.42,1.73-2.04,.34-.33,.4-.55,.19-.94-.25-.46-.44-.95-.68-1.47Zm14.49,17.77c1.56-1.23,1.95-3.18,1-4.86-.61-1.08-2.45-1.68-3.77-1.22,.92,2.01,1.83,4.02,2.77,6.08Zm-1.74,1.27c-1.05-2.31-2.08-4.57-3.12-6.84-.04-.1-.25-.18-.36-.17-.45,.07-.89,.18-1.38,.29,1.13,2.48,2.24,4.92,3.37,7.4,.5-.23,.97-.44,1.49-.68Zm-10.68-14.43c-1.6,1.34-1.9,2.84-.99,4.37,.66,1.1,2.17,1.59,3.46,1.06-.82-1.79-1.63-3.59-2.47-5.43Zm3.25-1.82l-1.46,.67c.96,2.11,1.91,4.19,2.88,6.31,.54-.09,1.09-.17,1.65-.26-1.03-2.26-2.03-4.45-3.06-6.72Z"/>
  </g>
  <path class="cls-10" d="M312.68,46.97l.18-.79,.78,.18c.07-.23,.13-.43,.2-.65l-.82-.19,.19-.82c.23,.05,.47,.1,.7,.17,.19,.06,.29,.02,.41-.15,.67-.99,1.71-1.4,2.86-1.15l-.24,1.02c-.63-.1-1.2,.03-1.64,.59,.1,.03,.18,.06,.27,.07,.76,.18,1.53,.35,2.29,.54,.19,.05,.28,0,.4-.16,.27-.37,.54-.77,.9-1.05,1.24-.98,3.06-.25,3.57,1.12,.12,.32,.18,.68,.22,1.02,.02,.21,.09,.29,.29,.32,.22,.03,.44,.1,.68,.15l-.19,.81-.81-.19-.15,.66,.81,.19-.18,.8c-.24-.06-.48-.1-.71-.17-.15-.04-.23-.02-.31,.13-.66,1.14-1.64,1.72-2.98,1.67-.13,0-.26-.03-.42-.05,.06-.35,.11-.69,.17-1.04,.95,.15,1.69-.17,2.23-.98-.08-.03-.14-.06-.2-.07-.94-.22-1.89-.43-2.83-.66-.17-.04-.25,0-.33,.15-.1,.19-.23,.38-.36,.55-.48,.66-1.13,.99-1.96,.9-.91-.1-1.57-.55-1.9-1.42-.12-.33-.18-.7-.23-1.05-.02-.19-.08-.26-.25-.29-.21-.03-.41-.09-.63-.14Zm9.2-.27c0-.8-.54-1.4-1.3-1.5-.49-.07-1.13,.37-1.31,.9,.86,.2,1.73,.4,2.61,.6Zm-.02,.86c-.99-.23-1.96-.46-2.94-.68-.04,0-.12,.03-.14,.07-.09,.16-.16,.33-.25,.51l3.18,.73,.15-.64Zm-7.2-.13c.03,.83,.44,1.3,1.15,1.38,.51,.06,1.04-.3,1.18-.84-.77-.18-1.54-.36-2.33-.54Zm.21-1.48l-.15,.63c.9,.21,1.8,.42,2.71,.63,.11-.19,.21-.39,.32-.59-.97-.22-1.91-.44-2.89-.67Z"/>
  <g id="X3XJbC.tif">
    <path class="cls-10" d="M333.91,40.87c-.21-.1-.4-.22-.62-.29-1.46-.54-2.92-1.07-4.39-1.6-.49-.18-.78-.05-.96,.45-.57,1.54-1.15,3.07-1.72,4.61-.14,.37-.06,.65,.22,.83,.22,.14,.44,.1,.66,0,.46-.21,.92-.42,1.38-.64,.06-.03,.12-.05,.19-.09,.15,.33,.32,.64,.44,.97,.37,.95,.61,1.94,.63,2.97,.07,3.12-1.12,5.67-3.57,7.63-.7,.56-1.51,.96-2.32,1.32-.21,.09-.42,.18-.61,.3-.27,.16-.37,.47-.24,.76,.34,.74,.68,1.47,1.02,2.21,.13,.29,.38,.36,.67,.36,.64-.29,1.28-.59,1.92-.88,.04-.03,.08-.07,.13-.1,.87-.46,1.67-1.03,2.4-1.69,1.86-1.67,3.12-3.71,3.8-6.1,.48-1.7,.6-3.42,.36-5.17-.17-1.29-.56-2.51-1.1-3.69-.06-.14-.13-.28-.2-.43,.51-.24,1-.47,1.5-.69,.35-.15,.55-.38,.51-.78-.04-.09-.08-.17-.12-.26Z"/>
  </g>
  <g id="X3XJbC.tif-2" data-name="X3XJbC.tif">
    <path class="cls-10" d="M304.23,55.83c.22,.09,.43,.19,.66,.26,1.55,.44,3.09,.88,4.64,1.32,.52,.15,.8,0,.95-.53,.46-1.63,.93-3.26,1.39-4.89,.11-.39,0-.68-.29-.84-.24-.13-.46-.07-.68,.05-.46,.25-.91,.51-1.37,.76-.06,.03-.11,.06-.18,.1-.19-.33-.38-.64-.53-.96-.46-.95-.79-1.95-.9-3.01-.33-3.22,.68-5.94,3.04-8.15,.68-.64,1.47-1.1,2.28-1.54,.2-.11,.41-.22,.6-.36,.27-.19,.34-.52,.18-.8-.41-.74-.82-1.47-1.23-2.2-.16-.28-.42-.35-.72-.32-.63,.35-1.27,.71-1.9,1.06-.04,.04-.08,.08-.12,.11-.86,.54-1.63,1.19-2.33,1.93-1.77,1.87-2.91,4.07-3.41,6.59-.36,1.79-.33,3.58,.06,5.36,.29,1.31,.78,2.55,1.43,3.73,.08,.14,.15,.27,.24,.42-.51,.28-.99,.56-1.48,.82-.34,.18-.53,.44-.46,.84,.05,.09,.1,.17,.14,.26Z"/>
  </g>
  <g id="X3XJbC.tif-3" data-name="X3XJbC.tif" class="cls-19">
    <path class="cls-10" d="M74,378.67c-.14-.53-.23-1.08-.42-1.6-1.29-3.54-2.6-7.07-3.9-10.6-.44-1.19-1.12-1.51-2.33-1.08-3.73,1.34-7.46,2.69-11.19,4.03-.9,.32-1.3,.9-1.18,1.69,.09,.62,.5,.98,1.03,1.23,1.11,.52,2.22,1.04,3.33,1.55,.14,.07,.28,.13,.45,.21-.37,.8-.69,1.59-1.09,2.32-1.17,2.18-2.62,4.15-4.48,5.8-5.64,5.02-12.21,6.8-19.66,5.35-2.14-.42-4.12-1.29-6.07-2.22-.49-.24-.99-.48-1.51-.65-.73-.25-1.45,.06-1.77,.75-.84,1.77-1.66,3.55-2.48,5.33-.32,.69-.08,1.27,.4,1.8,1.54,.72,3.09,1.44,4.63,2.16,.12,.03,.26,.04,.37,.09,2.22,.88,4.51,1.46,6.87,1.78,5.99,.82,11.72-.03,17.2-2.52,3.89-1.76,7.25-4.25,10.1-7.41,2.1-2.33,3.77-4.95,5.09-7.79,.16-.33,.31-.66,.48-1.03,1.24,.58,2.43,1.11,3.61,1.69,.82,.4,1.57,.41,2.23-.27,.1-.21,.19-.42,.29-.62Z"/>
  </g>
  <g id="X3XJbC.tif-4" data-name="X3XJbC.tif" class="cls-19">
    <path class="cls-10" d="M0,347.29c.18,.54,.32,1.1,.56,1.61,1.6,3.55,3.21,7.08,4.82,10.62,.54,1.2,1.27,1.47,2.47,.92,3.73-1.69,7.46-3.39,11.19-5.08,.9-.41,1.27-1.04,1.09-1.85-.14-.63-.59-.97-1.16-1.18-1.18-.45-2.36-.89-3.54-1.33-.15-.06-.3-.11-.48-.18,.32-.86,.59-1.69,.94-2.49,1.04-2.34,2.38-4.5,4.16-6.36,5.41-5.65,12.02-8.02,19.79-7.14,2.23,.25,4.33,.99,6.41,1.8,.52,.2,1.05,.41,1.6,.55,.77,.2,1.48-.18,1.76-.92,.72-1.9,1.44-3.81,2.14-5.71,.28-.74-.02-1.32-.55-1.83-1.64-.62-3.28-1.23-4.92-1.85-.13-.02-.27-.02-.39-.06-2.34-.73-4.75-1.14-7.19-1.28-6.21-.35-12.04,.99-17.48,4.01-3.86,2.14-7.12,4.98-9.81,8.49-1.98,2.58-3.49,5.42-4.64,8.46-.13,.36-.27,.71-.41,1.1-1.32-.49-2.59-.95-3.84-1.45-.88-.35-1.64-.3-2.27,.47-.08,.22-.17,.44-.25,.67Z"/>
  </g>
  <path class="cls-10" d="M176.19,286.34c-.28-.37-1.16-1.4-2.71-1.57-1.24-.14-2.21,.34-2.54,.52,.02-.16,.03-.39,0-.65-.17-1.51-1.55-2.63-2.77-3.1-2.16-.84-4.17,.25-4.33,.34-.09,.05-2.27,1.32-2.52,3.59-.06,.54,0,.99,.07,1.31-.37-.01-.99,.01-1.7,.28-.36,.13-1.23,.51-1.94,1.4-.26,.32-1.03,1.4-.89,2.84,.07,.72,.35,1.26,.53,1.56-.26,.1-.64,.28-1.01,.61-1,.9-1.05,2.14-1.05,2.41-.01,.32-.03,1.42,.82,2.34,.07,.07,1.05,1.1,2.61,1.04,.52-.02,.94-.16,1.21-.27l6.72-3.13-1.51-3.25-1.46,.64,.82-5.05,4.4,2.68-1.41,.65,1.5,3.24,.05-.02c1.92-.87,3.83-1.75,5.75-2.62,.34-.2,.92-.6,1.41-1.31,.18-.26,.62-.9,.72-1.82,.16-1.39-.57-2.39-.77-2.65Z"/>
  <path class="cls-11" d="M134.17,78.75c-1.58-2.12-6.51-7.94-15.27-9.01-7.04-.85-12.52,1.85-14.38,2.86,.11-.91,.19-2.19,.03-3.7-.91-8.55-8.69-14.96-15.57-17.67-12.23-4.83-23.61,1.25-24.55,1.77-.52,.29-12.87,7.39-14.41,20.27-.36,3.04-.03,5.61,.36,7.41-2.09-.08-5.61,.05-9.62,1.52-2.05,.75-7.01,2.86-11.02,7.88-1.46,1.83-5.89,7.92-5.15,16.05,.37,4.09,1.91,7.15,2.97,8.88-1.49,.56-3.65,1.57-5.74,3.43-5.71,5.08-5.99,12.1-6.05,13.6-.07,1.82-.23,8.05,4.54,13.28,.38,.42,5.92,6.29,14.75,5.97,2.96-.11,5.34-.87,6.85-1.48l38.15-17.52-8.45-18.45-8.26,3.56,4.82-28.59,24.8,15.31-8.01,3.65,8.39,18.42,.28-.13c10.88-4.89,21.76-9.77,32.64-14.66,1.91-1.11,5.25-3.38,8.04-7.35,1.02-1.45,3.52-5.09,4.13-10.27,.93-7.86-3.17-13.56-4.27-15.04Z"/>
</svg>