<?xml version="1.0" encoding="UTF-8"?>
<svg id="Ebene_1" data-name="Ebene 1" xmlns="http://www.w3.org/2000/svg" viewBox="0 0 566.65 505.24">
  <defs>
    <style>
      .cls-1, .cls-2 {
        fill: none;
        stroke: #ffde00;
        stroke-miterlimit: 10;
        stroke-width: 3px;
      }

      .cls-3, .cls-4 {
        fill: #ffde00;
      }

      .cls-5 {
        fill: #fff;
      }

      .cls-6 {
        fill: #b2b2b2;
      }

      .cls-7 {
        fill: #bbb;
      }

      .cls-8 {
        fill: #cfcfce;
      }

      .cls-9 {
        fill: #dde2e0;
      }

      .cls-10 {
        fill: #dadada;
      }

      .cls-11 {
        fill: #103e4e;
      }

      .cls-12 {
        fill: #415d68;
      }

      .cls-13 {
        fill: #1d1d1b;
      }

      .cls-14 {
        fill: #536d77;
      }

      .cls-15 {
        fill: #395b6a;
      }

      .cls-16 {
        fill: #3c3c3b;
      }

      .cls-2, .cls-17 {
        opacity: .45;
      }

      .cls-18 {
        opacity: .32;
      }

      .cls-18, .cls-19 {
        fill: #706f6f;
      }

      .cls-20 {
        opacity: .75;
      }

      .cls-4 {
        opacity: .41;
      }

      .cls-19 {
        opacity: .37;
      }
    </style>
  </defs>
  <rect class="cls-4" x="390.48" y="186.51" width="37.46" height="9.44" transform="translate(108.44 528.23) rotate(-73.3)"/>
  <rect class="cls-4" x="406.19" y="190.87" width="38.43" height="9.44" transform="translate(115.81 546.84) rotate(-73.3)"/>
  <rect class="cls-4" x="431.71" y="189.07" width="62.37" height="9.44" transform="translate(144.25 581.46) rotate(-73.3)"/>
  <rect class="cls-4" x="437.59" y="179.3" width="93.37" height="9.44" transform="translate(168.85 594.99) rotate(-73.3)"/>
  <rect class="cls-4" x="453.62" y="184.11" width="93.37" height="9.44" transform="translate(175.66 613.76) rotate(-73.3)"/>
  <rect class="cls-4" x="465.39" y="181.09" width="110.99" height="9.44" transform="translate(193.22 631.32) rotate(-73.3)"/>
  <rect class="cls-4" x="473.92" y="174.29" width="137.02" height="9.44" transform="translate(215.09 647.12) rotate(-73.3)"/>
  <rect class="cls-4" x="420.51" y="191.48" width="46.85" height="9.44" transform="translate(128.44 565.03) rotate(-73.3)"/>
  <rect class="cls-10" x="216.38" y="246.51" width="252.78" height="156.09" rx="10.49" ry="10.49" transform="translate(-104.59 173.9) rotate(-24.82)"/>
  <rect class="cls-18" x="194.77" y="251.27" width="252.78" height="53.15" rx="10.49" ry="10.49" transform="translate(-86.98 160.51) rotate(-24.82)"/>
  <path class="cls-5" d="M145.51,196c1.23-1.07,2.32-1.72,2.88-2.04,.72-.41,1.37-.7,1.87-.9l150.71-70.77c15.59-7.34,38.82-18.16,67.55-31.1,3.39-1.43,6.78-2.85,10.17-4.28,1.45-.13,3.8-.12,5.82,1.24,2.54,1.7,3.26,4.64,3.52,5.66,4.39,17.22,11.46,33.56,17.03,50.41,3.73,11.28,5.6,14.39,10.47,30.06,1.75,5.64,3.08,10.29,3.93,13.35-.25,1.83-.89,4.26-2.71,6.3-2.02,2.26-4.58,3-5.11,3.17-5,1.62-60.14,27.62-139.72,65.5-24.33,11.53-48.67,23.07-73,34.6-.31,.13-3.39,1.4-5.76-.25-.87-.6-1.31-1.37-1.45-1.64-1.43-2.61-19.25-35.01-43.73-79.53-1.88-3.82-3.77-7.64-5.65-11.46-.31-1.03-.7-2.97,.17-4.91,.58-1.29,1.49-2.08,3.01-3.41Z"/>
  <g id="Og7eq6.tif">
    <g>
      <path class="cls-16" d="M367.17,334.03c-3.59,1.61-6.46,2.87-9.31,4.18-18.04,8.3-36.04,16.65-54.13,24.84-1.84,.83-5.43,1.56-6,.76-1.99-2.79-3.17-6.22-4.26-9.54-.18-.56,1.46-2.13,2.53-2.63,21.13-9.79,42.3-19.49,63.48-29.19,2.59-1.19,4.63-.72,5.79,2.16,.72,1.8,1.89,3.47,2.31,5.32,.31,1.36-.26,2.92-.4,4.1Z"/>
      <path class="cls-16" d="M240.72,357.55c6.91-3.06,14.54-6.82,22.46-9.79,3.85-1.44,5.22,2.31,6.53,5.22,1.25,2.78,1.3,5.55-1.64,6.99-7.21,3.53-14.54,6.83-21.93,9.99-2.73,1.17-4.87-.06-6.11-2.85-1.33-2.99-3.32-5.92,.69-9.56Z"/>
      <path class="cls-16" d="M425.07,250.27c-4.7,2.05-9.88,4.79-15.36,6.54-3.86,1.23-5.19-2.38-6.53-5.29-1.37-2.98-1.3-5.71,1.78-7.3,4.62-2.38,9.38-4.52,14.2-6.46,2.94-1.18,5.14,.12,6.44,3.05,1.34,3.02,3.11,5.97-.53,9.45Z"/>
      <path class="cls-16" d="M233.24,341.67c4.52-1.95,9.71-4.69,15.22-6.41,4.19-1.3,5.38,2.65,6.72,5.67,1.29,2.92,.71,5.45-2.1,6.88-4.52,2.29-9.16,4.37-13.87,6.25-2.86,1.14-5.31,.19-6.63-2.8-1.31-2.97-3.32-5.97,.67-9.59Z"/>
      <path class="cls-16" d="M438.16,270.03c5.05,7.79,4.25,10.77-1.74,13.15-3.05,1.22-5.99,2.73-9.04,3.96-4.26,1.71-5.92,.77-8.08-4.23-1.49-3.45-1.64-6.37,2.5-8.11,3.72-1.56,7.29-3.54,11.1-4.82,1.79-.6,3.99,.01,5.26,.05Z"/>
      <path class="cls-16" d="M268.88,310.11c3.25,3.85,3.38,8.57,.32,11.16-3.58,3.03-8.44,3.59-10.58,1.22-3.22-3.57-3.66-8.65-.95-10.89,4.46-3.69,8.86-4.27,11.21-1.49Z"/>
      <path class="cls-16" d="M286.82,332.2c-4.12,3.46-9.1,4.08-11.23,1.4-3.1-3.9-3.31-8.52-.5-10.91,3.97-3.36,9.07-3.82,11.24-1,2.83,3.68,3.05,8.36,.5,10.51Z"/>
      <path class="cls-16" d="M371.73,308.32c-3.23-4.28-3.28-7.86-.12-10.2,4.84-3.58,8.49-3.94,10.66-1.05,3.34,4.43,3.24,8.42-.27,11-4.36,3.21-7.97,3.3-10.28,.25Z"/>
      <path class="cls-16" d="M386.8,310.22c3.7-3.37,8.46-4.03,10.78-1.48,3.11,3.42,3.61,8.12,1.1,10.42-3.86,3.53-8.32,4.28-10.71,1.78-3.35-3.5-3.87-8.25-1.16-10.72Z"/>
      <path class="cls-16" d="M367.28,276.24c-3.74,3.25-9.24,4.02-11.25,1.57-2.66-3.25-2.84-8.77-.38-11.06,3.5-3.25,8.65-3.74,10.86-1.02,3.08,3.77,3.4,8.23,.76,10.52Z"/>
      <path class="cls-16" d="M367.66,295.32c-3.29,3.04-8.47,3.7-10.61,1.36-3.04-3.32-3.62-8.34-1.22-10.58,3.16-2.96,9.52-4.03,11.43-1.92,2.48,2.74,2.71,9.01,.4,11.14Z"/>
      <path class="cls-16" d="M290.35,335.09c3.46-3.13,7.86-3.73,10.12-1.38,3.06,3.18,3.69,8.34,1.29,10.54-3.9,3.57-8.96,4.32-11.2,1.66-3.12-3.71-3.21-8.11-.21-10.82Z"/>
      <path class="cls-16" d="M242.52,329.7c-3.04-3.44-3.6-8.39-1.21-10.59,3.54-3.25,8.57-3.68,10.84-.94,3.04,3.68,3.46,8.42,.93,10.56-3.59,3.05-8.34,3.48-10.56,.97Z"/>
      <path class="cls-16" d="M349.56,273.51c3.01,3.48,3.54,8.42,1.13,10.58-3.35,3.01-8.36,3.56-10.58,1.16-3.25-3.5-3.96-9.03-1.01-10.81,4.7-2.85,7.73-4.1,10.46-.93Z"/>
      <path class="cls-16" d="M382.4,258.28c3.18,3.58,3.7,8.14,1.2,10.46-3.37,3.13-8.24,3.79-10.5,1.42-3.24-3.4-3.79-8.56-1.17-10.83,3.61-3.12,8.22-3.58,10.47-1.05Z"/>
      <path class="cls-16" d="M399.75,261.33c-3.29,3.09-8.26,3.78-10.5,1.44-3.2-3.33-3.73-8.5-1.11-10.8,3.57-3.13,8.19-3.63,10.45-1.13,3.07,3.4,3.6,8.2,1.17,10.49Z"/>
      <path class="cls-16" d="M416.16,229.77c-2.22,2.29-5.72,2.94-7.37,1.36-2.37-2.25-2.91-5.89-1.14-7.6,2.42-2.33,5.67-2.83,7.34-1.14,2.28,2.3,2.81,5.68,1.17,7.38Z"/>
      <path class="cls-16" d="M274.5,303.82c3.52-3.08,8.35-3.62,10.53-1.17,3.22,3.62,3.61,8.55,.85,10.86-3.74,3.12-8.35,3.51-10.51,.88-3.04-3.7-3.42-8.32-.86-10.56Z"/>
      <path class="cls-16" d="M302.05,306.08c-3.64,3.12-8.6,3.78-10.42,.99-2.87-4.42-4.27-8.01-.79-10.74,3.99-3.14,8.13-3.47,10.41-.71,3.08,3.73,3.42,8.22,.8,10.46Z"/>
      <path class="cls-16" d="M270.2,339.83c-3.29,2.99-8.42,3.66-10.55,1.38-2.97-3.17-3.62-8.33-1.34-10.55,3.36-3.26,8.55-3.88,10.84-1.29,3.07,3.48,3.55,8.19,1.05,10.46Z"/>
      <path class="cls-16" d="M384.35,287.4c-3.47,3.14-8.33,3.71-10.56,1.25-3.02-3.34-3.53-8.38-1.08-10.6,3.4-3.07,8.33-3.61,10.57-1.15,3.13,3.44,3.62,8.2,1.07,10.5Z"/>
      <path class="cls-16" d="M235.7,325.34c3.12,3.34,3.82,8.18,1.51,10.47-3.21,3.18-8.45,3.72-10.79,1.12-3.15-3.5-3.66-8.16-1.15-10.4,3.54-3.15,8.11-3.67,10.43-1.19Z"/>
      <path class="cls-16" d="M333.4,281.02c3.18,3.71,3.84,8.5,1.01,10.38-4.51,3.01-8.04,4.22-10.71,.78-3.12-4.02-3.48-8.11-.7-10.37,3.9-3.17,8.08-3.49,10.4-.79Z"/>
      <path class="cls-16" d="M350.61,292.33c3.13,3.81,3.46,8.17,.8,10.44-3.55,3.04-8.32,3.52-10.47,1.06-3.26-3.72-3.61-8.5-.78-10.74,3.89-3.08,8.29-3.4,10.46-.77Z"/>
      <path class="cls-16" d="M302.91,324.68c-3.61,3.13-8.2,3.63-10.4,1.12-3.04-3.46-3.57-8.27-1.15-10.48,3.51-3.22,8.52-3.68,10.78-.98,3.18,3.79,3.49,7.98,.78,10.34Z"/>
      <path class="cls-16" d="M334.46,299.81c3.24,3.87,3.5,8.01,.65,10.36-3.88,3.19-8.09,3.48-10.4,.7-3.21-3.86-3.47-8.04-.64-10.37,3.87-3.19,8.06-3.47,10.39-.69Z"/>
      <path class="cls-16" d="M416.53,272.75c-3.65,3.2-8.15,3.66-10.45,1.07-3.13-3.52-3.57-8.18-.98-10.47,3.49-3.09,8.21-3.53,10.5-.99,3.18,3.54,3.59,8.06,.94,10.39Z"/>
      <path class="cls-16" d="M318.13,306.91c3.23,3.58,3.64,7.99,.96,10.33-3.66,3.2-8.23,3.69-10.45,1.14-3.11-3.59-3.53-8.2-.94-10.46,3.64-3.17,8.09-3.6,10.43-1.01Z"/>
      <path class="cls-16" d="M279.48,359.35c3.62-3.15,8.26-3.53,10.42-.86,2.89,3.58,3.28,8.05,.9,10.18-3.43,3.06-8.36,3.59-10.48,1.12-3.11-3.61-3.47-8.15-.83-10.44Z"/>
      <path class="cls-16" d="M317.14,288.2c3.14,3.43,3.71,8.11,1.28,10.41-3.27,3.1-8.16,3.79-10.43,1.46-3.24-3.32-3.8-8.4-1.2-10.74,3.56-3.2,8-3.68,10.34-1.13Z"/>
      <path class="cls-16" d="M322.52,320.45c3.62-3.17,8.15-3.57,10.41-.92,3.17,3.7,3.54,8.18,.87,10.38-3.59,2.95-7.98,3.39-10.15,1.01-3.1-3.4-3.63-8.29-1.13-10.47Z"/>
      <path class="cls-16" d="M431.84,255.11c3.24,3.76,3.59,8.09,.85,10.38-3.77,3.14-8.14,3.51-10.42,.88-3.17-3.67-3.51-8.02-.81-10.36,3.68-3.19,8.09-3.57,10.39-.9Z"/>
      <path class="cls-16" d="M380.81,316.77c3.21,3.57,3.69,8.2,1.07,10.39-3.55,2.96-7.93,3.47-10.12,1.17-3.05-3.2-3.7-8.3-1.34-10.47,3.47-3.2,8.06-3.68,10.39-1.08Z"/>
      <path class="cls-16" d="M430.91,304.45c-3.64,3.18-8.26,3.62-10.38,.99-2.94-3.65-3.37-7.96-1.01-10.13,3.42-3.15,8.24-3.73,10.46-1.25,3.09,3.45,3.51,8.14,.93,10.4Z"/>
      <path class="cls-16" d="M388.92,270.72c4.18-2.38,7.84-4.16,10.49-.98,3.15,3.78,3.68,8.02,1,10.38-3.59,3.17-8.16,3.63-10.46,1.07-3.16-3.52-3.62-8.21-1.03-10.48Z"/>
      <path class="cls-16" d="M274.43,376.12c-3.65,3.09-8.32,3.48-10.41,.86-3.1-3.89-3.33-8.23-.55-10.42,3.81-3.01,7.96-3.36,10.09-.85,3.19,3.75,3.55,8.14,.87,10.42Z"/>
      <path class="cls-16" d="M388.8,300.86c-3.08-3.65-3.42-8.2-.79-10.42,3.61-3.04,7.93-3.53,10.09-1.14,3.04,3.37,3.6,8.33,1.17,10.56-3.29,3.03-8.36,3.51-10.48,1Z"/>
      <path class="cls-16" d="M348.92,312.05c3.13,3.45,3.62,8.13,1.07,10.39-3.56,3.16-8.12,3.55-10.37,.89-2.94-3.48-3.43-7.96-1.12-10.12,3.29-3.06,8.19-3.61,10.41-1.17Z"/>
      <path class="cls-16" d="M316.64,326.75c3.12,3.47,3.65,8.33,1.14,10.44-3.47,2.91-8,3.4-10.2,1.11-2.92-3.05-3.62-8.42-1.36-10.54,3.27-3.06,8.15-3.54,10.42-1.01Z"/>
      <path class="cls-16" d="M247,374.09c3.44-3.07,8.33-3.58,10.44-1.08,3.11,3.67,3.48,8.14,.85,10.42-3.55,3.07-7.77,3.54-10.03,1.12-3.14-3.37-3.73-8.25-1.26-10.46Z"/>
      <path class="cls-16" d="M365.33,304.93c3.15,3.79,3.41,8.01,.64,10.32-3.85,3.21-7.93,3.41-10.24,.51-3-3.76-3.48-8.12-.71-9.96,4.25-2.82,7.82-4.13,10.31-.87Z"/>
      <path class="cls-16" d="M403.97,283.3c3.53-3.2,7.99-3.61,10.31-.96,2.97,3.39,3.53,7.89,1.27,10.09-3.1,3.03-8.28,3.68-10.47,1.31-3.06-3.31-3.58-8.21-1.12-10.45Z"/>
      <path class="cls-16" d="M273.56,342.91c3.57-3.14,8.27-3.55,10.43-.91,2.95,3.6,3.41,7.93,1.07,10.14-3.25,3.07-8.23,3.63-10.44,1.18-3.11-3.44-3.59-8.17-1.05-10.4Z"/>
      <path class="cls-16" d="M449.49,296.35c-3.76,1.69-6.67,3.27-9.77,4.2-.79,.24-2.63-1.41-3.18-2.57-.41-.87,.09-2.98,.85-3.45,2.51-1.54,5.26-2.8,8.07-3.68,.89-.28,2.69,.71,3.29,1.63,.7,1.07,.55,2.7,.73,3.87Z"/>
      <path class="cls-16" d="M417.29,311.05c-3.77,1.67-6.82,3.25-10.05,4.28-.67,.22-2.47-1.41-2.87-2.5-.36-.99,.09-3.06,.86-3.54,2.5-1.55,5.26-2.8,8.07-3.67,.87-.27,2.6,.78,3.26,1.71,.68,.95,.52,2.49,.72,3.72Z"/>
    </g>
  </g>
  <path class="cls-13" d="M145.39,201.54c1.22-1.07,2.31-1.73,2.88-2.05,.72-.41,1.37-.7,1.88-.9l151.27-70.59c15.64-7.32,38.96-18.11,67.81-31.01,3.41-1.42,6.81-2.84,10.22-4.26,1.47-.12,3.85-.08,5.93,1.31,2.62,1.76,5.02,8.31,5.35,9.33,6.21,19.1,8.33,23.7,14.33,40.84,4.03,11.52,8.38,21.78,13.66,37.76,1.9,5.75,3.35,10.5,4.28,13.62-.21,1.86-.81,4.33-2.61,6.39-2,2.28-4.57,3.01-5.12,3.18-5.03,1.6-60.38,27.53-140.24,65.34-24.42,11.51-48.84,23.01-73.26,34.52-.31,.13-3.4,1.39-5.85-.31-.9-.62-1.36-1.41-1.51-1.68-1.5-2.67-20.3-35.81-46.09-81.34-1.99-3.9-3.99-7.81-5.98-11.71-.34-1.05-.78-3.03,.06-4.99,.56-1.31,1.47-2.11,2.98-3.44Z"/>
  <path class="cls-11" d="M163.14,201.2c1.07-.94,2.02-1.51,2.51-1.79,.63-.35,1.2-.61,1.64-.79l132.2-61.69c13.67-6.4,34.05-15.83,59.26-27.1,2.98-1.24,5.96-2.48,8.93-3.72,1.28-.11,3.36-.07,5.18,1.15,2.29,1.53,4.39,7.26,4.68,8.15,5.43,16.69,7.28,20.71,12.53,35.69,3.52,10.07,7.33,19.03,11.94,33,1.66,5.03,2.93,9.18,3.74,11.9-.18,1.62-.71,3.78-2.28,5.58-1.75,2-4,2.63-4.47,2.78-4.4,1.4-52.77,24.06-122.56,57.1-21.34,10.06-42.68,20.11-64.03,30.17-.27,.12-2.97,1.21-5.11-.27-.78-.54-1.19-1.23-1.32-1.47-1.31-2.33-17.74-31.29-40.28-71.08-1.74-3.41-3.48-6.82-5.23-10.24-.3-.92-.68-2.65,.06-4.37,.49-1.14,1.28-1.84,2.6-3.01Z"/>
  <path class="cls-16" d="M233.63,290.61l1.69,3.47c.29,.59,.99,.83,1.58,.56l152.27-72c.59-.28,.85-.98,.58-1.57l-1.15-2.55c-.27-.61-.99-.87-1.59-.59l-152.82,71.08c-.61,.28-.86,1.01-.57,1.61Z"/>
  <path class="cls-16" d="M215.81,314.85l2,4.06c.37,.76,1.28,1.09,2.03,.74l183.02-84.97c.75-.35,1.07-1.24,.73-2.01l-1.34-2.94c-.36-.78-1.27-1.13-2.04-.78l-183.68,83.85c-.77,.35-1.1,1.28-.71,2.05Z"/>
  <rect class="cls-8" x="323.15" y="345.32" width="70.2" height="42.88" rx="3.24" ry="3.24" transform="translate(-119.78 181.43) rotate(-24.48)"/>
  <rect class="cls-6" x="325.45" y="347.54" width="65.6" height="38.44" rx="3.24" ry="3.24" transform="translate(-119.78 181.43) rotate(-24.48)"/>
  <path class="cls-7" d="M346.82,408.42c-1.17-2.57,.7-7.5,3.66-8.84l38.23-17.41c2.95-1.35,7.93,.14,9.11,2.71"/>
  <polygon class="cls-15" points="291.39 140.98 306.3 133.8 282.4 258.64 266.78 266.02 291.39 140.98"/>
  <path class="cls-15" d="M368.04,218.06l-72.7,34.47c7.17-41.06,15.1-82.92,22.27-123.98,16.74-7.81,31.73-15.78,47.79-22.71,1.37-.34,3.88-.72,6.27,.55,2.62,1.4,3.7,4.06,4.43,5.85,2.17,5.32,4.23,12.93,6.89,19.5l-14.94,86.32Z"/>
  <rect class="cls-19" x="216.6" y="423.14" width="113.9" height="67.5" rx="8.92" ry="8.92" transform="translate(109.25 -49.65) rotate(12.94)"/>
  <rect class="cls-9" x="215.58" y="427.61" width="113.9" height="67.5" rx="8.92" ry="8.92" transform="translate(110.22 -49.31) rotate(12.94)"/>
  <rect class="cls-12" x="225.88" y="432.32" width="90.06" height="57.35" rx="2.53" ry="2.53" transform="translate(110.83 -49.18) rotate(13.02)"/>
  <rect class="cls-12" x="316.45" y="468.72" width="10.17" height="10.17" rx="3.52" ry="3.52" transform="translate(-212.24 681.09) rotate(-77.06)"/>
  <polygon class="cls-14" points="228.21 446.53 230.58 436.03 279.31 492.41 263.81 488.71 228.21 446.53"/>
  <path class="cls-14" d="M231.91,430.85l1.12-5.58c.28-1.38,1.65-2.25,3.02-1.91l46.46,11.55c.45,.11,.86,.35,1.19,.69l30.49,31.8c.59,.61,1.24,1.02,1.03,1.85l-6.5,28.13c-.33,1.31-2.3,1.43-3.62,1.12l-18.78-4.44c-.5-.12-.96-.39-1.3-.78l-52.55-60.31c-.5-.58-.71-1.36-.56-2.11Z"/>
  <g>
    <path class="cls-3" d="M257.43,230.92c-2.31-4.93-4.57-9.88-6.95-14.78-.77-1.58-.53-2.52,1.09-3.21,1.71-.73,3.38-1.54,5.05-2.34,1.19-.57,1.97-.24,2.52,.95,4.76,10.2,9.53,20.4,14.31,30.59,.59,1.27,.3,2.08-1.02,2.64-1.71,.73-3.39,1.51-5.04,2.36-1.44,.75-2.26,.35-2.91-1.08-2.32-5.06-4.7-10.09-7.06-15.13Z"/>
    <path class="cls-3" d="M226.62,247.35c-2.02-4.31-4.04-8.63-6.06-12.94-1.11-2.38-1.02-2.62,1.42-3.76,1.46-.68,2.94-1.32,4.36-2.06,1.32-.68,2.22-.41,2.85,.94,4.24,9.08,8.49,18.16,12.74,27.23,.62,1.32,.32,2.21-1.08,2.79-1.71,.72-3.4,1.5-5.04,2.36-1.47,.77-2.29,.26-2.92-1.11-2.08-4.49-4.19-8.97-6.29-13.45Z"/>
    <path class="cls-3" d="M221.76,220.54c-4.14,8.98-8.17,17.74-12.21,26.5-.13,.28-.18,.68-.4,.82-.64,.41-1.35,.72-2.03,1.06-.19-.74-.74-1.63-.51-2.21,1.1-2.75,2.42-5.42,3.66-8.12,3-6.52,6.04-13.02,8.97-19.57,.76-1.7,1.68-1.97,3.34-1.34,5.2,1.97,10.45,3.82,16.15,5.89,.31-1.12,.54-2.19,.91-3.21,2.67-7.52,5.37-15.03,8.07-22.55,.19-.52,.29-1.17,.66-1.51,.4-.36,1.16-.67,1.59-.52,.42,.15,.78,.88,.89,1.41,.09,.42-.21,.94-.37,1.41-3.1,8.68-6.21,17.36-9.32,26.04-.83,2.32-1.14,2.46-3.55,1.59-4.65-1.69-9.3-3.39-13.95-5.08-.57-.21-1.15-.38-1.89-.62Z"/>
    <path class="cls-3" d="M222.8,256.91c1.08,2.3,2.11,4.62,3.24,6.88,.76,1.51,.59,2.53-1.1,3.22-1.72,.69-3.39,1.51-5.05,2.35-1.2,.61-2.03,.32-2.57-.84-2.35-4.98-4.67-9.97-7.01-14.96-.55-1.18-.19-2.04,.95-2.59,1.79-.85,3.58-1.7,5.38-2.51,1.23-.56,2.13-.22,2.7,1.05,1.13,2.48,2.3,4.93,3.45,7.4Z"/>
    <path class="cls-3" d="M245.28,246.11c-1.1-2.35-2.16-4.73-3.32-7.05-.72-1.44-.32-2.34,1.07-2.97,1.63-.74,3.26-1.49,4.87-2.28,1.37-.67,2.33-.42,3,1.03,2.23,4.83,4.49,9.64,6.76,14.45,.65,1.38,.4,2.31-1.1,2.93-1.66,.67-3.29,1.44-4.87,2.28-1.53,.82-2.38,.33-3.04-1.15-1.07-2.43-2.24-4.82-3.37-7.23Z"/>
  </g>
  <polyline class="cls-1" points="245.48 191.67 255.62 183.73 256.83 196.18"/>
  <g class="cls-17">
    <g>
      <path class="cls-3" d="M125.22,342.45c-8.37-1.88-16.73-3.84-25.13-5.59-2.71-.57-3.66-1.78-2.95-4.47,.74-2.83,1.33-5.7,1.95-8.56,.44-2.04,1.6-2.69,3.62-2.23,17.31,3.91,34.64,7.79,51.96,11.67,2.15,.48,2.89,1.64,2.32,3.82-.74,2.83-1.4,5.69-1.92,8.56-.46,2.51-1.74,3.15-4.15,2.59-8.55-1.99-17.12-3.87-25.69-5.79Z"/>
      <path class="cls-3" d="M115.99,396.72c-7.33-1.64-14.66-3.28-21.99-4.94-4.04-.91-4.25-1.26-3.32-5.41,.55-2.48,1.19-4.94,1.64-7.43,.42-2.31,1.64-3.16,3.92-2.65,15.42,3.47,30.84,6.93,46.26,10.38,2.24,.5,3.06,1.73,2.45,4.04-.75,2.83-1.41,5.69-1.92,8.56-.46,2.57-1.88,3.1-4.2,2.57-7.61-1.75-15.23-3.43-22.84-5.14Z"/>
      <path class="cls-3" d="M77.86,376.92c7.21,13.82,14.24,27.3,21.27,40.79,.23,.43,.68,.88,.64,1.29-.11,1.2-.41,2.37-.64,3.56-1.11-.48-2.75-.65-3.24-1.5-2.37-4.03-4.43-8.25-6.59-12.4-5.24-10.03-10.4-20.1-15.76-30.06-1.39-2.59-.84-3.99,1.55-5.46,7.47-4.59,14.85-9.35,22.92-14.46-1.09-1.47-2.2-2.79-3.13-4.23-6.8-10.59-13.56-21.2-20.33-31.81-.47-.74-1.19-1.49-1.25-2.27-.06-.84,.28-2.09,.89-2.49,.59-.39,1.85-.13,2.62,.24,.62,.3,.98,1.17,1.4,1.82,7.83,12.25,15.66,24.49,23.48,36.75,2.09,3.28,1.97,3.8-1.44,5.96-6.59,4.18-13.2,8.33-19.8,12.5-.81,.51-1.59,1.07-2.59,1.76Z"/>
      <path class="cls-3" d="M124.22,410.71c3.9,.88,7.79,1.83,11.71,2.6,2.62,.52,3.73,1.7,2.95,4.48-.79,2.81-1.38,5.69-1.93,8.56-.4,2.08-1.56,2.84-3.54,2.4-8.47-1.88-16.94-3.79-25.41-5.69-2.01-.45-2.73-1.73-2.31-3.68,.66-3.05,1.33-6.1,2.05-9.14,.49-2.08,1.78-2.86,3.92-2.36,4.18,.98,8.37,1.89,12.56,2.83Z"/>
      <path class="cls-3" d="M132.44,372.26c-4-.9-7.98-1.87-11.99-2.66-2.49-.49-3.22-1.86-2.67-4.2,.65-2.75,1.28-5.51,1.85-8.28,.48-2.36,1.73-3.31,4.17-2.75,8.17,1.88,16.36,3.7,24.54,5.52,2.35,.52,3.27,1.73,2.59,4.2-.76,2.72-1.38,5.49-1.86,8.27-.46,2.7-1.89,3.29-4.36,2.68-4.07-1.01-8.18-1.86-12.27-2.78Z"/>
    </g>
  </g>
  <polyline class="cls-2" points="64.74 319.5 64.62 299.19 81.32 309.69"/>
  <rect class="cls-3" x="305.6" y="212.26" width="20.55" height="5.18" transform="translate(253.49 591.74) rotate(-114.82)"/>
  <rect class="cls-3" x="313.56" y="208.16" width="21.08" height="5.18" transform="translate(268.9 593.39) rotate(-114.82)"/>
  <rect class="cls-3" x="321.74" y="193.79" width="34.21" height="5.18" transform="translate(302.86 586.36) rotate(-114.82)"/>
  <rect class="cls-3" x="318.46" y="182" width="51.21" height="5.18" transform="translate(320.99 574.37) rotate(-114.82)"/>
  <rect class="cls-3" x="326.79" y="178.15" width="51.21" height="5.18" transform="translate(336.31 576.46) rotate(-114.82)"/>
  <rect class="cls-3" x="329.31" y="169.43" width="60.87" height="5.18" transform="translate(354.67 570.74) rotate(-114.82)"/>
  <rect class="cls-3" x="328.55" y="158.8" width="75.15" height="5.18" transform="translate(373.37 561.44) rotate(-114.82)"/>
  <rect class="cls-3" x="319.08" y="201.67" width="25.7" height="5.18" transform="translate(285.91 591.28) rotate(-114.82)"/>
  <g>
    <path class="cls-3" d="M271.76,455.36c-.12,.24-.21,.48-.36,.69-.33,.49-.68,.97-1.03,1.45-.24,.33-.24,.67-.07,1.04,.24,.52,.47,1.05,.66,1.58,.16,.44,.44,.65,.89,.72,.62,.09,1.24,.21,1.86,.32,.5,.09,.74,.41,.74,.89,.01,.89,.01,1.78,0,2.67,0,.46-.24,.78-.7,.87-.63,.12-1.27,.23-1.91,.33-.45,.06-.73,.3-.88,.73-.19,.52-.38,1.05-.64,1.54-.23,.45-.15,.81,.11,1.19,.35,.48,.7,.96,1.03,1.44,.35,.51,.32,.84-.11,1.28-.57,.58-1.14,1.16-1.73,1.73-.5,.48-.8,.5-1.37,.11-.47-.32-.94-.65-1.4-1-.38-.29-.76-.32-1.19-.12-.5,.24-1.02,.45-1.54,.64-.41,.15-.65,.4-.71,.83-.09,.6-.2,1.2-.3,1.8-.1,.59-.38,.83-.98,.84-.85,0-1.7,0-2.55,0-.6,0-.87-.24-.97-.84-.1-.58-.2-1.17-.28-1.75-.06-.45-.3-.72-.73-.88-.52-.18-1.03-.4-1.53-.64-.41-.2-.77-.18-1.14,.09-.49,.36-1,.71-1.49,1.07-.44,.32-.86,.3-1.24-.09-.62-.61-1.23-1.23-1.85-1.84-.39-.39-.4-.8-.07-1.24,.36-.49,.71-.99,1.07-1.49,.26-.36,.3-.72,.08-1.14-.25-.49-.44-1.02-.63-1.54-.16-.43-.43-.66-.88-.73-.62-.09-1.24-.21-1.86-.32-.53-.09-.76-.43-.77-.93-.01-.85,0-1.7,0-2.55,0-.55,.25-.9,.84-.98,.59-.08,1.16-.22,1.75-.29,.49-.06,.75-.32,.92-.76,.19-.52,.4-1.03,.64-1.53,.19-.39,.17-.74-.09-1.09-.37-.51-.72-1.03-1.09-1.54-.32-.45-.29-.85,.11-1.24,.61-.6,1.2-1.21,1.81-1.8,.44-.43,.76-.45,1.28-.09,.49,.34,.97,.68,1.45,1.03,.36,.27,.72,.31,1.14,.12,.54-.24,1.11-.41,1.63-.7,.26-.14,.52-.43,.6-.7,.17-.58,.24-1.19,.33-1.8,.12-.7,.36-.93,1.06-.93,.83,0,1.67,.01,2.5,0,.57,0,.85,.28,.94,.81,.11,.62,.22,1.24,.31,1.86,.06,.42,.28,.66,.67,.8,.55,.21,1.08,.5,1.65,.65,.32,.09,.74,.06,1.02-.09,.57-.3,1.07-.72,1.6-1.1,.39-.28,.77-.28,1.11,.05,.68,.66,1.35,1.32,2,2,.13,.14,.18,.35,.28,.57Zm-16.42,8c-.02,3.06,2.45,5.56,5.51,5.57,3.05,.02,5.55-2.46,5.57-5.52,.02-3.07-2.43-5.57-5.49-5.6-3.08-.03-5.57,2.44-5.59,5.54Z"/>
    <path class="cls-3" d="M290.78,451.13c0,1.41,.19,1.5-1.42,1.69-.62,.07-1.05,.31-1.16,.96,0,.02-.01,.04-.02,.05-.55,.8-.35,1.47,.25,2.18,.6,.7,.54,.85-.09,1.49-.31,.31-.64,.62-.94,.94-.29,.3-.59,.35-.93,.1-.03-.02-.07-.04-.09-.06-.85-.94-1.81-.93-2.8-.27-.23,.15-.44,.42-.53,.68-.13,.38-.1,.82-.24,1.19-.09,.22-.37,.49-.59,.51-.62,.07-1.26,.07-1.88,0-.22-.02-.5-.29-.59-.51-.15-.37-.16-.79-.23-1.19-.02-.11-.03-.23-.07-.32-.24-.54-1.98-1.01-2.46-.67-.32,.22-.61,.51-.96,.66-.22,.09-.61,.08-.78-.05-.49-.39-.94-.84-1.33-1.33-.14-.17-.06-.52-.07-.79,0-.04,.06-.09,.09-.13,.96-1.39,.97-1.39,.22-2.9-.09-.18-.33-.35-.53-.41-.42-.12-.87-.16-1.31-.24-.33-.06-.52-.26-.52-.61,0-.63-.05-1.26,.02-1.89,.02-.22,.29-.51,.51-.59,.37-.15,.81-.1,1.19-.24,.27-.1,.55-.33,.71-.58,.68-1.01,.57-1.94-.31-2.8-.31-.3-.27-.66,.06-.97,.41-.4,.82-.81,1.22-1.22,.26-.27,.54-.28,.85-.09,.03,.02,.07,.04,.09,.06,.86,.92,1.82,1,2.84,.3,.22-.15,.42-.39,.51-.63,.13-.38,.16-.79,.23-1.2,.06-.39,.28-.6,.67-.6,.59,0,1.19-.01,1.78,0,.35,0,.6,.16,.66,.54,.01,.07,.05,.15,.05,.22-.09,1.27,.66,1.86,1.77,2.12,.26,.06,.59,.03,.82-.08,.36-.17,.67-.46,1-.69,.31-.22,.61-.24,.89,.05,.42,.42,.84,.84,1.26,1.25,.28,.28,.3,.58,.07,.9-.02,.03-.04,.07-.06,.09-.89,.83-.92,1.74-.32,2.77,.19,.32,.37,.53,.73,.58,.31,.04,.62,.09,.93,.14,.67,.11,.82,.28,.82,.95,0,.22,0,.44,0,.67Zm-5.62,.01c0-2.18-1.73-3.91-3.92-3.9-2.13,0-3.88,1.76-3.87,3.9,0,2.12,1.77,3.88,3.9,3.89,2.13,0,3.89-1.75,3.89-3.89Z"/>
    <path class="cls-3" d="M288.88,470.06c-.18,.28-.38,.56-.55,.86-.19,.33-.54,.7-.5,1,.09,.58,.4,1.14,.66,1.68,.06,.13,.3,.19,.48,.23,.34,.08,.69,.13,1.03,.2,.7,.14,.77,.24,.78,.96,0,.48,0,.96,0,1.44,0,.41-.18,.66-.6,.73-.38,.06-.76,.14-1.15,.19-.36,.05-.55,.25-.74,.57-.61,1.04-.57,1.95,.32,2.82,.34,.33,.26,.7-.07,1.02-.38,.37-.77,.75-1.14,1.13-.31,.32-.63,.35-.99,.09-.01-.01-.03-.02-.04-.03-.85-.95-1.81-.92-2.8-.28-.23,.15-.41,.43-.55,.68-.09,.17-.08,.39-.11,.59q-.2,1.16-1.36,1.16c-.39,0-.78,0-1.17,0-.39,0-.62-.19-.69-.58-.07-.38-.16-.76-.2-1.15-.04-.44-.32-.58-.66-.79-1.03-.62-1.89-.47-2.72,.36-.33,.33-.7,.27-1.02-.07-.37-.38-.75-.76-1.14-1.14-.31-.31-.38-.62-.08-.98,.02-.03,.05-.06,.07-.09,.94-1.36,.95-1.37,.21-2.86-.1-.2-.36-.33-.58-.44-.16-.08-.36-.07-.54-.09-1.48-.19-1.25-.35-1.26-1.55,0-1.79-.14-1.58,1.5-1.83,.57-.09,.79-.39,1.06-.87,.55-.96,.33-1.67-.34-2.43-.48-.54-.42-.71,.07-1.22,.33-.35,.69-.67,1.02-1.02,.33-.36,.7-.45,1.06-.09,.84,.87,1.74,.95,2.76,.33,.31-.19,.55-.34,.59-.72,.04-.38,.14-.76,.2-1.15,.06-.39,.27-.6,.66-.6,.59,0,1.18,0,1.78,0,.39,0,.63,.17,.68,.58,0,.05,.04,.11,.03,.16-.09,1.31,.72,1.87,1.82,2.14,.24,.06,.55,.01,.77-.1,.37-.19,.68-.52,1.05-.71,.19-.1,.56-.14,.7-.03,.54,.45,1.02,.97,1.5,1.48,.08,.08,.1,.23,.17,.41Zm-3.71,5.58c.02-2.15-1.7-3.91-3.84-3.93-2.15-.03-3.93,1.73-3.95,3.89-.02,2.09,1.73,3.87,3.83,3.89,2.19,.02,3.95-1.68,3.96-3.86Z"/>
  </g>
  <g class="cls-20">
    <g>
      <path class="cls-3" d="M83.88,47.08c-.42,.81-.74,1.64-1.22,2.35-1.13,1.68-2.34,3.32-3.53,4.96-.83,1.15-.83,2.31-.25,3.58,.81,1.78,1.6,3.59,2.27,5.43,.54,1.49,1.51,2.24,3.05,2.46,2.13,.31,4.25,.72,6.37,1.09,1.71,.3,2.52,1.4,2.54,3.06,.04,3.05,.03,6.09,0,9.14-.02,1.58-.82,2.67-2.41,2.98-2.17,.42-4.36,.8-6.55,1.12-1.56,.22-2.49,1.02-3.01,2.5-.64,1.79-1.31,3.58-2.18,5.26-.79,1.53-.53,2.79,.39,4.06,1.19,1.65,2.4,3.28,3.55,4.95,1.2,1.74,1.1,2.88-.38,4.4-1.95,2-3.91,3.99-5.92,5.92-1.71,1.66-2.74,1.72-4.7,.39-1.62-1.11-3.24-2.23-4.81-3.42-1.31-.99-2.59-1.1-4.08-.4-1.72,.81-3.48,1.53-5.27,2.18-1.39,.51-2.21,1.36-2.43,2.85-.3,2.07-.67,4.13-1.02,6.19-.34,2.01-1.3,2.85-3.34,2.87-2.92,.03-5.84,.03-8.76,0-2.05-.02-2.97-.83-3.34-2.89-.35-2-.68-4-.96-6.01-.22-1.55-1.02-2.48-2.51-3-1.79-.63-3.54-1.39-5.25-2.21-1.41-.68-2.65-.61-3.91,.32-1.68,1.24-3.41,2.43-5.11,3.65-1.52,1.1-2.94,1.02-4.27-.31-2.11-2.1-4.23-4.2-6.34-6.31-1.34-1.34-1.37-2.75-.24-4.26,1.25-1.68,2.44-3.4,3.66-5.1,.89-1.24,1.02-2.45,.28-3.9-.86-1.68-1.5-3.49-2.15-5.27-.53-1.46-1.46-2.28-3.03-2.49-2.13-.3-4.24-.74-6.37-1.08-1.82-.3-2.6-1.46-2.62-3.18-.04-2.92-.03-5.84,0-8.76,.02-1.89,.85-3.09,2.88-3.35,2.01-.26,3.99-.75,6-1,1.67-.21,2.58-1.09,3.14-2.61,.66-1.78,1.38-3.54,2.2-5.26,.65-1.35,.58-2.53-.3-3.73-1.27-1.74-2.48-3.53-3.74-5.28-1.11-1.54-.98-2.91,.38-4.24,2.08-2.04,4.1-4.15,6.19-6.19,1.52-1.48,2.61-1.54,4.39-.3,1.67,1.16,3.33,2.32,4.96,3.54,1.25,.94,2.48,1.06,3.91,.42,1.84-.84,3.82-1.42,5.58-2.39,.88-.48,1.78-1.47,2.06-2.41,.6-1.99,.81-4.09,1.14-6.16,.39-2.41,1.23-3.18,3.65-3.19,2.86-.02,5.71,.04,8.57-.01,1.95-.03,2.92,.95,3.24,2.76,.37,2.12,.77,4.24,1.07,6.37,.2,1.43,.97,2.25,2.28,2.75,1.89,.73,3.7,1.71,5.65,2.23,1.08,.29,2.54,.22,3.51-.3,1.94-1.04,3.67-2.48,5.48-3.77,1.32-.95,2.62-.95,3.79,.18,2.33,2.25,4.63,4.52,6.87,6.85,.45,.46,.61,1.21,.96,1.95Zm-56.29,27.43c-.06,10.49,8.4,19.04,18.89,19.1,10.47,.05,19.02-8.42,19.09-18.91,.07-10.52-8.33-19.08-18.81-19.19-10.56-.11-19.1,8.37-19.17,19.01Z"/>
      <path class="cls-3" d="M149.09,32.59c-.01,4.83,.66,5.14-4.87,5.78-2.13,.25-3.59,1.06-3.96,3.3,0,.06-.04,.12-.08,.17-1.88,2.74-1.21,5.04,.87,7.46,2.06,2.39,1.87,2.91-.32,5.09-1.08,1.07-2.18,2.13-3.23,3.23-.99,1.03-2.03,1.22-3.2,.33-.1-.08-.23-.13-.31-.22-2.92-3.21-6.2-3.19-9.59-.91-.79,.53-1.5,1.44-1.82,2.34-.46,1.29-.34,2.8-.83,4.07-.3,.76-1.26,1.66-2.01,1.75-2.13,.24-4.32,.24-6.45,0-.75-.08-1.72-1-2.03-1.76-.5-1.27-.55-2.72-.79-4.09-.07-.37-.09-.77-.24-1.11-.83-1.84-6.78-3.46-8.43-2.3-1.09,.77-2.08,1.75-3.27,2.26-.75,.32-2.08,.29-2.67-.18-1.67-1.34-3.22-2.89-4.55-4.57-.47-.59-.21-1.78-.24-2.7,0-.15,.21-.3,.32-.46,3.3-4.76,3.33-4.77,.75-9.95-.31-.62-1.12-1.19-1.81-1.39-1.45-.41-2.98-.55-4.48-.82-1.15-.21-1.8-.87-1.8-2.08,0-2.16-.16-4.33,.08-6.46,.08-.76,.98-1.74,1.74-2.03,1.27-.5,2.79-.35,4.07-.83,.94-.35,1.88-1.13,2.44-1.97,2.33-3.45,1.96-6.65-1.08-9.59-1.08-1.04-.94-2.25,.19-3.33,1.42-1.36,2.8-2.76,4.18-4.17,.9-.91,1.86-.97,2.92-.32,.11,.07,.23,.13,.31,.22,2.95,3.15,6.25,3.42,9.74,1.03,.74-.51,1.45-1.34,1.74-2.17,.46-1.3,.56-2.72,.78-4.1,.21-1.32,.96-2.05,2.3-2.07,2.03-.03,4.06-.04,6.09,0,1.2,.02,2.07,.56,2.27,1.86,.04,.25,.18,.5,.16,.74-.3,4.36,2.26,6.38,6.05,7.28,.88,.21,2.01,.11,2.81-.27,1.24-.6,2.3-1.57,3.43-2.38,1.07-.77,2.09-.81,3.07,.18,1.43,1.44,2.88,2.86,4.31,4.3,.95,.95,1.03,1.98,.23,3.08-.07,.1-.13,.22-.22,.31-3.05,2.86-3.14,5.96-1.08,9.48,.65,1.1,1.26,1.82,2.49,1.99,1.07,.15,2.13,.31,3.2,.49,2.3,.37,2.8,.96,2.82,3.25,0,.76,0,1.52,0,2.28Zm-19.25,.04c0-7.48-5.93-13.39-13.43-13.38-7.3,.01-13.28,6.05-13.28,13.38,0,7.26,6.08,13.31,13.38,13.32,7.32,.01,13.33-6,13.33-13.32Z"/>
      <path class="cls-3" d="M142.57,97.49c-.61,.95-1.3,1.91-1.89,2.93-.66,1.13-1.87,2.4-1.7,3.43,.32,2,1.37,3.9,2.27,5.77,.21,.43,1.04,.65,1.63,.79,1.17,.29,2.36,.43,3.54,.67,2.38,.47,2.66,.82,2.66,3.3,0,1.65,0,3.3,0,4.95,.02,1.42-.6,2.28-2.04,2.51-1.31,.21-2.62,.48-3.93,.66-1.25,.17-1.88,.86-2.52,1.97-2.09,3.57-1.95,6.7,1.11,9.65,1.16,1.12,.89,2.39-.24,3.49-1.32,1.28-2.63,2.57-3.91,3.89-1.06,1.09-2.17,1.2-3.38,.29-.05-.04-.11-.06-.15-.11-2.9-3.27-6.19-3.14-9.58-.96-.8,.51-1.39,1.47-1.88,2.33-.32,.57-.26,1.35-.38,2.04q-.69,3.99-4.65,3.99c-1.33,0-2.67,0-4,0-1.33-.01-2.14-.66-2.37-1.99-.23-1.31-.56-2.61-.67-3.93-.12-1.51-1.1-2-2.26-2.7-3.52-2.12-6.49-1.6-9.31,1.23-1.14,1.14-2.39,.91-3.5-.24-1.28-1.32-2.59-2.61-3.9-3.9-1.07-1.05-1.3-2.14-.29-3.35,.08-.1,.15-.2,.23-.31,3.21-4.66,3.25-4.68,.71-9.8-.33-.67-1.24-1.14-1.98-1.51-.54-.27-1.23-.24-1.86-.32-5.07-.64-4.3-1.2-4.31-5.31-.02-6.15-.49-5.41,5.14-6.28,1.95-.3,2.7-1.35,3.64-2.99,1.89-3.29,1.12-5.72-1.17-8.33-1.63-1.86-1.45-2.45,.24-4.2,1.15-1.19,2.36-2.3,3.49-3.51,1.15-1.23,2.42-1.54,3.62-.3,2.89,2.97,5.95,3.27,9.47,1.14,1.05-.64,1.88-1.16,2.02-2.48,.14-1.32,.49-2.61,.67-3.93,.19-1.35,.92-2.04,2.27-2.05,2.03,0,4.06,0,6.09,0,1.33,0,2.17,.6,2.35,1.97,.02,.19,.13,.38,.12,.56-.32,4.49,2.46,6.4,6.24,7.35,.81,.2,1.88,.05,2.63-.34,1.28-.66,2.33-1.77,3.62-2.43,.66-.34,1.92-.48,2.39-.09,1.84,1.55,3.48,3.32,5.15,5.06,.28,.29,.34,.79,.58,1.41Zm-12.73,19.13c.06-7.36-5.83-13.39-13.16-13.48-7.37-.09-13.47,5.92-13.54,13.35-.07,7.18,5.93,13.28,13.11,13.35,7.52,.07,13.53-5.77,13.59-13.22Z"/>
    </g>
  </g>
</svg>