<?xml version="1.0" encoding="utf-8"?>
<!-- Generator: Adobe Illustrator 26.5.0, SVG Export Plug-In . SVG Version: 6.00 Build 0)  -->
<svg version="1.1" id="Ebene_1" xmlns="http://www.w3.org/2000/svg" xmlns:xlink="http://www.w3.org/1999/xlink" x="0px" y="0px"
	 viewBox="0 0 566.7 505.2" style="enable-background:new 0 0 566.7 505.2;" xml:space="preserve">
<style type="text/css">
	.st0{opacity:0.75;}
	.st1{fill:#FFDE00;}
	.st2{fill:#FFDE00;enable-background:new    ;}
	.st3{fill:#DADADA;}
	.st4{opacity:0.32;fill:#706F6F;enable-background:new    ;}
	.st5{fill:#FFFFFF;}
	.st6{fill:#3C3C3B;}
	.st7{fill:#1D1D1B;}
	.st8{fill:#103E4E;}
	.st9{fill:#CFCFCE;}
	.st10{fill:#B2B2B2;}
	.st11{fill:#BBBBBB;}
	.st12{fill:#395B6A;}
	.st13{opacity:0.37;fill:#706F6F;enable-background:new    ;}
	.st14{fill:#DDE2E0;}
	.st15{fill:#415D68;}
	.st16{fill:#536D77;}
	.st17{fill:none;stroke:#FFDE00;stroke-width:3;stroke-miterlimit:10;}
</style>
<g class="st0">
	<g>
		<path class="st1" d="M120.2,250.3c-0.4,0.8-0.7,1.6-1.2,2.4c-1.1,1.7-2.3,3.3-3.5,5c-0.8,1.1-0.8,2.3-0.2,3.6
			c0.8,1.8,1.6,3.6,2.3,5.4c0.5,1.5,1.5,2.2,3.1,2.5c2.1,0.3,4.2,0.7,6.4,1.1c1.7,0.3,2.5,1.4,2.5,3.1c0,3.1,0,6.1,0,9.1
			c0,1.6-0.8,2.7-2.4,3c-2.2,0.4-4.4,0.8-6.6,1.1c-1.6,0.2-2.5,1-3,2.5c-0.6,1.8-1.3,3.6-2.2,5.3c-0.8,1.5-0.5,2.8,0.4,4.1
			c1.2,1.7,2.4,3.3,3.6,5c1.2,1.7,1.1,2.9-0.4,4.4c-1.9,2-3.9,4-5.9,5.9c-1.7,1.7-2.7,1.7-4.7,0.4c-1.6-1.1-3.2-2.2-4.8-3.4
			c-1.3-1-2.6-1.1-4.1-0.4c-1.7,0.8-3.5,1.5-5.3,2.2c-1.4,0.5-2.2,1.4-2.4,2.8c-0.3,2.1-0.7,4.1-1,6.2c-0.3,2-1.3,2.9-3.3,2.9
			c-2.9,0-5.8,0-8.8,0c-2,0-3-0.8-3.3-2.9c-0.3-2-0.7-4-1-6c-0.2-1.5-1-2.5-2.5-3c-1.8-0.6-3.5-1.4-5.2-2.2
			c-1.4-0.7-2.6-0.6-3.9,0.3c-1.7,1.2-3.4,2.4-5.1,3.6c-1.5,1.1-2.9,1-4.3-0.3c-2.1-2.1-4.2-4.2-6.3-6.3c-1.3-1.3-1.4-2.8-0.2-4.3
			c1.2-1.7,2.4-3.4,3.7-5.1c0.9-1.2,1-2.5,0.3-3.9c-0.9-1.7-1.5-3.5-2.1-5.3c-0.5-1.5-1.5-2.3-3-2.5c-2.1-0.3-4.2-0.7-6.4-1.1
			c-1.8-0.3-2.6-1.5-2.6-3.2c0-2.9,0-5.8,0-8.8c0-1.9,0.8-3.1,2.9-3.3c2-0.3,4-0.8,6-1c1.7-0.2,2.6-1.1,3.1-2.6
			c0.7-1.8,1.4-3.5,2.2-5.3c0.6-1.3,0.6-2.5-0.3-3.7c-1.3-1.7-2.5-3.5-3.7-5.3c-1.1-1.5-1-2.9,0.4-4.2c2.1-2,4.1-4.2,6.2-6.2
			c1.5-1.5,2.6-1.5,4.4-0.3c1.7,1.2,3.3,2.3,5,3.5c1.2,0.9,2.5,1.1,3.9,0.4c1.8-0.8,3.8-1.4,5.6-2.4c0.9-0.5,1.8-1.5,2.1-2.4
			c0.6-2,0.8-4.1,1.1-6.2c0.4-2.4,1.2-3.2,3.7-3.2c2.9,0,5.7,0,8.6,0c1.9,0,2.9,0.9,3.2,2.8c0.4,2.1,0.8,4.2,1.1,6.4
			c0.2,1.4,1,2.2,2.3,2.8c1.9,0.7,3.7,1.7,5.7,2.2c1.1,0.3,2.5,0.2,3.5-0.3c1.9-1,3.7-2.5,5.5-3.8c1.3-1,2.6-1,3.8,0.2
			c2.3,2.2,4.6,4.5,6.9,6.9C119.7,248.8,119.9,249.6,120.2,250.3L120.2,250.3z M63.9,277.7c-0.1,10.5,8.4,19,18.9,19.1
			c10.5,0.1,19-8.4,19.1-18.9c0.1-10.5-8.3-19.1-18.8-19.2C72.5,258.6,64,267.1,63.9,277.7L63.9,277.7z"/>
		<path class="st1" d="M185.4,235.8c0,4.8,0.7,5.1-4.9,5.8c-2.1,0.2-3.6,1.1-4,3.3c0,0.1,0,0.1-0.1,0.2c-1.9,2.7-1.2,5,0.9,7.5
			c2.1,2.4,1.9,2.9-0.3,5.1c-1.1,1.1-2.2,2.1-3.2,3.2c-1,1-2,1.2-3.2,0.3c-0.1-0.1-0.2-0.1-0.3-0.2c-2.9-3.2-6.2-3.2-9.6-0.9
			c-0.8,0.5-1.5,1.4-1.8,2.3c-0.5,1.3-0.3,2.8-0.8,4.1c-0.3,0.8-1.3,1.7-2,1.8c-2.1,0.2-4.3,0.2-6.4,0c-0.8-0.1-1.7-1-2-1.8
			c-0.5-1.3-0.6-2.7-0.8-4.1c-0.1-0.4-0.1-0.8-0.2-1.1c-0.8-1.8-6.8-3.5-8.4-2.3c-1.1,0.8-2.1,1.8-3.3,2.3c-0.8,0.3-2.1,0.3-2.7-0.2
			c-1.7-1.3-3.2-2.9-4.6-4.6c-0.5-0.6-0.2-1.8-0.2-2.7c0-0.1,0.2-0.3,0.3-0.5c3.3-4.8,3.3-4.8,0.8-10c-0.3-0.6-1.1-1.2-1.8-1.4
			c-1.4-0.4-3-0.5-4.5-0.8c-1.2-0.2-1.8-0.9-1.8-2.1c0-2.2-0.2-4.3,0.1-6.5c0.1-0.8,1-1.7,1.7-2c1.3-0.5,2.8-0.3,4.1-0.8
			c0.9-0.3,1.9-1.1,2.4-2c2.3-3.5,2-6.7-1.1-9.6c-1.1-1-0.9-2.2,0.2-3.3c1.4-1.4,2.8-2.8,4.2-4.2c0.9-0.9,1.9-1,2.9-0.3
			c0.1,0.1,0.2,0.1,0.3,0.2c2.9,3.1,6.2,3.4,9.7,1c0.7-0.5,1.4-1.3,1.7-2.2c0.5-1.3,0.6-2.7,0.8-4.1c0.2-1.3,1-2.1,2.3-2.1
			c2,0,4.1,0,6.1,0c1.2,0,2.1,0.6,2.3,1.9c0,0.2,0.2,0.5,0.2,0.7c-0.3,4.4,2.3,6.4,6.1,7.3c0.9,0.2,2,0.1,2.8-0.3
			c1.2-0.6,2.3-1.6,3.4-2.4c1.1-0.8,2.1-0.8,3.1,0.2c1.4,1.4,2.9,2.9,4.3,4.3c0.9,0.9,1,2,0.2,3.1c-0.1,0.1-0.1,0.2-0.2,0.3
			c-3.1,2.9-3.1,6-1.1,9.5c0.6,1.1,1.3,1.8,2.5,2c1.1,0.1,2.1,0.3,3.2,0.5c2.3,0.4,2.8,1,2.8,3.2
			C185.4,234.3,185.4,235.1,185.4,235.8L185.4,235.8z M166.2,235.9c0-7.5-5.9-13.4-13.4-13.4c-7.3,0-13.3,6.1-13.3,13.4
			c0,7.3,6.1,13.3,13.4,13.3C160.2,249.2,166.2,243.2,166.2,235.9z"/>
		<path class="st1" d="M178.9,300.7c-0.6,0.9-1.3,1.9-1.9,2.9c-0.7,1.1-1.9,2.4-1.7,3.4c0.3,2,1.4,3.9,2.3,5.8
			c0.2,0.4,1,0.6,1.6,0.8c1.2,0.3,2.4,0.4,3.5,0.7c2.4,0.5,2.7,0.8,2.7,3.3c0,1.7,0,3.3,0,5c0,1.4-0.6,2.3-2,2.5
			c-1.3,0.2-2.6,0.5-3.9,0.7c-1.2,0.2-1.9,0.9-2.5,2c-2.1,3.6-1.9,6.7,1.1,9.6c1.2,1.1,0.9,2.4-0.2,3.5c-1.3,1.3-2.6,2.6-3.9,3.9
			c-1.1,1.1-2.2,1.2-3.4,0.3c-0.1,0-0.1-0.1-0.1-0.1c-2.9-3.3-6.2-3.1-9.6-1c-0.8,0.5-1.4,1.5-1.9,2.3c-0.3,0.6-0.3,1.4-0.4,2
			c-0.5,2.7-2,4-4.7,4c-1.3,0-2.7,0-4,0c-1.3,0-2.1-0.7-2.4-2c-0.2-1.3-0.6-2.6-0.7-3.9c-0.1-1.5-1.1-2-2.3-2.7
			c-3.5-2.1-6.5-1.6-9.3,1.2c-1.1,1.1-2.4,0.9-3.5-0.2c-1.3-1.3-2.6-2.6-3.9-3.9c-1.1-1.1-1.3-2.1-0.3-3.4c0.1-0.1,0.2-0.2,0.2-0.3
			c3.2-4.7,3.3-4.7,0.7-9.8c-0.3-0.7-1.2-1.1-2-1.5c-0.5-0.3-1.2-0.2-1.9-0.3c-5.1-0.6-4.3-1.2-4.3-5.3c0-6.2-0.5-5.4,5.1-6.3
			c1.9-0.3,2.7-1.4,3.6-3c1.9-3.3,1.1-5.7-1.2-8.3c-1.6-1.9-1.4-2.5,0.2-4.2c1.2-1.2,2.4-2.3,3.5-3.5c1.1-1.2,2.4-1.5,3.6-0.3
			c2.9,3,5.9,3.3,9.5,1.1c1.1-0.6,1.9-1.2,2-2.5s0.5-2.6,0.7-3.9c0.2-1.4,0.9-2,2.3-2.1c2,0,4.1,0,6.1,0c1.3,0,2.2,0.6,2.3,2
			c0,0.2,0.1,0.4,0.1,0.6c-0.3,4.5,2.5,6.4,6.2,7.4c0.8,0.2,1.9,0,2.6-0.3c1.3-0.7,2.3-1.8,3.6-2.4c0.7-0.3,1.9-0.5,2.4-0.1
			c1.8,1.5,3.5,3.3,5.1,5.1C178.6,299.6,178.7,300.1,178.9,300.7L178.9,300.7z M166.2,319.9c0.1-7.4-5.8-13.4-13.2-13.5
			c-7.4-0.1-13.5,5.9-13.5,13.4c-0.1,7.2,5.9,13.3,13.1,13.4C160.1,333.1,166.1,327.3,166.2,319.9z"/>
	</g>
</g>
<rect x="290" y="90.7" transform="matrix(0.2874 -0.9578 0.9578 0.2874 129.032 364.1859)" class="st2" width="38.4" height="9.4"/>
<rect x="315.6" y="88.9" transform="matrix(0.2874 -0.9578 0.9578 0.2874 157.478 398.8068)" class="st2" width="62.4" height="9.4"/>
<rect x="321.4" y="79.1" transform="matrix(0.2874 -0.9578 0.9578 0.2874 182.0627 412.3382)" class="st2" width="93.4" height="9.4"/>
<rect x="337.5" y="83.9" transform="matrix(0.2874 -0.9578 0.9578 0.2874 188.8858 431.1054)" class="st2" width="93.4" height="9.4"/>
<rect x="349.2" y="80.9" transform="matrix(0.2874 -0.9578 0.9578 0.2874 206.4453 448.6665)" class="st2" width="111" height="9.4"/>
<rect x="357.8" y="74.1" transform="matrix(0.2874 -0.9578 0.9578 0.2874 228.3051 464.4666)" class="st2" width="137" height="9.4"/>
<rect x="304.4" y="91.3" transform="matrix(0.2874 -0.9578 0.9578 0.2874 141.6528 382.3826)" class="st2" width="46.9" height="9.4"/>
<path class="st3" d="M204.8,302.4l210.4-97.3c5.3-2.4,11.5-0.1,13.9,5.1l56.7,122.6c2.4,5.3,0.1,11.5-5.1,13.9l-210.4,97.3
	c-5.3,2.4-11.5,0.1-13.9-5.1l-56.7-122.6C197.3,311.1,199.5,304.8,204.8,302.4z"/>
<path class="st4" d="M204.8,302.4l210.4-97.3c5.3-2.4,11.5-0.1,13.9,5.1l13.5,29.2c2.4,5.3,0.1,11.5-5.1,13.9l-210.4,97.3
	c-5.3,2.4-11.5,0.1-13.9-5.1l-13.5-29.2C197.2,311.1,199.5,304.8,204.8,302.4z"/>
<path class="st5" d="M145.5,196c1.2-1.1,2.3-1.7,2.9-2c0.7-0.4,1.4-0.7,1.9-0.9L301,122.3c15.6-7.3,38.8-18.2,67.6-31.1
	c3.4-1.4,6.8-2.8,10.2-4.3c1.5-0.1,3.8-0.1,5.8,1.2c2.5,1.7,3.3,4.6,3.5,5.7c4.4,17.2,11.5,33.6,17,50.4
	c3.7,11.3,5.6,14.4,10.5,30.1c1.8,5.6,3.1,10.3,3.9,13.4c-0.2,1.8-0.9,4.3-2.7,6.3c-2,2.3-4.6,3-5.1,3.2
	c-5,1.6-60.1,27.6-139.7,65.5c-24.3,11.5-48.7,23.1-73,34.6c-0.3,0.1-3.4,1.4-5.8-0.2c-0.9-0.6-1.3-1.4-1.4-1.6
	c-1.4-2.6-19.2-35-43.7-79.5c-1.9-3.8-3.8-7.6-5.6-11.5c-0.3-1-0.7-3,0.2-4.9C143.1,198.1,144,197.3,145.5,196L145.5,196z"/>
<g id="Og7eq6.tif">
	<g>
		<path class="st6" d="M367.2,334c-3.6,1.6-6.5,2.9-9.3,4.2c-18,8.3-36,16.6-54.1,24.8c-1.8,0.8-5.4,1.6-6,0.8
			c-2-2.8-3.2-6.2-4.3-9.5c-0.2-0.6,1.5-2.1,2.5-2.6c21.1-9.8,42.3-19.5,63.5-29.2c2.6-1.2,4.6-0.7,5.8,2.2c0.7,1.8,1.9,3.5,2.3,5.3
			C367.9,331.3,367.3,332.9,367.2,334L367.2,334z"/>
		<path class="st6" d="M240.7,357.5c6.9-3.1,14.5-6.8,22.5-9.8c3.9-1.4,5.2,2.3,6.5,5.2c1.2,2.8,1.3,5.5-1.6,7
			c-7.2,3.5-14.5,6.8-21.9,10c-2.7,1.2-4.9-0.1-6.1-2.9C238.7,364.1,236.7,361.2,240.7,357.5L240.7,357.5z"/>
		<path class="st6" d="M425.1,250.3c-4.7,2.1-9.9,4.8-15.4,6.5c-3.9,1.2-5.2-2.4-6.5-5.3c-1.4-3-1.3-5.7,1.8-7.3
			c4.6-2.4,9.4-4.5,14.2-6.5c2.9-1.2,5.1,0.1,6.4,3.1C426.9,243.8,428.7,246.8,425.1,250.3L425.1,250.3z"/>
		<path class="st6" d="M233.2,341.7c4.5-2,9.7-4.7,15.2-6.4c4.2-1.3,5.4,2.6,6.7,5.7c1.3,2.9,0.7,5.5-2.1,6.9
			c-4.5,2.3-9.2,4.4-13.9,6.2c-2.9,1.1-5.3,0.2-6.6-2.8C231.3,348.3,229.3,345.3,233.2,341.7L233.2,341.7z"/>
		<path class="st6" d="M438.2,270c5,7.8,4.2,10.8-1.7,13.1c-3,1.2-6,2.7-9,4c-4.3,1.7-5.9,0.8-8.1-4.2c-1.5-3.5-1.6-6.4,2.5-8.1
			c3.7-1.6,7.3-3.5,11.1-4.8C434.7,269.4,436.9,270,438.2,270L438.2,270z"/>
		<path class="st6" d="M268.9,310.1c3.2,3.9,3.4,8.6,0.3,11.2c-3.6,3-8.4,3.6-10.6,1.2c-3.2-3.6-3.7-8.6-1-10.9
			C262.1,307.9,266.5,307.3,268.9,310.1z"/>
		<path class="st6" d="M286.8,332.2c-4.1,3.5-9.1,4.1-11.2,1.4c-3.1-3.9-3.3-8.5-0.5-10.9c4-3.4,9.1-3.8,11.2-1
			C289.2,325.4,289.4,330,286.8,332.2L286.8,332.2z"/>
		<path class="st6" d="M371.7,308.3c-3.2-4.3-3.3-7.9-0.1-10.2c4.8-3.6,8.5-3.9,10.7-1c3.3,4.4,3.2,8.4-0.3,11
			C377.6,311.3,374,311.4,371.7,308.3L371.7,308.3z"/>
		<path class="st6" d="M386.8,310.2c3.7-3.4,8.5-4,10.8-1.5c3.1,3.4,3.6,8.1,1.1,10.4c-3.9,3.5-8.3,4.3-10.7,1.8
			C384.6,317.4,384.1,312.7,386.8,310.2L386.8,310.2z"/>
		<path class="st6" d="M367.3,276.2c-3.7,3.2-9.2,4-11.2,1.6c-2.7-3.2-2.8-8.8-0.4-11.1c3.5-3.2,8.6-3.7,10.9-1
			C369.6,269.5,369.9,274,367.3,276.2L367.3,276.2z"/>
		<path class="st6" d="M367.7,295.3c-3.3,3-8.5,3.7-10.6,1.4c-3-3.3-3.6-8.3-1.2-10.6c3.2-3,9.5-4,11.4-1.9
			C369.7,286.9,370,293.2,367.7,295.3z"/>
		<path class="st6" d="M290.4,335.1c3.5-3.1,7.9-3.7,10.1-1.4c3.1,3.2,3.7,8.3,1.3,10.5c-3.9,3.6-9,4.3-11.2,1.7
			C287.4,342.2,287.4,337.8,290.4,335.1z"/>
		<path class="st6" d="M242.5,329.7c-3-3.4-3.6-8.4-1.2-10.6c3.5-3.2,8.6-3.7,10.8-0.9c3,3.7,3.5,8.4,0.9,10.6
			C249.5,331.8,244.7,332.2,242.5,329.7L242.5,329.7z"/>
		<path class="st6" d="M349.6,273.5c3,3.5,3.5,8.4,1.1,10.6c-3.4,3-8.4,3.6-10.6,1.2c-3.2-3.5-4-9-1-10.8
			C343.8,271.6,346.8,270.3,349.6,273.5z"/>
		<path class="st6" d="M382.4,258.3c3.2,3.6,3.7,8.1,1.2,10.5c-3.4,3.1-8.2,3.8-10.5,1.4c-3.2-3.4-3.8-8.6-1.2-10.8
			C375.5,256.2,380.1,255.8,382.4,258.3L382.4,258.3z"/>
		<path class="st6" d="M399.8,261.3c-3.3,3.1-8.3,3.8-10.5,1.4c-3.2-3.3-3.7-8.5-1.1-10.8c3.6-3.1,8.2-3.6,10.5-1.1
			C401.7,254.2,402.2,259,399.8,261.3L399.8,261.3z"/>
		<path class="st6" d="M416.2,229.8c-2.2,2.3-5.7,2.9-7.4,1.4c-2.4-2.2-2.9-5.9-1.1-7.6c2.4-2.3,5.7-2.8,7.3-1.1
			C417.3,224.7,417.8,228.1,416.2,229.8z"/>
		<path class="st6" d="M274.5,303.8c3.5-3.1,8.4-3.6,10.5-1.2c3.2,3.6,3.6,8.5,0.9,10.9c-3.7,3.1-8.4,3.5-10.5,0.9
			C272.3,310.7,271.9,306.1,274.5,303.8L274.5,303.8z"/>
		<path class="st6" d="M302,306.1c-3.6,3.1-8.6,3.8-10.4,1c-2.9-4.4-4.3-8-0.8-10.7c4-3.1,8.1-3.5,10.4-0.7
			C304.3,299.4,304.7,303.8,302,306.1L302,306.1z"/>
		<path class="st6" d="M270.2,339.8c-3.3,3-8.4,3.7-10.5,1.4c-3-3.2-3.6-8.3-1.3-10.5c3.4-3.3,8.5-3.9,10.8-1.3
			C272.2,332.9,272.7,337.6,270.2,339.8z"/>
		<path class="st6" d="M384.4,287.4c-3.5,3.1-8.3,3.7-10.6,1.2c-3-3.3-3.5-8.4-1.1-10.6c3.4-3.1,8.3-3.6,10.6-1.1
			C386.4,280.3,386.9,285.1,384.4,287.4L384.4,287.4z"/>
		<path class="st6" d="M235.7,325.3c3.1,3.3,3.8,8.2,1.5,10.5c-3.2,3.2-8.4,3.7-10.8,1.1c-3.1-3.5-3.7-8.2-1.1-10.4
			C228.8,323.4,233.4,322.9,235.7,325.3L235.7,325.3z"/>
		<path class="st6" d="M333.4,281c3.2,3.7,3.8,8.5,1,10.4c-4.5,3-8,4.2-10.7,0.8c-3.1-4-3.5-8.1-0.7-10.4
			C326.9,278.6,331.1,278.3,333.4,281z"/>
		<path class="st6" d="M350.6,292.3c3.1,3.8,3.5,8.2,0.8,10.4c-3.5,3-8.3,3.5-10.5,1.1c-3.3-3.7-3.6-8.5-0.8-10.7
			C344,290,348.4,289.7,350.6,292.3L350.6,292.3z"/>
		<path class="st6" d="M302.9,324.7c-3.6,3.1-8.2,3.6-10.4,1.1c-3-3.5-3.6-8.3-1.1-10.5c3.5-3.2,8.5-3.7,10.8-1
			C305.3,318.1,305.6,322.3,302.9,324.7L302.9,324.7z"/>
		<path class="st6" d="M334.5,299.8c3.2,3.9,3.5,8,0.6,10.4c-3.9,3.2-8.1,3.5-10.4,0.7c-3.2-3.9-3.5-8-0.6-10.4
			C327.9,297.3,332.1,297,334.5,299.8z"/>
		<path class="st6" d="M416.5,272.8c-3.6,3.2-8.1,3.7-10.5,1.1c-3.1-3.5-3.6-8.2-1-10.5c3.5-3.1,8.2-3.5,10.5-1
			C418.8,265.9,419.2,270.4,416.5,272.8L416.5,272.8z"/>
		<path class="st6" d="M318.1,306.9c3.2,3.6,3.6,8,1,10.3c-3.7,3.2-8.2,3.7-10.5,1.1c-3.1-3.6-3.5-8.2-0.9-10.5
			C311.3,304.8,315.8,304.3,318.1,306.9L318.1,306.9z"/>
		<path class="st6" d="M279.5,359.4c3.6-3.1,8.3-3.5,10.4-0.9c2.9,3.6,3.3,8,0.9,10.2c-3.4,3.1-8.4,3.6-10.5,1.1
			C277.2,366.2,276.9,361.6,279.5,359.4L279.5,359.4z"/>
		<path class="st6" d="M317.1,288.2c3.1,3.4,3.7,8.1,1.3,10.4c-3.3,3.1-8.2,3.8-10.4,1.5c-3.2-3.3-3.8-8.4-1.2-10.7
			C310.4,286.1,314.8,285.7,317.1,288.2L317.1,288.2z"/>
		<path class="st6" d="M322.5,320.5c3.6-3.2,8.1-3.6,10.4-0.9c3.2,3.7,3.5,8.2,0.9,10.4c-3.6,3-8,3.4-10.1,1
			C320.5,327.5,320,322.6,322.5,320.5z"/>
		<path class="st6" d="M431.8,255.1c3.2,3.8,3.6,8.1,0.9,10.4c-3.8,3.1-8.1,3.5-10.4,0.9c-3.2-3.7-3.5-8-0.8-10.4
			C425.1,252.8,429.5,252.4,431.8,255.1L431.8,255.1z"/>
		<path class="st6" d="M380.8,316.8c3.2,3.6,3.7,8.2,1.1,10.4c-3.5,3-7.9,3.5-10.1,1.2c-3-3.2-3.7-8.3-1.3-10.5
			C373.9,314.7,378.5,314.2,380.8,316.8L380.8,316.8z"/>
		<path class="st6" d="M430.9,304.5c-3.6,3.2-8.3,3.6-10.4,1c-2.9-3.6-3.4-8-1-10.1c3.4-3.1,8.2-3.7,10.5-1.2
			C433.1,297.5,433.5,302.2,430.9,304.5L430.9,304.5z"/>
		<path class="st6" d="M388.9,270.7c4.2-2.4,7.8-4.2,10.5-1c3.1,3.8,3.7,8,1,10.4c-3.6,3.2-8.2,3.6-10.5,1.1
			C386.8,277.7,386.3,273,388.9,270.7L388.9,270.7z"/>
		<path class="st6" d="M274.4,376.1c-3.6,3.1-8.3,3.5-10.4,0.9c-3.1-3.9-3.3-8.2-0.5-10.4c3.8-3,8-3.4,10.1-0.9
			C276.8,369.5,277.1,373.8,274.4,376.1L274.4,376.1z"/>
		<path class="st6" d="M388.8,300.9c-3.1-3.6-3.4-8.2-0.8-10.4c3.6-3,7.9-3.5,10.1-1.1c3,3.4,3.6,8.3,1.2,10.6
			C396,302.9,390.9,303.4,388.8,300.9L388.8,300.9z"/>
		<path class="st6" d="M348.9,312c3.1,3.5,3.6,8.1,1.1,10.4c-3.6,3.2-8.1,3.5-10.4,0.9c-2.9-3.5-3.4-8-1.1-10.1
			C341.8,310.2,346.7,309.6,348.9,312L348.9,312z"/>
		<path class="st6" d="M316.6,326.8c3.1,3.5,3.6,8.3,1.1,10.4c-3.5,2.9-8,3.4-10.2,1.1c-2.9-3-3.6-8.4-1.4-10.5
			C309.5,324.7,314.4,324.2,316.6,326.8L316.6,326.8z"/>
		<path class="st6" d="M247,374.1c3.4-3.1,8.3-3.6,10.4-1.1c3.1,3.7,3.5,8.1,0.9,10.4c-3.6,3.1-7.8,3.5-10,1.1
			C245.1,381.2,244.5,376.3,247,374.1L247,374.1z"/>
		<path class="st6" d="M365.3,304.9c3.1,3.8,3.4,8,0.6,10.3c-3.9,3.2-7.9,3.4-10.2,0.5c-3-3.8-3.5-8.1-0.7-10
			C359.3,303,362.8,301.7,365.3,304.9L365.3,304.9z"/>
		<path class="st6" d="M404,283.3c3.5-3.2,8-3.6,10.3-1c3,3.4,3.5,7.9,1.3,10.1c-3.1,3-8.3,3.7-10.5,1.3
			C402,290.4,401.5,285.5,404,283.3L404,283.3z"/>
		<path class="st6" d="M273.6,342.9c3.6-3.1,8.3-3.5,10.4-0.9c3,3.6,3.4,7.9,1.1,10.1c-3.2,3.1-8.2,3.6-10.4,1.2
			C271.5,349.9,271,345.1,273.6,342.9L273.6,342.9z"/>
		<path class="st6" d="M449.5,296.4c-3.8,1.7-6.7,3.3-9.8,4.2c-0.8,0.2-2.6-1.4-3.2-2.6c-0.4-0.9,0.1-3,0.9-3.5
			c2.5-1.5,5.3-2.8,8.1-3.7c0.9-0.3,2.7,0.7,3.3,1.6C449.5,293.6,449.3,295.2,449.5,296.4L449.5,296.4z"/>
		<path class="st6" d="M417.3,311c-3.8,1.7-6.8,3.2-10,4.3c-0.7,0.2-2.5-1.4-2.9-2.5c-0.4-1,0.1-3.1,0.9-3.5
			c2.5-1.5,5.3-2.8,8.1-3.7c0.9-0.3,2.6,0.8,3.3,1.7C417.2,308.3,417.1,309.8,417.3,311L417.3,311z"/>
	</g>
</g>
<path class="st7" d="M145.4,201.5c1.2-1.1,2.3-1.7,2.9-2.1c0.7-0.4,1.4-0.7,1.9-0.9L301.4,128c15.6-7.3,39-18.1,67.8-31
	c3.4-1.4,6.8-2.8,10.2-4.3c1.5-0.1,3.9-0.1,5.9,1.3c2.6,1.8,5,8.3,5.4,9.3c6.2,19.1,8.3,23.7,14.3,40.8c4,11.5,8.4,21.8,13.7,37.8
	c1.9,5.8,3.4,10.5,4.3,13.6c-0.2,1.9-0.8,4.3-2.6,6.4c-2,2.3-4.6,3-5.1,3.2c-5,1.6-60.4,27.5-140.2,65.3
	c-24.4,11.5-48.8,23-73.3,34.5c-0.3,0.1-3.4,1.4-5.9-0.3c-0.9-0.6-1.4-1.4-1.5-1.7c-1.5-2.7-20.3-35.8-46.1-81.3
	c-2-3.9-4-7.8-6-11.7c-0.3-1.1-0.8-3,0.1-5C143,203.7,143.9,202.9,145.4,201.5L145.4,201.5z"/>
<path class="st8" d="M163.1,201.2c1.1-0.9,2-1.5,2.5-1.8c0.6-0.4,1.2-0.6,1.6-0.8l132.2-61.7c13.7-6.4,34-15.8,59.3-27.1
	c3-1.2,6-2.5,8.9-3.7c1.3-0.1,3.4-0.1,5.2,1.2c2.3,1.5,4.4,7.3,4.7,8.2c5.4,16.7,7.3,20.7,12.5,35.7c3.5,10.1,7.3,19,11.9,33
	c1.7,5,2.9,9.2,3.7,11.9c-0.2,1.6-0.7,3.8-2.3,5.6c-1.8,2-4,2.6-4.5,2.8c-4.4,1.4-52.8,24.1-122.6,57.1
	c-21.3,10.1-42.7,20.1-64,30.2c-0.3,0.1-3,1.2-5.1-0.3c-0.8-0.5-1.2-1.2-1.3-1.5c-1.3-2.3-17.7-31.3-40.3-71.1
	c-1.7-3.4-3.5-6.8-5.2-10.2c-0.3-0.9-0.7-2.6,0.1-4.4C161,203.1,161.8,202.4,163.1,201.2L163.1,201.2z"/>
<path class="st6" d="M233.6,290.6l1.7,3.5c0.3,0.6,1,0.8,1.6,0.6l152.3-72c0.6-0.3,0.9-1,0.6-1.6l-1.1-2.6c-0.3-0.6-1-0.9-1.6-0.6
	L234.2,289C233.6,289.3,233.3,290,233.6,290.6L233.6,290.6z"/>
<path class="st6" d="M215.8,314.9l2,4.1c0.4,0.8,1.3,1.1,2,0.7l183-85c0.8-0.4,1.1-1.2,0.7-2l-1.3-2.9c-0.4-0.8-1.3-1.1-2-0.8
	l-183.7,83.8C215.8,313.1,215.4,314.1,215.8,314.9L215.8,314.9z"/>
<path class="st9" d="M320.4,360.5l58-26.4c1.6-0.7,3.5,0,4.3,1.6l15.1,33.1c0.7,1.6,0,3.5-1.6,4.3l-58,26.4c-1.6,0.7-3.5,0-4.3-1.6
	l-15.1-33.1C318,363.1,318.7,361.2,320.4,360.5z"/>
<path class="st10" d="M323.4,361.5l53.8-24.5c1.6-0.7,3.5,0,4.3,1.6l13.2,29.1c0.7,1.6,0,3.5-1.6,4.3l-53.8,24.5
	c-1.6,0.7-3.5,0-4.3-1.6l-13.2-29.1C321,364.2,321.7,362.3,323.4,361.5z"/>
<path class="st11" d="M346.8,408.4c-1.2-2.6,0.7-7.5,3.7-8.8l38.2-17.4c3-1.4,7.9,0.1,9.1,2.7"/>
<polygon class="st12" points="291.4,141 306.3,133.8 282.4,258.6 266.8,266 "/>
<path class="st12" d="M368,218.1l-72.7,34.5c7.2-41.1,15.1-82.9,22.3-124c16.7-7.8,31.7-15.8,47.8-22.7c1.4-0.3,3.9-0.7,6.3,0.6
	c2.6,1.4,3.7,4.1,4.4,5.8c2.2,5.3,4.2,12.9,6.9,19.5L368,218.1L368,218.1z"/>
<path class="st13" d="M234.3,413.2l93.6,21.5c4.8,1.1,7.8,5.9,6.7,10.7l-11.1,48.4c-1.1,4.8-5.9,7.8-10.7,6.7L219.2,479
	c-4.8-1.1-7.8-5.9-6.7-10.7l11.1-48.4C224.7,415.1,229.5,412.1,234.3,413.2z"/>
<path class="st14" d="M233.3,417.7l93.6,21.5c4.8,1.1,7.8,5.9,6.7,10.7l-11.1,48.4c-1.1,4.8-5.9,7.8-10.7,6.7l-93.6-21.5
	c-4.8-1.1-7.8-5.9-6.7-10.7l11.1-48.4C223.7,419.6,228.5,416.6,233.3,417.7z"/>
<path class="st15" d="M236,423.5l82.8,19.1c1.4,0.3,2.2,1.7,1.9,3l-11.8,50.9c-0.3,1.4-1.7,2.2-3,1.9L223,479.4
	c-1.4-0.3-2.2-1.7-1.9-3l11.8-50.9C233.2,424,234.6,423.2,236,423.5z"/>
<path class="st15" d="M316.2,474.2l0.7-3.1c0.4-1.9,2.3-3.1,4.2-2.6l3.1,0.7c1.9,0.4,3.1,2.3,2.6,4.2l-0.7,3.1
	c-0.4,1.9-2.3,3.1-4.2,2.6l-3.1-0.7C317,478,315.8,476.1,316.2,474.2z"/>
<polygon class="st16" points="228.2,446.5 230.6,436 279.3,492.4 263.8,488.7 "/>
<path class="st16" d="M231.9,430.9l1.1-5.6c0.3-1.4,1.6-2.2,3-1.9l46.5,11.5c0.5,0.1,0.9,0.4,1.2,0.7l30.5,31.8c0.6,0.6,1.2,1,1,1.9
	l-6.5,28.1c-0.3,1.3-2.3,1.4-3.6,1.1l-18.8-4.4c-0.5-0.1-1-0.4-1.3-0.8L232.5,433C232,432.4,231.8,431.6,231.9,430.9L231.9,430.9z"
	/>
<g>
	<path class="st1" d="M312.8,204.6c-2.3-4.9-4.6-9.9-7-14.8c-0.8-1.6-0.5-2.5,1.1-3.2c1.7-0.7,3.4-1.5,5.1-2.3
		c1.2-0.6,2-0.2,2.5,0.9c4.8,10.2,9.5,20.4,14.3,30.6c0.6,1.3,0.3,2.1-1,2.6c-1.7,0.7-3.4,1.5-5,2.4c-1.4,0.8-2.3,0.4-2.9-1.1
		C317.5,214.7,315.2,209.7,312.8,204.6L312.8,204.6z"/>
	<path class="st1" d="M282,221.1c-2-4.3-4-8.6-6.1-12.9c-1.1-2.4-1-2.6,1.4-3.8c1.5-0.7,2.9-1.3,4.4-2.1c1.3-0.7,2.2-0.4,2.9,0.9
		c4.2,9.1,8.5,18.2,12.7,27.2c0.6,1.3,0.3,2.2-1.1,2.8c-1.7,0.7-3.4,1.5-5,2.4c-1.5,0.8-2.3,0.3-2.9-1.1
		C286.2,230,284.1,225.5,282,221.1L282,221.1z"/>
	<path class="st1" d="M277.1,194.3c-4.1,9-8.2,17.7-12.2,26.5c-0.1,0.3-0.2,0.7-0.4,0.8c-0.6,0.4-1.4,0.7-2,1.1
		c-0.2-0.7-0.7-1.6-0.5-2.2c1.1-2.8,2.4-5.4,3.7-8.1c3-6.5,6-13,9-19.6c0.8-1.7,1.7-2,3.3-1.3c5.2,2,10.5,3.8,16.1,5.9
		c0.3-1.1,0.5-2.2,0.9-3.2c2.7-7.5,5.4-15,8.1-22.6c0.2-0.5,0.3-1.2,0.7-1.5c0.4-0.4,1.2-0.7,1.6-0.5c0.4,0.1,0.8,0.9,0.9,1.4
		c0.1,0.4-0.2,0.9-0.4,1.4c-3.1,8.7-6.2,17.4-9.3,26c-0.8,2.3-1.1,2.5-3.6,1.6c-4.6-1.7-9.3-3.4-13.9-5.1
		C278.5,194.7,277.9,194.5,277.1,194.3L277.1,194.3z"/>
	<path class="st1" d="M278.2,230.6c1.1,2.3,2.1,4.6,3.2,6.9c0.8,1.5,0.6,2.5-1.1,3.2c-1.7,0.7-3.4,1.5-5.1,2.4
		c-1.2,0.6-2,0.3-2.6-0.8c-2.4-5-4.7-10-7-15c-0.6-1.2-0.2-2,0.9-2.6c1.8-0.9,3.6-1.7,5.4-2.5c1.2-0.6,2.1-0.2,2.7,1.1
		C275.8,225.7,277,228.2,278.2,230.6L278.2,230.6z"/>
	<path class="st1" d="M300.7,219.8c-1.1-2.4-2.2-4.7-3.3-7.1c-0.7-1.4-0.3-2.3,1.1-3c1.6-0.7,3.3-1.5,4.9-2.3c1.4-0.7,2.3-0.4,3,1
		c2.2,4.8,4.5,9.6,6.8,14.4c0.6,1.4,0.4,2.3-1.1,2.9c-1.7,0.7-3.3,1.4-4.9,2.3c-1.5,0.8-2.4,0.3-3-1.1
		C303,224.6,301.8,222.2,300.7,219.8L300.7,219.8z"/>
</g>
<polyline class="st17" points="300.9,165.4 311,157.4 312.2,169.9 "/>
<g>
	<path class="st1" d="M271.8,455.4c-0.1,0.2-0.2,0.5-0.4,0.7c-0.3,0.5-0.7,1-1,1.5c-0.2,0.3-0.2,0.7-0.1,1c0.2,0.5,0.5,1,0.7,1.6
		c0.2,0.4,0.4,0.6,0.9,0.7c0.6,0.1,1.2,0.2,1.9,0.3c0.5,0.1,0.7,0.4,0.7,0.9c0,0.9,0,1.8,0,2.7c0,0.5-0.2,0.8-0.7,0.9
		c-0.6,0.1-1.3,0.2-1.9,0.3c-0.5,0.1-0.7,0.3-0.9,0.7c-0.2,0.5-0.4,1-0.6,1.5c-0.2,0.5-0.1,0.8,0.1,1.2c0.4,0.5,0.7,1,1,1.4
		c0.4,0.5,0.3,0.8-0.1,1.3c-0.6,0.6-1.1,1.2-1.7,1.7c-0.5,0.5-0.8,0.5-1.4,0.1c-0.5-0.3-0.9-0.6-1.4-1c-0.4-0.3-0.8-0.3-1.2-0.1
		c-0.5,0.2-1,0.5-1.5,0.6c-0.4,0.1-0.6,0.4-0.7,0.8c-0.1,0.6-0.2,1.2-0.3,1.8c-0.1,0.6-0.4,0.8-1,0.8c-0.9,0-1.7,0-2.5,0
		c-0.6,0-0.9-0.2-1-0.8c-0.1-0.6-0.2-1.2-0.3-1.8c-0.1-0.5-0.3-0.7-0.7-0.9c-0.5-0.2-1-0.4-1.5-0.6c-0.4-0.2-0.8-0.2-1.1,0.1
		c-0.5,0.4-1,0.7-1.5,1.1c-0.4,0.3-0.9,0.3-1.2-0.1c-0.6-0.6-1.2-1.2-1.9-1.8c-0.4-0.4-0.4-0.8-0.1-1.2c0.4-0.5,0.7-1,1.1-1.5
		c0.3-0.4,0.3-0.7,0.1-1.1c-0.2-0.5-0.4-1-0.6-1.5c-0.2-0.4-0.4-0.7-0.9-0.7c-0.6-0.1-1.2-0.2-1.9-0.3c-0.5-0.1-0.8-0.4-0.8-0.9
		c0-0.9,0-1.7,0-2.5c0-0.5,0.2-0.9,0.8-1c0.6-0.1,1.2-0.2,1.8-0.3c0.5-0.1,0.8-0.3,0.9-0.8c0.2-0.5,0.4-1,0.6-1.5
		c0.2-0.4,0.2-0.7-0.1-1.1c-0.4-0.5-0.7-1-1.1-1.5c-0.3-0.5-0.3-0.9,0.1-1.2c0.6-0.6,1.2-1.2,1.8-1.8c0.4-0.4,0.8-0.5,1.3-0.1
		c0.5,0.3,1,0.7,1.4,1c0.4,0.3,0.7,0.3,1.1,0.1c0.5-0.2,1.1-0.4,1.6-0.7c0.3-0.1,0.5-0.4,0.6-0.7c0.2-0.6,0.2-1.2,0.3-1.8
		c0.1-0.7,0.4-0.9,1.1-0.9c0.8,0,1.7,0,2.5,0c0.6,0,0.9,0.3,0.9,0.8c0.1,0.6,0.2,1.2,0.3,1.9c0.1,0.4,0.3,0.7,0.7,0.8
		c0.5,0.2,1.1,0.5,1.6,0.6c0.3,0.1,0.7,0.1,1-0.1c0.6-0.3,1.1-0.7,1.6-1.1c0.4-0.3,0.8-0.3,1.1,0c0.7,0.7,1.4,1.3,2,2
		C271.6,454.9,271.6,455.1,271.8,455.4L271.8,455.4z M255.3,463.4c0,3.1,2.4,5.6,5.5,5.6c3,0,5.5-2.5,5.6-5.5c0-3.1-2.4-5.6-5.5-5.6
		C257.9,457.8,255.4,460.2,255.3,463.4L255.3,463.4z"/>
	<path class="st1" d="M290.8,451.1c0,1.4,0.2,1.5-1.4,1.7c-0.6,0.1-1,0.3-1.2,1c0,0,0,0,0,0c-0.5,0.8-0.4,1.5,0.2,2.2
		c0.6,0.7,0.5,0.9-0.1,1.5c-0.3,0.3-0.6,0.6-0.9,0.9c-0.3,0.3-0.6,0.4-0.9,0.1c0,0-0.1,0-0.1-0.1c-0.9-0.9-1.8-0.9-2.8-0.3
		c-0.2,0.1-0.4,0.4-0.5,0.7c-0.1,0.4-0.1,0.8-0.2,1.2c-0.1,0.2-0.4,0.5-0.6,0.5c-0.6,0.1-1.3,0.1-1.9,0c-0.2,0-0.5-0.3-0.6-0.5
		c-0.1-0.4-0.2-0.8-0.2-1.2c0-0.1,0-0.2-0.1-0.3c-0.2-0.5-2-1-2.5-0.7c-0.3,0.2-0.6,0.5-1,0.7c-0.2,0.1-0.6,0.1-0.8,0
		c-0.5-0.4-0.9-0.8-1.3-1.3c-0.1-0.2-0.1-0.5-0.1-0.8c0,0,0.1-0.1,0.1-0.1c1-1.4,1-1.4,0.2-2.9c-0.1-0.2-0.3-0.4-0.5-0.4
		c-0.4-0.1-0.9-0.2-1.3-0.2c-0.3-0.1-0.5-0.3-0.5-0.6c0-0.6,0-1.3,0-1.9c0-0.2,0.3-0.5,0.5-0.6c0.4-0.1,0.8-0.1,1.2-0.2
		c0.3-0.1,0.5-0.3,0.7-0.6c0.7-1,0.6-1.9-0.3-2.8c-0.3-0.3-0.3-0.7,0.1-1c0.4-0.4,0.8-0.8,1.2-1.2c0.3-0.3,0.5-0.3,0.9-0.1
		c0,0,0.1,0,0.1,0.1c0.9,0.9,1.8,1,2.8,0.3c0.2-0.1,0.4-0.4,0.5-0.6c0.1-0.4,0.2-0.8,0.2-1.2c0.1-0.4,0.3-0.6,0.7-0.6
		c0.6,0,1.2,0,1.8,0c0.4,0,0.6,0.2,0.7,0.5c0,0.1,0,0.1,0,0.2c-0.1,1.3,0.7,1.9,1.8,2.1c0.3,0.1,0.6,0,0.8-0.1
		c0.4-0.2,0.7-0.5,1-0.7c0.3-0.2,0.6-0.2,0.9,0c0.4,0.4,0.8,0.8,1.3,1.2c0.3,0.3,0.3,0.6,0.1,0.9c0,0,0,0.1-0.1,0.1
		c-0.9,0.8-0.9,1.7-0.3,2.8c0.2,0.3,0.4,0.5,0.7,0.6c0.3,0,0.6,0.1,0.9,0.1c0.7,0.1,0.8,0.3,0.8,1
		C290.8,450.7,290.8,450.9,290.8,451.1L290.8,451.1z M285.2,451.1c0-2.2-1.7-3.9-3.9-3.9c-2.1,0-3.9,1.8-3.9,3.9
		c0,2.1,1.8,3.9,3.9,3.9C283.4,455,285.2,453.3,285.2,451.1z"/>
	<path class="st1" d="M288.9,470.1c-0.2,0.3-0.4,0.6-0.5,0.9c-0.2,0.3-0.5,0.7-0.5,1c0.1,0.6,0.4,1.1,0.7,1.7
		c0.1,0.1,0.3,0.2,0.5,0.2c0.3,0.1,0.7,0.1,1,0.2c0.7,0.1,0.8,0.2,0.8,1c0,0.5,0,1,0,1.4c0,0.4-0.2,0.7-0.6,0.7
		c-0.4,0.1-0.8,0.1-1.1,0.2c-0.4,0-0.5,0.2-0.7,0.6c-0.6,1-0.6,2,0.3,2.8c0.3,0.3,0.3,0.7-0.1,1c-0.4,0.4-0.8,0.8-1.1,1.1
		c-0.3,0.3-0.6,0.4-1,0.1c0,0,0,0,0,0c-0.9-1-1.8-0.9-2.8-0.3c-0.2,0.1-0.4,0.4-0.5,0.7c-0.1,0.2-0.1,0.4-0.1,0.6
		c-0.1,0.8-0.6,1.2-1.4,1.2c-0.4,0-0.8,0-1.2,0s-0.6-0.2-0.7-0.6c-0.1-0.4-0.2-0.8-0.2-1.1c0-0.4-0.3-0.6-0.7-0.8
		c-1-0.6-1.9-0.5-2.7,0.4c-0.3,0.3-0.7,0.3-1-0.1c-0.4-0.4-0.8-0.8-1.1-1.1c-0.3-0.3-0.4-0.6-0.1-1c0,0,0-0.1,0.1-0.1
		c0.9-1.4,1-1.4,0.2-2.9c-0.1-0.2-0.4-0.3-0.6-0.4c-0.2-0.1-0.4-0.1-0.5-0.1c-1.5-0.2-1.2-0.4-1.3-1.5c0-1.8-0.1-1.6,1.5-1.8
		c0.6-0.1,0.8-0.4,1.1-0.9c0.5-1,0.3-1.7-0.3-2.4c-0.5-0.5-0.4-0.7,0.1-1.2c0.3-0.4,0.7-0.7,1-1c0.3-0.4,0.7-0.5,1.1-0.1
		c0.8,0.9,1.7,1,2.8,0.3c0.3-0.2,0.5-0.3,0.6-0.7s0.1-0.8,0.2-1.1c0.1-0.4,0.3-0.6,0.7-0.6c0.6,0,1.2,0,1.8,0c0.4,0,0.6,0.2,0.7,0.6
		c0,0,0,0.1,0,0.2c-0.1,1.3,0.7,1.9,1.8,2.1c0.2,0.1,0.5,0,0.8-0.1c0.4-0.2,0.7-0.5,1-0.7c0.2-0.1,0.6-0.1,0.7,0
		c0.5,0.5,1,1,1.5,1.5C288.8,469.7,288.8,469.9,288.9,470.1L288.9,470.1z M285.2,475.6c0-2.1-1.7-3.9-3.8-3.9c-2.1,0-3.9,1.7-4,3.9
		c0,2.1,1.7,3.9,3.8,3.9C283.4,479.5,285.2,477.8,285.2,475.6L285.2,475.6z"/>
</g>
</svg>
