<?xml version="1.0" encoding="UTF-8"?>
<svg id="Ebene_1" data-name="Ebene 1" xmlns="http://www.w3.org/2000/svg" viewBox="0 0 71.68 31.48">
  <defs>
    <style>
      .cls-1 {
        fill: none;
        stroke: #fff;
        stroke-miterlimit: 10;
        stroke-width: 3px;
      }

      .cls-2 {
        fill: #fff;
      }
    </style>
  </defs>
  <g>
    <path class="cls-2" d="M0,8.1H16.9l7.53,5.48H15.78V30.3h-6.86V13.58H2.94L0,8.1Z"/>
    <path class="cls-2" d="M56.13,30.2c-.9-.88-1.34-2.4-1.34-4.3v-.38s-4.64-7.98-4.64-7.98l7.57-8.28h-8.53l-6.71,8.29-.11-6.28-6.51,5.02,.21,14.9h6.41v-5.35l3.31-3.67,4.37,9.02h7.23c-.56-.29-.7-.44-1.27-.99Z"/>
    <path class="cls-2" d="M66.14,16.29v6.96c0,1.32-.21,2.23-.63,2.74-.42,.51-.96,.76-1.63,.76-.61,0-1.08-.19-1.42-.57-.34-.38-.5-1.03-.5-1.93v-7.95h-5.57v9.21c0,1.9,.43,3.3,1.3,4.22,.87,.91,2.06,1.37,3.59,1.37,1.14,0,2.11-.2,2.89-.61,.79-.41,1.56-1.09,2.34-2.06v2.96l5.18,.09v-15.18h-5.54Z"/>
    <path class="cls-2" d="M34.42,24.85h-11.11c.1,.89,.34,1.55,.72,1.99,.54,.63,1.23,.94,2.1,.94,.54,0,1.06-.14,1.55-.41,.3-.17,.62-.48,.97-.91h5.58c-.55,1.65-1.79,3.13-3.14,3.63-1.26,.47-2.87,.95-5.08,.95-1.92,0-3.42-.27-4.52-.81-1.1-.54-2.01-1.4-2.73-2.57-.72-1.18-1.08-2.56-1.08-4.15,0-2.26,.72-4.09,2.17-5.49s3.45-2.1,6-2.1c2.07,0,3.7,.31,4.9,.94s2.11,1.53,2.74,2.72c.63,1.19,.94,2.74,.94,4.64v.63Zm-5.64-2.66c-.11-1.07-.4-1.84-.86-2.3s-1.08-.69-1.85-.69c-.88,0-1.58,.35-2.11,1.05-.34,.44-.55,1.09-.64,1.95h5.46Z"/>
  </g>
  <path class="cls-1" d="M24.08,10.12c2.35-3.06,10.45-5.15,14.68,.1"/>
  <path class="cls-1" d="M19.99,7.07c3.91-5.61,15.21-8.95,22.81-.22"/>
  <path class="cls-1" d="M28.49,13.35c1.38-1.97,4.68-1.66,6.11,.27"/>
</svg>