<?xml version="1.0" encoding="utf-8"?>
<!-- Generator: Adobe Illustrator 26.5.0, SVG Export Plug-In . SVG Version: 6.00 Build 0)  -->
<svg version="1.1" id="Ebene_1" xmlns="http://www.w3.org/2000/svg" xmlns:xlink="http://www.w3.org/1999/xlink" x="0px" y="0px"
	 viewBox="0 0 234.9 229.1" style="enable-background:new 0 0 234.9 229.1;" xml:space="preserve">
<style type="text/css">
	.st0{fill:#FFFFFF;}
	.st1{fill:url(#SVGID_1_);}
	.st2{fill:url(#SVGID_00000008852588677611579660000017779538232091473826_);}
</style>
<g>
	<g>
		<path class="st0" d="M62.4,77.2h40.4V87H89.3v30H76V87H62.4V77.2z"/>
		<path class="st0" d="M108.9,77.2h35.7v8.5h-22.3V92h20.7v8.1h-20.7v7.9h23v9h-36.3V77.2z"/>
	</g>
</g>
<g>
	<path class="st0" d="M63.1,124.9H75v13.4l12.4-13.4h15.8l-14,13.4l14.6,22.1H89.2l-8.1-14.6l-6.1,5.9v8.7H63.1V124.9z"/>
	<path class="st0" d="M132.6,124.9h11.8v21.2c0,2.1-0.4,4.1-1.1,5.9c-0.7,1.9-1.8,3.5-3.3,4.9c-1.5,1.4-3.1,2.4-4.7,2.9
		c-2.3,0.8-5.1,1.2-8.3,1.2c-1.9,0-3.9-0.1-6.1-0.4c-2.2-0.2-4.1-0.7-5.5-1.4c-1.5-0.7-2.8-1.7-4.1-3.1s-2.1-2.7-2.5-4.1
		c-0.7-2.3-1.1-4.3-1.1-6v-21.2h11.8v21.7c0,1.9,0.6,3.5,1.7,4.5c1.2,1.1,2.8,1.6,4.8,1.6c2,0,3.6-0.5,4.8-1.6
		c1.2-1.1,1.7-2.6,1.7-4.6V124.9z"/>
</g>
<linearGradient id="SVGID_1_" gradientUnits="userSpaceOnUse" x1="18.1399" y1="139.0539" x2="122.2532" y2="226.2556">
	<stop  offset="9.826259e-03" style="stop-color:#009FE3"/>
	<stop  offset="0.1573" style="stop-color:#009DE2"/>
	<stop  offset="0.2848" style="stop-color:#0099DC"/>
	<stop  offset="0.4048" style="stop-color:#0091D2"/>
	<stop  offset="0.5204" style="stop-color:#0086C4"/>
	<stop  offset="0.6328" style="stop-color:#0077B2"/>
	<stop  offset="0.7427" style="stop-color:#00639D"/>
	<stop  offset="0.8507" style="stop-color:#004C85"/>
	<stop  offset="0.9545" style="stop-color:#25326D"/>
	<stop  offset="1" style="stop-color:#2D2764"/>
</linearGradient>
<path class="st1" d="M21.3,211.9c28.4-0.1,56.8-0.3,85.2-0.4c1.7-0.6,4.2-1.7,7-3.2c3.7-1.9,6.3-3.7,7.6-4.7
	c8.2-5.8,16.9-13.7,24.5-20.2c2.1-1.8,5.3-4.5,9.4-7.9c-2.1,0-5.4,0-9.4,0c-9.4,0-16.7,0.2-42.3,0.7c-10.2,0.2-20.4,0.4-30.6,0.7
	c-7.8,0.2-15.6,0.4-23.3,0.6c-1.4,0.1-2.6,0.4-3.4,0.6c-1.8,0.4-3.9,1-5.6,2.4c-0.2,0.1-0.3,0.3-1,1c-1.4,1.5-2.4,2.7-3.1,3.5
	c-8.1,9-16.3,18-24.4,27L21.3,211.9z"/>
<linearGradient id="SVGID_00000124859760466959972440000008478902551337908636_" gradientUnits="userSpaceOnUse" x1="94.555" y1="-89.7332" x2="235.7039" y2="-79.5196" gradientTransform="matrix(0.9999 -1.234248e-02 1.513874e-02 0.9206 -10.6468 194.7599)">
	<stop  offset="0" style="stop-color:#009FE3"/>
	<stop  offset="0.1072" style="stop-color:#009CE1"/>
	<stop  offset="0.243" style="stop-color:#0094D9"/>
	<stop  offset="0.3943" style="stop-color:#0088CC"/>
	<stop  offset="0.5567" style="stop-color:#0075B9"/>
	<stop  offset="0.728" style="stop-color:#005DA1"/>
	<stop  offset="0.9042" style="stop-color:#004085"/>
	<stop  offset="1" style="stop-color:#1D2F76"/>
</linearGradient>
<path style="fill:url(#SVGID_00000124859760466959972440000008478902551337908636_);" d="M204.2,116.2c0-4.2-0.1-8.6,0-21.7
	c0-9.2,0.1-16.8,0.2-21.7l0.1-6.7c4.5,0,8.5,0.2,12.6,0c2-0.1,4.5-0.9,5.5-2.2c0.7-0.9-0.3-3.4-1.3-4.7
	c-11-13.7-22.3-27.3-33.5-40.9c-2.6-3.2-5-3.4-7.8-0.1c-11.4,13.6-22.9,27.2-34.2,40.9c-3.2,3.9-1.6,6.4,3.7,6.6
	c4.1,0.1,8.2,0.1,13.1,0.1c-0.1,17-0.2,33.1-0.3,49.1c0,0.5,0,1,0,1.5l0,0.4c0.4,7.6,0.1,17.1-0.9,24.9c-0.6,4.3-0.6,9.3-4.5,16.4
	c-1.7,3-3.4,5.3-5,7.3c-3.8,4.7-11.2,12.7-31.2,26.4c-15.3,10.5-23.1,14.1-27,15.9c-4,1.7-7.4,3-9.9,3.8c19.7,0,39.4,0,59.1,0
	c2.2,0,4.4,0,6.7,0c4.2,0,4,0,8.2,0c5.3-3.2,17-8.2,24-15.9c2.8-3.1,8.3-9.4,12.8-18.1C204,159.4,204.1,141.4,204.2,116.2z"/>
</svg>
