<?xml version="1.0" encoding="utf-8"?>
<!-- Generator: Adobe Illustrator 26.5.0, SVG Export Plug-In . SVG Version: 6.00 Build 0)  -->
<svg version="1.1" id="Ebene_1" xmlns="http://www.w3.org/2000/svg" xmlns:xlink="http://www.w3.org/1999/xlink" x="0px" y="0px"
	 viewBox="0 0 234.9 229.1" style="enable-background:new 0 0 234.9 229.1;" xml:space="preserve">
<style type="text/css">
	.st0{fill:#FFFFFF;}
	.st1{fill:url(#SVGID_1_);}
	.st2{fill:url(#SVGID_00000060727890332371646010000001134752550320993684_);}
	.st3{fill:url(#SVGID_00000052826340701833628350000008446245377607456147_);}
</style>
<g>
	<g>
		<path class="st0" d="M58.5,77.2h40.4V87H85.4v30H72.1V87H58.5V77.2z"/>
		<path class="st0" d="M104.4,77.3h36.5v8.4l-23.1,0.1l0.1,7h23.2l0,8.4h-23.2l0,7h23v9h-36.5L104.4,77.3L104.4,77.3z"/>
	</g>
</g>
<g>
	<path class="st0" d="M58.5,122.7h11.9v13.6l12.5-13.6h15.9l-14.1,13.6l13.9,22.4H84.9l-8.2-14.8l-6.2,6v8.8h-12
		C58.5,158.7,58.5,122.7,58.5,122.7z"/>
	<path class="st0" d="M129.2,122.8H141V144c0,2.1-0.4,4.1-1.1,5.9c-0.7,1.9-1.8,3.5-3.3,4.9s-3.1,2.4-4.7,2.9
		c-2.3,0.8-5.1,1.2-8.3,1.2c-1.9,0-3.9-0.1-6.1-0.4c-2.2-0.2-4.1-0.7-5.5-1.4c-1.5-0.7-2.8-1.7-4.1-3.1c-1.2-1.3-2.1-2.7-2.5-4.1
		c-0.7-2.3-1.1-4.3-1.1-6v-21.2h11.8v21.7c0,1.9,0.6,3.5,1.7,4.5c1.2,1.1,2.8,1.6,4.8,1.6s3.6-0.5,4.8-1.6c1.2-1.1,1.7-2.6,1.7-4.6
		v-21.5L129.2,122.8L129.2,122.8z"/>
</g>
<linearGradient id="SVGID_1_" gradientUnits="userSpaceOnUse" x1="18.9859" y1="903.7075" x2="112.2131" y2="981.7915" gradientTransform="matrix(1 0 0 1 0 -764)">
	<stop  offset="9.826259e-03" style="stop-color:#009FE3"/>
	<stop  offset="0.1573" style="stop-color:#009DE2"/>
	<stop  offset="0.2848" style="stop-color:#0099DC"/>
	<stop  offset="0.4048" style="stop-color:#0091D2"/>
	<stop  offset="0.5204" style="stop-color:#0086C4"/>
	<stop  offset="0.6328" style="stop-color:#0077B2"/>
	<stop  offset="0.7427" style="stop-color:#00639D"/>
	<stop  offset="0.8507" style="stop-color:#004C85"/>
	<stop  offset="0.9545" style="stop-color:#25326D"/>
	<stop  offset="1" style="stop-color:#2D2764"/>
</linearGradient>
<path class="st1" d="M142.4,171.3l-97.7-0.7c-1.9,0-3.7,1-4.7,2.8l-20.7,35.2c-1.1,1.9,0.1,4.4,2.2,4.4l75.9-0.3"/>
<linearGradient id="SVGID_00000162354027114368627680000007329884756439686578_" gradientUnits="userSpaceOnUse" x1="69.2397" y1="790.1514" x2="210.4036" y2="800.3661" gradientTransform="matrix(0.9998 -1.697681e-02 1.940549e-02 0.9205 -8.1243 -614.0974)">
	<stop  offset="0" style="stop-color:#009FE3"/>
	<stop  offset="0.1072" style="stop-color:#009CE1"/>
	<stop  offset="0.243" style="stop-color:#0094D9"/>
	<stop  offset="0.3943" style="stop-color:#0088CC"/>
	<stop  offset="0.5567" style="stop-color:#0075B9"/>
	<stop  offset="0.728" style="stop-color:#005DA1"/>
	<stop  offset="0.9042" style="stop-color:#004085"/>
	<stop  offset="1" style="stop-color:#1D2F76"/>
</linearGradient>
<path style="fill:url(#SVGID_00000162354027114368627680000007329884756439686578_);" d="M198.2,116.8c0-4.2-0.1-8.6-0.1-21.7
	c0-9.2,0-16.8,0.1-21.7l0.1-6.7c4.5,0,8.5,0.2,12.6-0.1c2-0.1,5.3-0.5,5.7-2.5c0.2-1.7-0.7-3-1.7-4.4
	c-11.1-13.6-22.3-27.3-33.6-40.9c-2.6-3.2-5-3.4-7.8-0.1c-11.3,13.7-22.8,27.3-34,41.1c-3.2,3.9-1.6,6.4,3.7,6.6
	c4.1,0.1,8.2,0.1,13.1,0c0,17,0,33.1-0.1,49.1c0,0.5,0,1,0,1.5l0,0.4c0.1,9.9,0,17.6-0.8,24.9c-0.6,4.3-0.6,9.3-4.4,16.4
	c-1.7,3-3.4,5.3-5,7.3C142.3,171,135,179,115,192.8c-15.3,10.6-23,14.2-26.9,16c-4,1.7-7.4,3-9.9,3.8c19.7-0.1,39.4-0.2,59.1-0.3
	c2.2,0,4.4,0,6.7,0l3.5,0c3,0,6-0.7,8.6-2.2c5.9-3.2,11.9-8.6,19.4-15.1c2.8-3.1,8.9-8.1,13.3-16.9C198.1,160,198.1,142,198.2,116.8
	z"/>
<linearGradient id="SVGID_00000092418591314045784010000014657874744975288761_" gradientUnits="userSpaceOnUse" x1="97.1223" y1="212.3137" x2="97.1223" y2="212.3137">
	<stop  offset="9.826259e-03" style="stop-color:#009FE3"/>
	<stop  offset="0.1573" style="stop-color:#009DE2"/>
	<stop  offset="0.2848" style="stop-color:#0099DC"/>
	<stop  offset="0.4048" style="stop-color:#0091D2"/>
	<stop  offset="0.5204" style="stop-color:#0086C4"/>
	<stop  offset="0.6328" style="stop-color:#0077B2"/>
	<stop  offset="0.7427" style="stop-color:#00639D"/>
	<stop  offset="0.8507" style="stop-color:#004C85"/>
	<stop  offset="0.9545" style="stop-color:#25326D"/>
	<stop  offset="1" style="stop-color:#2D2764"/>
</linearGradient>
<path style="fill:url(#SVGID_00000092418591314045784010000014657874744975288761_);" d="M97.1,212.3"/>
</svg>
