<?xml version="1.0" encoding="utf-8"?>
<!-- Generator: Adobe Illustrator 26.5.0, SVG Export Plug-In . SVG Version: 6.00 Build 0)  -->
<svg version="1.1" id="Ebene_1" xmlns="http://www.w3.org/2000/svg" xmlns:xlink="http://www.w3.org/1999/xlink" x="0px" y="0px"
	 viewBox="0 0 231.1 213.4" style="enable-background:new 0 0 231.1 213.4;" xml:space="preserve">
<style type="text/css">
	.st0{fill:url(#SVGID_1_);}
	.st1{fill:url(#SVGID_00000132077321562457646480000005247760971076663209_);}
	.st2{fill:url(#SVGID_00000106843277146307799880000015041967483406699967_);}
</style>
<g>
	<g>
		<path d="M57.7,69.1h40.4v9.8H84.6v30H71.3v-30H57.7V69.1z"/>
		<path d="M103.7,69.2h36.5v8.4l-23.1,0.1l0.1,7h23.2l0,8.4h-23.2l0,7h23v9h-36.5L103.7,69.2L103.7,69.2z"/>
	</g>
</g>
<g>
	<path d="M57.8,114.6h11.9v13.6l12.5-13.6h15.9L84,128.2l13.9,22.4H84.2L76,135.8l-6.2,6v8.8h-12C57.8,150.6,57.8,114.6,57.8,114.6z
		"/>
	<path d="M128.5,114.7h11.8v21.2c0,2.1-0.4,4.1-1.1,5.9c-0.7,1.9-1.8,3.5-3.3,4.9s-3.1,2.4-4.7,2.9c-2.3,0.8-5.1,1.2-8.3,1.2
		c-1.9,0-3.9-0.1-6.1-0.4c-2.2-0.2-4.1-0.7-5.5-1.4c-1.5-0.7-2.8-1.7-4.1-3.1c-1.2-1.3-2.1-2.7-2.5-4.1c-0.7-2.3-1.1-4.3-1.1-6
		v-21.2h11.8v21.7c0,1.9,0.6,3.5,1.7,4.5c1.2,1.1,2.8,1.6,4.8,1.6s3.6-0.5,4.8-1.6s1.7-2.6,1.7-4.6v-21.5L128.5,114.7L128.5,114.7z"
		/>
</g>
<linearGradient id="SVGID_1_" gradientUnits="userSpaceOnUse" x1="18.2234" y1="895.6273" x2="111.4507" y2="973.7112" gradientTransform="matrix(1 0 0 1 0 -764)">
	<stop  offset="9.826259e-03" style="stop-color:#009FE3"/>
	<stop  offset="0.1573" style="stop-color:#009DE2"/>
	<stop  offset="0.2848" style="stop-color:#0099DC"/>
	<stop  offset="0.4048" style="stop-color:#0091D2"/>
	<stop  offset="0.5204" style="stop-color:#0086C4"/>
	<stop  offset="0.6328" style="stop-color:#0077B2"/>
	<stop  offset="0.7427" style="stop-color:#00639D"/>
	<stop  offset="0.8507" style="stop-color:#004C85"/>
	<stop  offset="0.9545" style="stop-color:#25326D"/>
	<stop  offset="1" style="stop-color:#2D2764"/>
</linearGradient>
<path class="st0" d="M141.6,163.2L44,162.5c-1.9,0-3.7,1-4.7,2.8l-20.7,35.2c-1.1,1.9,0.1,4.4,2.2,4.4l75.9-0.3"/>
<linearGradient id="SVGID_00000130630960382259667730000008699052952008901004_" gradientUnits="userSpaceOnUse" x1="68.4789" y1="782.0687" x2="209.6428" y2="792.2833" gradientTransform="matrix(0.9998 -1.697681e-02 1.940549e-02 0.9205 -7.9692 -614.7502)">
	<stop  offset="0" style="stop-color:#009FE3"/>
	<stop  offset="0.1072" style="stop-color:#009CE1"/>
	<stop  offset="0.243" style="stop-color:#0094D9"/>
	<stop  offset="0.3943" style="stop-color:#0088CC"/>
	<stop  offset="0.5567" style="stop-color:#0075B9"/>
	<stop  offset="0.728" style="stop-color:#005DA1"/>
	<stop  offset="0.9042" style="stop-color:#004085"/>
	<stop  offset="1" style="stop-color:#1D2F76"/>
</linearGradient>
<path style="fill:url(#SVGID_00000130630960382259667730000008699052952008901004_);" d="M197.4,108.8c0-4.2-0.1-8.6-0.1-21.7
	c0-9.2,0-16.8,0.1-21.7l0.1-6.7c4.5,0,8.5,0.2,12.6-0.1c2-0.1,5.3-0.5,5.7-2.5c0.2-1.7-0.7-3-1.7-4.4
	c-11.1-13.6-22.3-27.3-33.6-40.9c-2.6-3.2-5-3.4-7.8-0.1c-11.3,13.7-22.8,27.3-34,41.1c-3.2,3.9-1.6,6.4,3.7,6.6
	c4.1,0.1,8.2,0.1,13.1,0c0,17,0,33.1-0.1,49.1c0,0.5,0,1,0,1.5l0,0.4c0.1,9.9,0,17.6-0.8,24.9c-0.6,4.3-0.6,9.3-4.4,16.4
	c-1.7,3-3.4,5.3-5,7.3c-3.8,4.7-11.1,12.8-31.1,26.5c-15.3,10.6-23,14.2-26.9,16c-4,1.7-7.4,3-9.9,3.8c19.7-0.1,39.4-0.2,59.1-0.3
	c2.2,0,4.4,0,6.7,0l3.5,0c3,0,6-0.7,8.6-2.2c5.9-3.2,11.9-8.6,19.4-15.1c2.8-3.1,8.9-8.1,13.3-16.9C197.3,152,197.3,134,197.4,108.8
	z"/>
<linearGradient id="SVGID_00000036970764817435665600000006503086418730347674_" gradientUnits="userSpaceOnUse" x1="96.3598" y1="204.2334" x2="96.3598" y2="204.2334">
	<stop  offset="9.826259e-03" style="stop-color:#009FE3"/>
	<stop  offset="0.1573" style="stop-color:#009DE2"/>
	<stop  offset="0.2848" style="stop-color:#0099DC"/>
	<stop  offset="0.4048" style="stop-color:#0091D2"/>
	<stop  offset="0.5204" style="stop-color:#0086C4"/>
	<stop  offset="0.6328" style="stop-color:#0077B2"/>
	<stop  offset="0.7427" style="stop-color:#00639D"/>
	<stop  offset="0.8507" style="stop-color:#004C85"/>
	<stop  offset="0.9545" style="stop-color:#25326D"/>
	<stop  offset="1" style="stop-color:#2D2764"/>
</linearGradient>
<path style="fill:url(#SVGID_00000036970764817435665600000006503086418730347674_);" d="M96.4,204.2"/>
</svg>
