<svg width="392" height="173" viewBox="0 0 392 173" fill="none" xmlns="http://www.w3.org/2000/svg">
<g clip-path="url(#clip0_0_1)">
<path d="M0 44.2608H92.3464L133.492 74.2051H86.2264V165.568H48.7414V74.2051H16.065L0 44.2608Z" fill="black"/>
<path d="M306.71 165.022C301.793 160.213 299.388 151.907 299.388 141.525V139.449L274.034 95.8437L315.399 50.5994H268.788L232.123 95.8983L231.522 61.5826L195.949 89.0133L197.097 170.431H232.123V141.197L250.21 121.143L274.089 170.431H313.595C310.535 168.847 309.77 168.027 306.656 165.022H306.71Z" fill="black"/>
<path d="M361.408 89.0133V127.045C361.408 134.258 360.26 139.23 357.965 142.017C355.67 144.804 352.72 146.17 349.059 146.17C345.725 146.17 343.157 145.132 341.299 143.055C339.441 140.979 338.567 137.427 338.567 132.509V89.068H308.131V139.394C308.131 149.776 310.481 157.426 315.235 162.453C319.989 167.426 326.491 169.94 334.851 169.94C341.081 169.94 346.381 168.847 350.643 166.606C354.96 164.366 359.168 160.65 363.43 155.35V171.524L391.735 172.016V89.068H361.463L361.408 89.0133Z" fill="black"/>
<path d="M188.081 135.788H127.372C127.919 140.651 129.23 144.257 131.307 146.662C134.257 150.104 138.028 151.798 142.782 151.798C145.732 151.798 148.574 151.033 151.251 149.558C152.891 148.629 154.639 146.935 156.552 144.585H187.042C184.037 153.601 177.261 161.688 169.885 164.421C163 166.989 154.202 169.612 142.126 169.612C131.635 169.612 123.438 168.136 117.427 165.186C111.417 162.235 106.444 157.536 102.51 151.142C98.5757 144.694 96.6085 137.154 96.6085 128.466C96.6085 116.116 100.543 106.117 108.466 98.4666C116.389 90.8166 127.318 86.9916 141.252 86.9916C152.563 86.9916 161.47 88.6855 168.027 92.128C174.584 95.5705 179.556 100.488 182.999 106.991C186.441 113.493 188.135 121.963 188.135 132.345V135.788H188.081ZM157.262 121.253C156.661 115.406 155.076 111.198 152.563 108.685C150.049 106.171 146.661 104.914 142.454 104.914C137.645 104.914 133.82 106.827 130.924 110.652C129.066 113.056 127.919 116.608 127.427 121.307H157.262V121.253Z" fill="black"/>
<path d="M131.58 55.2986C144.421 38.5779 188.682 27.1575 211.796 55.8451" stroke="black" stroke-width="3" stroke-miterlimit="10"/>
<path d="M109.231 38.6326C130.596 7.97786 192.343 -10.2729 233.871 37.4304" stroke="black" stroke-width="3" stroke-miterlimit="10"/>
<path d="M155.677 72.9483C163.218 62.1837 181.25 63.8776 189.064 74.4237" stroke="black" stroke-width="3" stroke-miterlimit="10"/>
</g>
<defs>
<clipPath id="clip0_0_1">
<rect width="391.68" height="172.016" fill="white"/>
</clipPath>
</defs>
</svg>
